<?xml version="1.0" encoding="UTF-8" standalone="no"?>
<!-- Created with Inkscape (http://www.inkscape.org/) -->

<svg
   xmlns:dc="http://purl.org/dc/elements/1.1/"
   xmlns:cc="http://creativecommons.org/ns#"
   xmlns:rdf="http://www.w3.org/1999/02/22-rdf-syntax-ns#"
   xmlns:svg="http://www.w3.org/2000/svg"
   xmlns="http://www.w3.org/2000/svg"
   xmlns:sodipodi="http://sodipodi.sourceforge.net/DTD/sodipodi-0.dtd"
   xmlns:inkscape="http://www.inkscape.org/namespaces/inkscape"
   width="600mm"
   height="300mm"
   viewBox="0 0 600 300"
   version="1.1"
   id="svg8"
   inkscape:version="0.92.4 (5da689c313, 2019-01-14)"
   sodipodi:docname="2mm_ALL_with_tabs.svg">
  <defs
     id="defs2">
    <marker
       style="overflow:visible"
       refY="0"
       refX="0"
       orient="auto"
       id="DistanceX">
      <path
         id="path817"
         style="stroke:#000000;stroke-width:0.5"
         d="M 3,-3 -3,3 M 0,-5 V 5"
         inkscape:connector-curvature="0" />
    </marker>
    <pattern
       y="0"
       x="0"
       width="8"
       patternUnits="userSpaceOnUse"
       id="Hatch"
       height="8">
      <path
         id="path820"
         stroke-width="0.25"
         stroke="#000000"
         linecap="square"
         d="M8 4 l-4,4" />
      <path
         id="path822"
         stroke-width="0.25"
         stroke="#000000"
         linecap="square"
         d="M6 2 l-4,4" />
      <path
         id="path824"
         stroke-width="0.25"
         stroke="#000000"
         linecap="square"
         d="M4 0 l-4,4" />
    </pattern>
    <symbol
       id="*MODEL_SPACE" />
    <symbol
       id="*PAPER_SPACE" />
    <marker
       style="overflow:visible"
       refY="0.0"
       refX="0.0"
       orient="auto"
       id="DistanceX-0">
      <path
         id="path907"
         style="stroke:#000000; stroke-width:0.5"
         d="M 3,-3 L -3,3 M 0,-5 L  0,5" />
    </marker>
    <pattern
       y="0"
       x="0"
       width="8"
       patternUnits="userSpaceOnUse"
       id="Hatch-2"
       height="8">
      <path
         id="path910"
         stroke-width="0.25"
         stroke="#000000"
         linecap="square"
         d="M8 4 l-4,4" />
      <path
         id="path912"
         stroke-width="0.25"
         stroke="#000000"
         linecap="square"
         d="M6 2 l-4,4" />
      <path
         id="path914"
         stroke-width="0.25"
         stroke="#000000"
         linecap="square"
         d="M4 0 l-4,4" />
    </pattern>
    <symbol
       id="*MODEL_SPACE-3" />
    <symbol
       id="*PAPER_SPACE-5" />
    <marker
       style="overflow:visible"
       refY="0.0"
       refX="0.0"
       orient="auto"
       id="DistanceX-3">
      <path
         id="path1092"
         style="stroke:#000000; stroke-width:0.5"
         d="M 3,-3 L -3,3 M 0,-5 L  0,5" />
    </marker>
    <pattern
       y="0"
       x="0"
       width="8"
       patternUnits="userSpaceOnUse"
       id="Hatch-6"
       height="8">
      <path
         id="path1095"
         stroke-width="0.25"
         stroke="#000000"
         linecap="square"
         d="M8 4 l-4,4" />
      <path
         id="path1097"
         stroke-width="0.25"
         stroke="#000000"
         linecap="square"
         d="M6 2 l-4,4" />
      <path
         id="path1099"
         stroke-width="0.25"
         stroke="#000000"
         linecap="square"
         d="M4 0 l-4,4" />
    </pattern>
    <symbol
       id="*MODEL_SPACE-1" />
    <symbol
       id="*PAPER_SPACE-52" />
    <marker
       style="overflow:visible"
       refY="0.0"
       refX="0.0"
       orient="auto"
       id="DistanceX-7">
      <path
         id="path1172"
         style="stroke:#000000; stroke-width:0.5"
         d="M 3,-3 L -3,3 M 0,-5 L  0,5" />
    </marker>
    <pattern
       y="0"
       x="0"
       width="8"
       patternUnits="userSpaceOnUse"
       id="Hatch-26"
       height="8">
      <path
         id="path1175"
         stroke-width="0.25"
         stroke="#000000"
         linecap="square"
         d="M8 4 l-4,4" />
      <path
         id="path1177"
         stroke-width="0.25"
         stroke="#000000"
         linecap="square"
         d="M6 2 l-4,4" />
      <path
         id="path1179"
         stroke-width="0.25"
         stroke="#000000"
         linecap="square"
         d="M4 0 l-4,4" />
    </pattern>
    <symbol
       id="*MODEL_SPACE-5" />
    <symbol
       id="*PAPER_SPACE-53" />
    <marker
       style="overflow:visible"
       refY="0.0"
       refX="0.0"
       orient="auto"
       id="DistanceX-1">
      <path
         id="path1340"
         style="stroke:#000000; stroke-width:0.5"
         d="M 3,-3 L -3,3 M 0,-5 L  0,5" />
    </marker>
    <pattern
       y="0"
       x="0"
       width="8"
       patternUnits="userSpaceOnUse"
       id="Hatch-3"
       height="8">
      <path
         id="path1343"
         stroke-width="0.25"
         stroke="#000000"
         linecap="square"
         d="M8 4 l-4,4" />
      <path
         id="path1345"
         stroke-width="0.25"
         stroke="#000000"
         linecap="square"
         d="M6 2 l-4,4" />
      <path
         id="path1347"
         stroke-width="0.25"
         stroke="#000000"
         linecap="square"
         d="M4 0 l-4,4" />
    </pattern>
    <symbol
       id="*Model_Space" />
    <symbol
       id="*Paper_Space" />
    <symbol
       id="*Paper_Space0" />
    <marker
       style="overflow:visible"
       refY="0.0"
       refX="0.0"
       orient="auto"
       id="DistanceX-08">
      <path
         id="path1603"
         style="stroke:#000000; stroke-width:0.5"
         d="M 3,-3 L -3,3 M 0,-5 L  0,5" />
    </marker>
    <pattern
       y="0"
       x="0"
       width="8"
       patternUnits="userSpaceOnUse"
       id="Hatch-4"
       height="8">
      <path
         id="path1606"
         stroke-width="0.25"
         stroke="#000000"
         linecap="square"
         d="M8 4 l-4,4" />
      <path
         id="path1608"
         stroke-width="0.25"
         stroke="#000000"
         linecap="square"
         d="M6 2 l-4,4" />
      <path
         id="path1610"
         stroke-width="0.25"
         stroke="#000000"
         linecap="square"
         d="M4 0 l-4,4" />
    </pattern>
    <symbol
       id="*Model_Space-6" />
    <symbol
       id="*Paper_Space-4" />
    <symbol
       id="*Paper_Space0-1" />
    <marker
       style="overflow:visible"
       refY="0.0"
       refX="0.0"
       orient="auto"
       id="DistanceX-19">
      <path
         id="path1866"
         style="stroke:#000000; stroke-width:0.5"
         d="M 3,-3 L -3,3 M 0,-5 L  0,5" />
    </marker>
    <pattern
       y="0"
       x="0"
       width="8"
       patternUnits="userSpaceOnUse"
       id="Hatch-1"
       height="8">
      <path
         id="path1869"
         stroke-width="0.25"
         stroke="#000000"
         linecap="square"
         d="M8 4 l-4,4" />
      <path
         id="path1871"
         stroke-width="0.25"
         stroke="#000000"
         linecap="square"
         d="M6 2 l-4,4" />
      <path
         id="path1873"
         stroke-width="0.25"
         stroke="#000000"
         linecap="square"
         d="M4 0 l-4,4" />
    </pattern>
    <symbol
       id="*MODEL_SPACE-36" />
    <symbol
       id="*PAPER_SPACE-2" />
    <marker
       style="overflow:visible"
       refY="0.0"
       refX="0.0"
       orient="auto"
       id="DistanceX-03">
      <path
         id="path2017"
         style="stroke:#000000; stroke-width:0.5"
         d="M 3,-3 L -3,3 M 0,-5 L  0,5" />
    </marker>
    <pattern
       y="0"
       x="0"
       width="8"
       patternUnits="userSpaceOnUse"
       id="Hatch-8"
       height="8">
      <path
         id="path2020"
         stroke-width="0.25"
         stroke="#000000"
         linecap="square"
         d="M8 4 l-4,4" />
      <path
         id="path2022"
         stroke-width="0.25"
         stroke="#000000"
         linecap="square"
         d="M6 2 l-4,4" />
      <path
         id="path2024"
         stroke-width="0.25"
         stroke="#000000"
         linecap="square"
         d="M4 0 l-4,4" />
    </pattern>
    <symbol
       id="*Model_Space-8" />
    <symbol
       id="*Paper_Space-40" />
    <symbol
       id="*Paper_Space0-0" />
    <marker
       style="overflow:visible"
       refY="0.0"
       refX="0.0"
       orient="auto"
       id="DistanceX-5">
      <path
         id="path2261"
         style="stroke:#000000; stroke-width:0.5"
         d="M 3,-3 L -3,3 M 0,-5 L  0,5" />
    </marker>
    <pattern
       y="0"
       x="0"
       width="8"
       patternUnits="userSpaceOnUse"
       id="Hatch-32"
       height="8">
      <path
         id="path2264"
         stroke-width="0.25"
         stroke="#000000"
         linecap="square"
         d="M8 4 l-4,4" />
      <path
         id="path2266"
         stroke-width="0.25"
         stroke="#000000"
         linecap="square"
         d="M6 2 l-4,4" />
      <path
         id="path2268"
         stroke-width="0.25"
         stroke="#000000"
         linecap="square"
         d="M4 0 l-4,4" />
    </pattern>
    <symbol
       id="*Model_Space-4" />
    <symbol
       id="*Paper_Space-9" />
    <symbol
       id="*Paper_Space0-9" />
    <marker
       style="overflow:visible"
       refY="0.0"
       refX="0.0"
       orient="auto"
       id="DistanceX-6">
      <path
         id="path2515"
         style="stroke:#000000; stroke-width:0.5"
         d="M 3,-3 L -3,3 M 0,-5 L  0,5" />
    </marker>
    <pattern
       y="0"
       x="0"
       width="8"
       patternUnits="userSpaceOnUse"
       id="Hatch-7"
       height="8">
      <path
         id="path2518"
         stroke-width="0.25"
         stroke="#000000"
         linecap="square"
         d="M8 4 l-4,4" />
      <path
         id="path2520"
         stroke-width="0.25"
         stroke="#000000"
         linecap="square"
         d="M6 2 l-4,4" />
      <path
         id="path2522"
         stroke-width="0.25"
         stroke="#000000"
         linecap="square"
         d="M4 0 l-4,4" />
    </pattern>
    <symbol
       id="*MODEL_SPACE-16" />
    <symbol
       id="*PAPER_SPACE-9" />
    <marker
       style="overflow:visible"
       refY="0.0"
       refX="0.0"
       orient="auto"
       id="DistanceX-198">
      <path
         id="path2679"
         style="stroke:#000000; stroke-width:0.5"
         d="M 3,-3 L -3,3 M 0,-5 L  0,5" />
    </marker>
    <pattern
       y="0"
       x="0"
       width="8"
       patternUnits="userSpaceOnUse"
       id="Hatch-14"
       height="8">
      <path
         id="path2682"
         stroke-width="0.25"
         stroke="#000000"
         linecap="square"
         d="M8 4 l-4,4" />
      <path
         id="path2684"
         stroke-width="0.25"
         stroke="#000000"
         linecap="square"
         d="M6 2 l-4,4" />
      <path
         id="path2686"
         stroke-width="0.25"
         stroke="#000000"
         linecap="square"
         d="M4 0 l-4,4" />
    </pattern>
    <symbol
       id="*MODEL_SPACE-15" />
    <symbol
       id="*PAPER_SPACE-6" />
    <marker
       style="overflow:visible"
       refY="0.0"
       refX="0.0"
       orient="auto"
       id="DistanceX-15">
      <path
         id="path2847"
         style="stroke:#000000; stroke-width:0.5"
         d="M 3,-3 L -3,3 M 0,-5 L  0,5" />
    </marker>
    <pattern
       y="0"
       x="0"
       width="8"
       patternUnits="userSpaceOnUse"
       id="Hatch-41"
       height="8">
      <path
         id="path2850"
         stroke-width="0.25"
         stroke="#000000"
         linecap="square"
         d="M8 4 l-4,4" />
      <path
         id="path2852"
         stroke-width="0.25"
         stroke="#000000"
         linecap="square"
         d="M6 2 l-4,4" />
      <path
         id="path2854"
         stroke-width="0.25"
         stroke="#000000"
         linecap="square"
         d="M4 0 l-4,4" />
    </pattern>
    <symbol
       id="*MODEL_SPACE-11" />
    <symbol
       id="*PAPER_SPACE-4" />
  </defs>
  <sodipodi:namedview
     id="base"
     pagecolor="#ffffff"
     bordercolor="#666666"
     borderopacity="1.0"
     inkscape:pageopacity="0.0"
     inkscape:pageshadow="2"
     inkscape:zoom="1.2491139"
     inkscape:cx="440.67975"
     inkscape:cy="753.01713"
     inkscape:document-units="mm"
     inkscape:current-layer="layer1"
     showgrid="false"
     inkscape:snap-bbox="true"
     inkscape:bbox-paths="true"
     inkscape:window-width="1858"
     inkscape:window-height="1057"
     inkscape:window-x="54"
     inkscape:window-y="-8"
     inkscape:window-maximized="1"
     inkscape:snap-global="false"
     inkscape:bbox-nodes="true"
     inkscape:snap-nodes="false"
     inkscape:snap-others="false" />
  <metadata
     id="metadata5">
    <rdf:RDF>
      <cc:Work
         rdf:about="">
        <dc:format>image/svg+xml</dc:format>
        <dc:type
           rdf:resource="http://purl.org/dc/dcmitype/StillImage" />
        <dc:title></dc:title>
      </cc:Work>
    </rdf:RDF>
  </metadata>
  <g
     inkscape:label="Layer 1"
     inkscape:groupmode="layer"
     id="layer1"
     transform="translate(0,3)">
    <path
       style="fill:#00ffff;stroke:#000000;stroke-width:0.37795275;stroke-linecap:round;stroke-miterlimit:4;stroke-dasharray:none;stroke-opacity:1"
       d="M 714.71875 24.777344 A 11.338583 11.338583 0 0 0 703.38086 36.117188 L 703.38086 87.451172 L 689.97852 87.451172 L 689.97852 78.167969 L 686.19922 74.386719 L 686.19922 53.125 L 567.66797 53.125 L 567.66797 41.166016 L 649.20117 41.166016 L 649.20117 26.046875 L 25.580078 26.046875 L 25.580078 649.66992 L 40.697266 649.66992 L 40.697266 502.27539 L 52.861328 502.27539 L 52.861328 553.70703 A 11.338583 11.338583 0 0 0 64.201172 565.04492 L 121.62109 565.04492 L 121.62109 578.44727 L 64.201172 578.44727 A 11.338583 11.338583 0 0 0 52.861328 589.78516 L 52.861328 725.56445 A 11.338583 11.338583 0 0 0 64.201172 736.9043 L 684.13672 736.9043 A 11.338583 11.338583 0 0 0 695.47461 725.56445 L 695.47461 610.35156 L 706.92383 610.35156 L 706.92383 631.56641 A 11.338583 11.338583 0 0 0 718.26172 642.90625 L 771.6875 642.90625 A 11.338583 11.338583 0 0 0 783.02734 631.56641 L 783.02734 613.55469 L 794.65625 613.55469 L 794.65625 631.56641 A 11.338583 11.338583 0 0 0 805.99609 642.90625 L 859.42188 642.90625 A 11.338583 11.338583 0 0 0 870.75977 631.56641 L 870.75977 351.88281 A 11.338583 11.338583 0 0 0 859.42188 340.54297 L 839.06055 340.54297 L 839.06055 327.14062 L 855.87891 327.14062 A 11.338583 11.338583 0 0 0 867.2168 315.80078 L 867.2168 36.117188 A 11.338583 11.338583 0 0 0 855.87891 24.777344 L 802.45312 24.777344 A 11.338583 11.338583 0 0 0 791.22852 34.613281 L 779.37109 34.613281 A 11.338583 11.338583 0 0 0 768.14453 24.777344 L 714.71875 24.777344 z M 63.375 29.826172 A 3.7795279 3.7795279 0 1 1 63.375 37.384766 A 3.7795279 3.7795279 0 1 1 63.375 29.826172 z M 337.39062 29.826172 A 3.7795279 3.7795279 0 1 1 337.39062 37.384766 A 3.7795279 3.7795279 0 1 1 337.39062 29.826172 z M 611.40625 29.826172 A 3.7795279 3.7795279 0 1 1 611.40625 37.384766 A 3.7795279 3.7795279 0 1 1 611.40625 29.826172 z M 40.697266 41.166016 L 260.91992 41.166016 L 260.91992 52.9375 L 71.947266 52.9375 A 18.897638 18.897638 0 0 0 53.048828 71.833984 L 53.048828 127.54492 L 40.697266 127.54492 L 40.697266 41.166016 z M 272.25781 41.166016 L 556.33008 41.166016 L 556.33008 53.125 L 535.01758 53.125 L 535.01758 74.386719 L 531.23828 78.167969 L 531.23828 105.22852 L 535.01758 109.00781 L 535.01758 129.22852 L 568.33789 129.22852 L 568.33789 142.63086 L 535.01758 142.63086 L 535.01758 163.89258 L 531.23828 167.67188 L 531.23828 174.71289 L 518.02344 174.71289 L 518.02344 71.833984 A 18.897638 18.897638 0 0 0 499.12695 52.9375 L 272.25781 52.9375 L 272.25781 41.166016 z M 779.48438 45.953125 L 791.11328 45.953125 L 791.11328 315.80078 A 11.338583 11.338583 0 0 0 802.45312 327.14062 L 827.7207 327.14062 L 827.7207 340.54297 L 805.99609 340.54297 A 11.338583 11.338583 0 0 0 794.65625 351.88281 L 794.65625 602.2168 L 783.02734 602.2168 L 783.02734 351.88281 A 11.338583 11.338583 0 0 0 771.6875 340.54297 L 718.26172 340.54297 A 11.338583 11.338583 0 0 0 706.92383 351.88281 L 706.92383 354.83984 L 689.97852 354.83984 L 689.97852 343.14062 L 686.19922 339.35938 L 686.19922 318.09766 L 659.73242 318.09766 L 659.73242 306.4668 L 686.19922 306.4668 L 686.19922 286.24609 L 689.97852 282.4668 L 689.97852 277.31641 L 703.38086 277.31641 L 703.38086 315.80078 A 11.338583 11.338583 0 0 0 714.71875 327.14062 L 768.14453 327.14062 A 11.338583 11.338583 0 0 0 779.48438 315.80078 L 779.48438 45.953125 z M 741.95312 54.636719 A 7.9370057 7.9370057 0 1 1 741.95312 70.509766 A 7.9370057 7.9370057 0 0 1 734.01953 62.804688 A 7.9370057 7.9370057 0 0 1 741.95312 54.636719 z M 829.6875 54.636719 A 7.9370059 7.9370059 0 1 1 829.6875 70.509766 A 7.9370059 7.9370059 0 0 1 821.75391 62.804688 A 7.9370059 7.9370059 0 0 1 829.6875 54.636719 z M 609.72266 55.710938 A 30.330709 30.330709 0 0 1 640.93945 86.029297 A 30.331055 30.331055 0 0 1 580.27734 86.029297 A 30.330709 30.330709 0 0 1 609.72266 55.710938 z M 33.138672 60.0625 A 3.7795279 3.7795279 0 1 1 33.138672 67.621094 A 3.7795279 3.7795279 0 1 1 33.138672 60.0625 z M 406.91602 63.375 A 6.0472407 6.0472407 0 0 1 412.78711 69.419922 L 412.78711 76.978516 A 6.0472407 6.0472407 0 0 1 400.69336 76.978516 L 400.69336 69.419922 A 6.0472407 6.0472407 0 0 1 406.91602 63.375 z M 497.62891 63.376953 A 6.0472415 6.0472415 0 0 1 503.49609 69.417969 L 503.49609 76.976562 A 6.0472415 6.0472415 0 0 1 491.40234 76.976562 L 491.40234 69.417969 A 6.0472415 6.0472415 0 0 1 497.62891 63.376953 z M 174.78906 69.826172 A 7.5590521 7.5590521 0 0 1 182.56445 77.384766 A 7.5590521 7.5590521 0 1 1 167.44727 77.384766 A 7.5590521 7.5590521 0 0 1 174.78906 69.826172 z M 335.13477 69.828125 A 7.5590521 7.5590521 0 0 1 342.91406 77.384766 A 7.5590521 7.5590521 0 1 1 327.79688 77.384766 A 7.5590521 7.5590521 0 0 1 335.13477 69.828125 z M 88.076172 71.337891 L 144.76953 71.337891 A 6.0472403 6.0472403 0 0 1 144.76953 83.431641 L 88.076172 83.431641 A 6.0472403 6.0472403 0 0 1 88.076172 71.337891 z M 205.24414 71.337891 L 261.93555 71.337891 A 6.0472419 6.0472419 0 0 1 261.93555 83.431641 L 205.24414 83.431641 A 6.0472419 6.0472419 0 0 1 205.24414 71.337891 z M 406.74023 92.095703 L 497.44922 92.095703 L 497.44922 148.78906 L 406.74023 148.78906 L 406.74023 92.095703 z M 689.97852 98.789062 L 703.38086 98.789062 L 703.38086 265.97852 L 689.97852 265.97852 L 689.97852 255.40625 L 686.19922 251.625 L 686.19922 230.36328 L 535.01953 230.36328 L 535.01953 251.625 L 531.23828 255.40625 L 531.23828 262.77539 L 517.83594 262.77539 L 517.83594 247.67969 A 18.897638 18.897638 0 0 0 498.9375 228.7832 L 136.16211 228.7832 L 136.16211 217.3418 L 499.12695 217.3418 A 18.897638 18.897638 0 0 0 518.02344 198.44531 L 518.02344 186.05078 L 531.23828 186.05078 L 531.23828 194.73438 L 535.01758 198.51367 L 535.01758 218.73438 L 686.19922 218.73438 L 686.19922 198.51367 L 689.97852 194.73438 L 689.97852 167.67188 L 686.19922 163.89258 L 686.19922 142.63086 L 579.67578 142.63086 L 579.67578 129.22852 L 686.19922 129.22852 L 686.19922 109.00781 L 689.97852 105.22852 L 689.97852 98.789062 z M 70.59375 108.88477 A 7.559051 7.559051 0 0 1 78.375 116.43945 A 7.5595704 7.5595704 0 1 1 63.255859 116.43945 A 7.559051 7.559051 0 0 1 70.59375 108.88477 z M 557.58594 114.14844 A 3.7795279 3.7795279 0 0 1 561.47461 117.92773 A 3.7795279 3.7795279 0 1 1 553.91602 117.92773 A 3.7795279 3.7795279 0 0 1 557.58594 114.14844 z M 663.41406 114.14844 A 3.7795279 3.7795279 0 0 1 667.30078 117.92773 A 3.7795279 3.7795279 0 1 1 659.74219 117.92773 A 3.7795279 3.7795279 0 0 1 663.41406 114.14844 z M 768.18164 115.48633 A 3.7795279 3.7795279 0 0 1 768.18359 115.48633 A 3.7795279 3.7795279 0 1 1 768.18359 123.04492 A 3.7795279 3.7795279 0 0 1 764.40234 119.375 A 3.7795279 3.7795279 0 0 1 768.18164 115.48633 z M 855.91602 115.48633 A 3.7795279 3.7795279 0 1 1 855.91602 123.04492 A 3.7795279 3.7795279 0 0 1 852.13672 119.375 A 3.7795279 3.7795279 0 0 1 855.91602 115.48633 z M 40.697266 138.88281 L 53.048828 138.88281 L 53.048828 204.08203 A 13.261618 13.261618 0 0 0 66.310547 217.3418 L 124.82227 217.3418 L 124.82227 228.7832 L 71.757812 228.7832 A 18.897638 18.897638 0 0 0 52.861328 247.67969 L 52.861328 379.92578 A 13.261618 13.261618 0 0 0 66.123047 393.1875 L 164.05078 393.1875 L 164.05078 406.58789 L 64.201172 406.58789 A 11.338583 11.338583 0 0 0 52.861328 417.92578 L 52.861328 490.9375 L 40.697266 490.9375 L 40.697266 138.88281 z M 334.47266 143.52148 A 30.330709 30.330709 0 0 1 365.68555 173.83789 A 30.330709 30.330709 0 0 1 305.02734 173.83789 A 30.330709 30.330709 0 0 1 334.47266 143.52148 z M 609.72266 145.2168 A 30.330709 30.330709 0 0 1 640.9375 175.5332 A 30.330709 30.330709 0 1 1 580.27734 175.5332 A 30.330709 30.330709 0 0 1 609.72266 145.2168 z M 736.2832 145.62891 A 30.330709 30.330709 0 0 1 736.2832 206.28906 A 30.330709 30.330709 0 0 1 705.9668 176.8457 A 30.330709 30.330709 0 0 1 736.2832 145.62891 z M 71.513672 147.93945 A 7.559051 7.559051 0 0 1 79.292969 155.49414 A 7.559051 7.559051 0 0 1 64.175781 155.49414 A 7.559051 7.559051 0 0 1 71.513672 147.93945 z M 553.80664 150.18945 A 3.7795279 3.7795279 0 0 1 557.69531 153.96875 A 3.7802748 3.7802748 0 0 1 550.13477 153.96875 A 3.7795279 3.7795279 0 0 1 553.80664 150.18945 z M 667.19141 150.18945 A 3.7795279 3.7795279 0 0 1 671.08008 153.96875 A 3.7795279 3.7795279 0 1 1 663.52148 153.96875 A 3.7795279 3.7795279 0 0 1 667.19141 150.18945 z M 824.01758 155.17188 A 20.787402 20.787402 0 0 1 824.01758 196.74609 A 20.787402 20.787402 0 0 1 803.23828 176.56641 A 20.787402 20.787402 0 0 1 824.01758 155.17188 z M 221.73828 171.57422 A 7.9370037 7.9370037 0 0 1 229.90625 179.50977 A 7.9370037 7.9370037 0 0 1 214.03516 179.50977 A 7.9370037 7.9370037 0 0 1 221.73828 171.57422 z M 448.50977 171.57422 A 7.9370041 7.9370041 0 0 1 456.67773 179.50977 A 7.9370041 7.9370041 0 0 1 440.80469 179.50977 A 7.9370041 7.9370041 0 0 1 448.50977 171.57422 z M 674.96875 173.64648 A 7.5590526 7.5590526 0 0 1 682.74805 181.20312 A 7.5590526 7.5590526 0 1 1 667.63086 181.20312 A 7.5590526 7.5590526 0 0 1 674.96875 173.64648 z M 88.076172 188.50195 L 144.76953 188.50195 A 6.0478549 6.0478549 0 0 1 144.76953 200.59766 L 88.076172 200.59766 A 6.0478549 6.0478549 0 0 1 88.076172 188.50195 z M 282.33594 201.95898 A 3.7795279 3.7795279 0 0 1 286.22266 205.73828 A 3.7802646 3.7802646 0 1 1 278.66406 205.73828 A 3.7795279 3.7795279 0 0 1 282.33594 201.95898 z M 388.16016 201.95898 A 3.7795279 3.7795279 0 0 1 392.04883 205.73828 A 3.7795279 3.7795279 0 1 1 384.49023 205.73828 A 3.7795279 3.7795279 0 0 1 388.16016 201.95898 z M 768.18359 228.87305 A 3.7795279 3.7795279 0 1 1 768.18359 236.43164 A 3.7795279 3.7795279 0 0 1 764.40234 232.75977 A 3.7795279 3.7795279 0 0 1 768.18359 228.87305 z M 855.91602 228.87305 A 3.7795279 3.7795279 0 1 1 855.91602 236.43164 A 3.7795279 3.7795279 0 0 1 852.13672 232.75977 A 3.7795279 3.7795279 0 0 1 855.91602 228.87305 z M 609.72266 232.94922 A 30.330709 30.330709 0 0 1 640.93945 263.26758 A 30.330709 30.330709 0 0 1 580.2793 263.26758 A 30.330709 30.330709 0 0 1 609.72266 232.94922 z M 406.72656 239.2207 A 6.0472426 6.0472426 0 0 1 406.72852 239.2207 A 6.0472426 6.0472426 0 0 1 412.59961 245.26562 L 412.59961 252.82422 A 6.0478499 6.0478499 0 0 1 400.50391 252.82422 L 400.50391 245.26562 A 6.0472426 6.0472426 0 0 1 406.72656 239.2207 z M 497.43945 239.22461 A 6.047243 6.047243 0 0 1 503.30859 245.26562 L 503.30859 252.82422 A 6.0478662 6.0478662 0 0 1 491.21289 252.82422 L 491.21289 245.26562 A 6.047243 6.047243 0 0 1 497.43945 239.22461 z M 174.59961 245.67383 A 7.5590529 7.5590529 0 0 1 182.37695 253.23242 A 7.5595828 7.5595828 0 0 1 167.25781 253.23242 A 7.5590529 7.5590529 0 0 1 174.59961 245.67383 z M 334.94727 245.67578 A 7.5590536 7.5590536 0 0 1 342.72656 253.23242 A 7.5595699 7.5595699 0 0 1 327.60742 253.23242 A 7.5590536 7.5590536 0 0 1 334.94727 245.67578 z M 87.888672 247.18555 L 144.58008 247.18555 A 6.0472422 6.0472422 0 0 1 144.58008 259.2793 L 87.888672 259.2793 A 6.0472422 6.0472422 0 0 1 87.888672 247.18555 z M 205.05273 247.18555 L 261.74609 247.18555 A 6.0472426 6.0472426 0 0 1 261.74609 259.2793 L 205.05273 259.2793 A 6.0472426 6.0472426 0 0 1 205.05273 247.18555 z M 406.55273 267.94336 L 497.25977 267.94336 L 497.25977 324.63672 L 406.55273 324.63672 L 406.55273 267.94336 z M 517.83594 274.11328 L 531.23828 274.11328 L 531.23828 282.4668 L 535.01953 286.24609 L 535.01953 306.4668 L 648.39453 306.4668 L 648.39453 318.09766 L 535.01953 318.09766 L 535.01953 339.35938 L 531.23828 343.14062 L 531.23828 370.20117 L 535.01953 373.98047 L 535.01953 394.20117 L 620.375 394.20117 L 620.375 406.58789 L 175.38867 406.58789 L 175.38867 393.1875 L 498.9375 393.1875 A 18.897638 18.897638 0 0 0 517.83594 374.29102 L 517.83594 274.11328 z M 741.95312 281.4082 A 7.9370053 7.9370053 0 1 1 741.95312 297.28125 A 7.9370053 7.9370053 0 0 1 734.01953 289.57617 A 7.9370053 7.9370053 0 0 1 741.95312 281.4082 z M 829.6875 281.4082 A 7.9370055 7.9370055 0 1 1 829.6875 297.28125 A 7.9370055 7.9370055 0 0 1 821.75391 289.57617 A 7.9370055 7.9370055 0 0 1 829.6875 281.4082 z M 70.40625 284.73242 A 7.5590525 7.5590525 0 0 1 78.185547 292.28711 A 7.5595704 7.5595704 0 0 1 63.066406 292.28711 A 7.5590525 7.5590525 0 0 1 70.40625 284.73242 z M 553.80664 291.38672 A 3.7795279 3.7795279 0 0 1 557.69531 295.16602 A 3.7795279 3.7795279 0 1 1 550.13672 295.16602 A 3.7795279 3.7795279 0 0 1 553.80664 291.38672 z M 667.19336 291.38672 A 3.7795279 3.7795279 0 0 1 671.08203 295.16602 A 3.7795279 3.7795279 0 1 1 663.52344 295.16602 A 3.7795279 3.7795279 0 0 1 667.19336 291.38672 z M 609.72266 320.68359 A 30.330709 30.330709 0 0 1 640.93945 351.00195 A 30.330709 30.330709 0 0 1 580.2793 351.00195 A 30.330709 30.330709 0 0 1 609.72266 320.68359 z M 71.324219 323.78711 A 7.5590521 7.5590521 0 0 1 79.105469 331.3418 A 7.5595704 7.5595704 0 1 1 63.986328 331.3418 A 7.5590521 7.5590521 0 0 1 71.324219 323.78711 z M 334.56055 328.9082 A 20.787402 20.787402 0 0 1 355.95508 349.68555 A 20.787402 20.787402 0 1 1 314.38086 349.68555 A 20.787402 20.787402 0 0 1 334.56055 328.9082 z M 33.138672 334.07812 A 3.7795279 3.7795279 0 1 1 33.138672 341.63672 A 3.7795279 3.7795279 0 1 1 33.138672 334.07812 z M 221.55078 347.42188 A 7.9370056 7.9370056 0 0 1 229.71875 355.35547 A 7.9374999 7.9374999 0 0 1 213.84375 355.35547 A 7.9370056 7.9370056 0 0 1 221.55078 347.42188 z M 448.32227 347.42188 A 7.937006 7.937006 0 0 1 456.49023 355.35547 A 7.937006 7.937006 0 0 1 440.61719 355.35547 A 7.937006 7.937006 0 0 1 448.32227 347.42188 z M 87.888672 364.34961 L 144.58008 364.34961 A 6.047853 6.047853 0 0 1 144.58008 376.44531 L 87.888672 376.44531 A 6.047853 6.047853 0 0 1 87.888672 364.34961 z M 689.97852 366.17969 L 706.92383 366.17969 L 706.92383 599.01367 L 695.47461 599.01367 L 695.47461 589.78516 A 11.338583 11.338583 0 0 0 684.13672 578.44727 L 649.32617 578.44727 L 649.32617 565.04492 L 684.13672 565.04492 A 11.338583 11.338583 0 0 0 695.47461 553.70703 L 695.47461 417.92578 A 11.338583 11.338583 0 0 0 684.13672 406.58789 L 631.71289 406.58789 L 631.71289 394.20117 L 686.19922 394.20117 L 686.19922 373.98047 L 689.97852 370.20117 L 689.97852 366.17969 z M 745.49609 370.40234 A 7.9370077 7.9370077 0 1 1 745.49609 386.27539 A 7.9370077 7.9370077 0 0 1 737.5625 378.57031 A 7.9370077 7.9370077 0 0 1 745.49609 370.40234 z M 833.23047 370.40234 A 7.9370079 7.9370079 0 1 1 833.23047 386.27539 A 7.9370079 7.9370079 0 0 1 825.29688 378.57031 A 7.9370079 7.9370079 0 0 1 833.23047 370.40234 z M 282.14453 377.80469 A 3.7795279 3.7795279 0 0 1 286.0332 381.58594 A 3.7795279 3.7795279 0 1 1 278.47461 381.58594 A 3.7795279 3.7795279 0 0 1 282.14453 377.80469 z M 387.97266 377.80469 A 3.7795279 3.7795279 0 0 1 391.85938 381.58594 A 3.7795279 3.7795279 0 1 1 384.30078 381.58594 A 3.7795279 3.7795279 0 0 1 387.97266 377.80469 z M 553.80664 379.12109 A 3.7795279 3.7795279 0 0 1 557.69531 382.90039 A 3.7795279 3.7795279 0 1 1 550.13672 382.90039 A 3.7795279 3.7795279 0 0 1 553.80664 379.12109 z M 667.19336 379.12109 A 3.7795279 3.7795279 0 0 1 671.08203 382.90039 A 3.7795279 3.7795279 0 1 1 663.52344 382.90039 A 3.7795279 3.7795279 0 0 1 667.19336 379.12109 z M 543.41602 409.16602 A 30.33071 30.33071 0 0 1 574.625 439.49219 A 30.331055 30.331055 0 0 1 513.96289 439.49219 A 30.33071 30.33071 0 0 1 543.41602 409.16602 z M 487.50781 414.13086 A 3.7795279 3.7795279 0 0 1 491.38086 417.92578 A 3.7795279 3.7795279 0 1 1 483.82227 417.92578 A 3.7795279 3.7795279 0 0 1 487.50781 414.13086 z M 600.87695 414.15039 A 3.7795465 3.7795465 0 0 1 604.76562 417.92773 A 3.7795465 3.7795465 0 1 1 597.20703 417.92773 A 3.7795465 3.7795465 0 0 1 600.87695 414.15039 z M 75.892578 421.96875 L 132.58594 421.96875 A 6.0478499 6.0478499 0 0 1 132.58594 434.06445 L 75.892578 434.06445 A 6.0478499 6.0478499 0 0 1 75.892578 421.96875 z M 771.72461 431.25195 A 3.7795279 3.7795279 0 0 1 771.72656 431.25195 A 3.7795279 3.7795279 0 1 1 771.72656 438.81055 A 3.7795279 3.7795279 0 0 1 767.94531 435.14062 A 3.7795279 3.7795279 0 0 1 771.72461 431.25195 z M 859.45898 431.25195 A 3.7795279 3.7795279 0 1 1 859.45898 438.81055 A 3.7795279 3.7795279 0 0 1 855.67969 435.14062 A 3.7795279 3.7795279 0 0 1 859.45898 431.25195 z M 430.69336 437.21094 A 7.9370063 7.9370063 0 0 1 438.8457 445.16211 A 7.9374999 7.9374999 0 0 1 422.9707 445.16211 A 7.9370063 7.9370063 0 0 1 430.69336 437.21094 z M 657.46484 437.21094 A 7.9370067 7.9370067 0 0 1 665.61719 445.16211 A 7.9374999 7.9374999 0 0 1 649.74219 445.16211 A 7.9370067 7.9370067 0 0 1 657.46484 437.21094 z M 608.6543 437.60742 A 7.5590535 7.5590535 0 0 1 616.43359 445.16211 A 7.5590535 7.5590535 0 1 1 601.31641 445.16211 A 7.5590535 7.5590535 0 0 1 608.6543 437.60742 z M 125.15039 442.18945 L 200.49414 442.18945 A 44.410159 44.410159 0 0 1 200.49414 531.00977 L 125.15039 531.00977 A 44.410159 44.410159 0 0 1 125.15039 442.18945 z M 739.82617 461.39453 A 30.330709 30.330709 0 0 1 739.82617 522.05469 A 30.330709 30.330709 0 0 1 709.50977 492.61133 A 30.330709 30.330709 0 0 1 739.82617 461.39453 z M 827.56055 470.9375 A 20.787402 20.787402 0 0 1 827.56055 512.51172 A 20.787402 20.787402 0 0 1 806.78125 492.33203 A 20.787402 20.787402 0 0 1 827.56055 470.9375 z M 336.5293 537.62695 A 7.5590532 7.5590532 0 0 1 344.30859 545.18164 A 7.5596019 7.5596019 0 0 1 329.18945 545.18164 A 7.5590532 7.5590532 0 0 1 336.5293 537.62695 z M 472.5918 537.62695 A 7.5590532 7.5590532 0 0 1 480.37109 545.18164 A 7.5590532 7.5590532 0 1 1 465.25391 545.18164 A 7.5590532 7.5590532 0 0 1 472.5918 537.62695 z M 608.6543 537.62695 A 7.5590532 7.5590532 0 0 1 616.43359 545.18164 A 7.5590532 7.5590532 0 1 1 601.31641 545.18164 A 7.5590532 7.5590532 0 0 1 608.6543 537.62695 z M 75.890625 539.13477 L 132.58398 539.13477 A 6.0472474 6.0472474 0 0 1 132.58398 551.22852 L 75.890625 551.22852 A 6.0472474 6.0472474 0 0 1 75.890625 539.13477 z M 193.05859 539.13477 L 249.75195 539.13477 A 6.0472478 6.0472478 0 0 1 249.75195 551.22852 L 193.05859 551.22852 A 6.0472478 6.0472478 0 0 1 193.05859 539.13477 z M 771.72656 544.63867 A 3.7795279 3.7795279 0 1 1 771.72656 552.19727 A 3.7795279 3.7795279 0 0 1 767.94531 548.52539 A 3.7795279 3.7795279 0 0 1 771.72656 544.63867 z M 859.45898 544.63867 A 3.7795279 3.7795279 0 1 1 859.45898 552.19727 A 3.7795279 3.7795279 0 0 1 855.67969 548.52539 A 3.7795279 3.7795279 0 0 1 859.45898 544.63867 z M 132.95898 565.04492 L 637.98633 565.04492 L 637.98633 578.44727 L 132.95898 578.44727 L 132.95898 565.04492 z M 487.50781 585.99023 A 3.7795279 3.7795279 0 0 1 491.38086 589.78516 A 3.780275 3.780275 0 0 1 483.82031 589.78516 A 3.7795279 3.7795279 0 0 1 487.50781 585.99023 z M 600.87695 586.00977 A 3.7795465 3.7795465 0 0 1 604.76562 589.78711 A 3.7795465 3.7795465 0 1 1 597.20703 589.78711 A 3.7795465 3.7795465 0 0 1 600.87695 586.00977 z M 543.6875 590.57422 A 20.787402 20.787402 0 0 1 565.08008 611.35156 A 20.787402 20.787402 0 1 1 523.50586 611.35156 A 20.787402 20.787402 0 0 1 543.6875 590.57422 z M 75.892578 593.82812 L 132.58594 593.82812 A 6.0478549 6.0478549 0 0 1 132.58594 605.92383 L 75.892578 605.92383 A 6.0478549 6.0478549 0 0 1 75.892578 593.82812 z M 745.49609 597.17383 A 7.9370073 7.9370073 0 1 1 745.49609 613.04688 A 7.9370073 7.9370073 0 0 1 737.5625 605.3418 A 7.9370073 7.9370073 0 0 1 745.49609 597.17383 z M 833.23047 597.17383 A 7.9370075 7.9370075 0 1 1 833.23047 613.04688 A 7.9370075 7.9370075 0 0 1 825.29688 605.3418 A 7.9370075 7.9370075 0 0 1 833.23047 597.17383 z M 33.138672 608.09375 A 3.780275 3.780275 0 1 1 33.138672 615.6543 A 3.780275 3.780275 0 0 1 33.138672 608.09375 z M 430.69336 609.07031 A 7.937007 7.937007 0 0 1 438.84375 617.02148 A 7.937007 7.937007 0 1 1 422.9707 617.02148 A 7.937007 7.937007 0 0 1 430.69336 609.07031 z M 657.46484 609.07031 A 7.9370062 7.9370062 0 0 1 665.61719 617.02148 A 7.9374999 7.9374999 0 0 1 649.74219 617.02148 A 7.9370062 7.9370062 0 0 1 657.46484 609.07031 z M 608.6543 609.46484 A 7.5590538 7.5590538 0 0 1 616.43359 617.02148 A 7.5590538 7.5590538 0 1 1 601.31641 617.02148 A 7.5590538 7.5590538 0 0 1 608.6543 609.46484 z M 125.15039 614.04688 L 200.49414 614.04688 A 44.409428 44.409428 0 0 1 200.49414 702.86523 L 125.15039 702.86523 A 44.409428 44.409428 0 0 1 125.15039 614.04688 z M 336.5293 709.48438 A 7.5590535 7.5590535 0 0 1 344.30859 717.03906 A 7.5595699 7.5595699 0 0 1 329.18945 717.03906 A 7.5590535 7.5590535 0 0 1 336.5293 709.48438 z M 472.5918 709.48438 A 7.5590535 7.5590535 0 0 1 480.37109 717.03906 A 7.5590535 7.5590535 0 1 1 465.25391 717.03906 A 7.5590535 7.5590535 0 0 1 472.5918 709.48438 z M 608.6543 709.48438 A 7.5590535 7.5590535 0 0 1 616.43359 717.03906 A 7.5590535 7.5590535 0 1 1 601.31641 717.03906 A 7.5590535 7.5590535 0 0 1 608.6543 709.48438 z M 75.890625 710.99219 L 132.58398 710.99219 A 6.0472477 6.0472477 0 0 1 132.58398 723.08594 L 75.890625 723.08594 A 6.0472477 6.0472477 0 0 1 75.890625 710.99219 z M 193.05859 710.99219 L 249.75195 710.99219 A 6.0472481 6.0472481 0 0 1 249.75195 723.08594 L 193.05859 723.08594 A 6.0472481 6.0472481 0 0 1 193.05859 710.99219 z "
       transform="matrix(0.26458333,0,0,0.26458333,0,-3)"
       id="path2284" />
  </g>
</svg>
