<?xml version="1.0" encoding="UTF-8" standalone="no"?>
<!-- Created with Inkscape (http://www.inkscape.org/) -->

<svg
   xmlns:dc="http://purl.org/dc/elements/1.1/"
   xmlns:cc="http://creativecommons.org/ns#"
   xmlns:rdf="http://www.w3.org/1999/02/22-rdf-syntax-ns#"
   xmlns:svg="http://www.w3.org/2000/svg"
   xmlns="http://www.w3.org/2000/svg"
   xmlns:sodipodi="http://sodipodi.sourceforge.net/DTD/sodipodi-0.dtd"
   xmlns:inkscape="http://www.inkscape.org/namespaces/inkscape"
   width="600mm"
   height="300mm"
   viewBox="0 0 600 300"
   version="1.1"
   id="svg8"
   inkscape:version="0.92.4 (5da689c313, 2019-01-14)"
   sodipodi:docname="2mm_ALL.svg">
  <defs
     id="defs2">
    <marker
       style="overflow:visible"
       refY="0"
       refX="0"
       orient="auto"
       id="DistanceX">
      <path
         id="path817"
         style="stroke:#000000;stroke-width:0.5"
         d="M 3,-3 -3,3 M 0,-5 V 5"
         inkscape:connector-curvature="0" />
    </marker>
    <pattern
       y="0"
       x="0"
       width="8"
       patternUnits="userSpaceOnUse"
       id="Hatch"
       height="8">
      <path
         id="path820"
         stroke-width="0.25"
         stroke="#000000"
         linecap="square"
         d="M8 4 l-4,4" />
      <path
         id="path822"
         stroke-width="0.25"
         stroke="#000000"
         linecap="square"
         d="M6 2 l-4,4" />
      <path
         id="path824"
         stroke-width="0.25"
         stroke="#000000"
         linecap="square"
         d="M4 0 l-4,4" />
    </pattern>
    <symbol
       id="*MODEL_SPACE" />
    <symbol
       id="*PAPER_SPACE" />
    <marker
       style="overflow:visible"
       refY="0.0"
       refX="0.0"
       orient="auto"
       id="DistanceX-0">
      <path
         id="path907"
         style="stroke:#000000; stroke-width:0.5"
         d="M 3,-3 L -3,3 M 0,-5 L  0,5" />
    </marker>
    <pattern
       y="0"
       x="0"
       width="8"
       patternUnits="userSpaceOnUse"
       id="Hatch-2"
       height="8">
      <path
         id="path910"
         stroke-width="0.25"
         stroke="#000000"
         linecap="square"
         d="M8 4 l-4,4" />
      <path
         id="path912"
         stroke-width="0.25"
         stroke="#000000"
         linecap="square"
         d="M6 2 l-4,4" />
      <path
         id="path914"
         stroke-width="0.25"
         stroke="#000000"
         linecap="square"
         d="M4 0 l-4,4" />
    </pattern>
    <symbol
       id="*MODEL_SPACE-3" />
    <symbol
       id="*PAPER_SPACE-5" />
    <marker
       style="overflow:visible"
       refY="0.0"
       refX="0.0"
       orient="auto"
       id="DistanceX-3">
      <path
         id="path1092"
         style="stroke:#000000; stroke-width:0.5"
         d="M 3,-3 L -3,3 M 0,-5 L  0,5" />
    </marker>
    <pattern
       y="0"
       x="0"
       width="8"
       patternUnits="userSpaceOnUse"
       id="Hatch-6"
       height="8">
      <path
         id="path1095"
         stroke-width="0.25"
         stroke="#000000"
         linecap="square"
         d="M8 4 l-4,4" />
      <path
         id="path1097"
         stroke-width="0.25"
         stroke="#000000"
         linecap="square"
         d="M6 2 l-4,4" />
      <path
         id="path1099"
         stroke-width="0.25"
         stroke="#000000"
         linecap="square"
         d="M4 0 l-4,4" />
    </pattern>
    <symbol
       id="*MODEL_SPACE-1" />
    <symbol
       id="*PAPER_SPACE-52" />
    <marker
       style="overflow:visible"
       refY="0.0"
       refX="0.0"
       orient="auto"
       id="DistanceX-7">
      <path
         id="path1172"
         style="stroke:#000000; stroke-width:0.5"
         d="M 3,-3 L -3,3 M 0,-5 L  0,5" />
    </marker>
    <pattern
       y="0"
       x="0"
       width="8"
       patternUnits="userSpaceOnUse"
       id="Hatch-26"
       height="8">
      <path
         id="path1175"
         stroke-width="0.25"
         stroke="#000000"
         linecap="square"
         d="M8 4 l-4,4" />
      <path
         id="path1177"
         stroke-width="0.25"
         stroke="#000000"
         linecap="square"
         d="M6 2 l-4,4" />
      <path
         id="path1179"
         stroke-width="0.25"
         stroke="#000000"
         linecap="square"
         d="M4 0 l-4,4" />
    </pattern>
    <symbol
       id="*MODEL_SPACE-5" />
    <symbol
       id="*PAPER_SPACE-53" />
    <marker
       style="overflow:visible"
       refY="0.0"
       refX="0.0"
       orient="auto"
       id="DistanceX-1">
      <path
         id="path1340"
         style="stroke:#000000; stroke-width:0.5"
         d="M 3,-3 L -3,3 M 0,-5 L  0,5" />
    </marker>
    <pattern
       y="0"
       x="0"
       width="8"
       patternUnits="userSpaceOnUse"
       id="Hatch-3"
       height="8">
      <path
         id="path1343"
         stroke-width="0.25"
         stroke="#000000"
         linecap="square"
         d="M8 4 l-4,4" />
      <path
         id="path1345"
         stroke-width="0.25"
         stroke="#000000"
         linecap="square"
         d="M6 2 l-4,4" />
      <path
         id="path1347"
         stroke-width="0.25"
         stroke="#000000"
         linecap="square"
         d="M4 0 l-4,4" />
    </pattern>
    <symbol
       id="*Model_Space" />
    <symbol
       id="*Paper_Space" />
    <symbol
       id="*Paper_Space0" />
    <marker
       style="overflow:visible"
       refY="0.0"
       refX="0.0"
       orient="auto"
       id="DistanceX-08">
      <path
         id="path1603"
         style="stroke:#000000; stroke-width:0.5"
         d="M 3,-3 L -3,3 M 0,-5 L  0,5" />
    </marker>
    <pattern
       y="0"
       x="0"
       width="8"
       patternUnits="userSpaceOnUse"
       id="Hatch-4"
       height="8">
      <path
         id="path1606"
         stroke-width="0.25"
         stroke="#000000"
         linecap="square"
         d="M8 4 l-4,4" />
      <path
         id="path1608"
         stroke-width="0.25"
         stroke="#000000"
         linecap="square"
         d="M6 2 l-4,4" />
      <path
         id="path1610"
         stroke-width="0.25"
         stroke="#000000"
         linecap="square"
         d="M4 0 l-4,4" />
    </pattern>
    <symbol
       id="*Model_Space-6" />
    <symbol
       id="*Paper_Space-4" />
    <symbol
       id="*Paper_Space0-1" />
    <marker
       style="overflow:visible"
       refY="0.0"
       refX="0.0"
       orient="auto"
       id="DistanceX-19">
      <path
         id="path1866"
         style="stroke:#000000; stroke-width:0.5"
         d="M 3,-3 L -3,3 M 0,-5 L  0,5" />
    </marker>
    <pattern
       y="0"
       x="0"
       width="8"
       patternUnits="userSpaceOnUse"
       id="Hatch-1"
       height="8">
      <path
         id="path1869"
         stroke-width="0.25"
         stroke="#000000"
         linecap="square"
         d="M8 4 l-4,4" />
      <path
         id="path1871"
         stroke-width="0.25"
         stroke="#000000"
         linecap="square"
         d="M6 2 l-4,4" />
      <path
         id="path1873"
         stroke-width="0.25"
         stroke="#000000"
         linecap="square"
         d="M4 0 l-4,4" />
    </pattern>
    <symbol
       id="*MODEL_SPACE-36" />
    <symbol
       id="*PAPER_SPACE-2" />
    <marker
       style="overflow:visible"
       refY="0.0"
       refX="0.0"
       orient="auto"
       id="DistanceX-03">
      <path
         id="path2017"
         style="stroke:#000000; stroke-width:0.5"
         d="M 3,-3 L -3,3 M 0,-5 L  0,5" />
    </marker>
    <pattern
       y="0"
       x="0"
       width="8"
       patternUnits="userSpaceOnUse"
       id="Hatch-8"
       height="8">
      <path
         id="path2020"
         stroke-width="0.25"
         stroke="#000000"
         linecap="square"
         d="M8 4 l-4,4" />
      <path
         id="path2022"
         stroke-width="0.25"
         stroke="#000000"
         linecap="square"
         d="M6 2 l-4,4" />
      <path
         id="path2024"
         stroke-width="0.25"
         stroke="#000000"
         linecap="square"
         d="M4 0 l-4,4" />
    </pattern>
    <symbol
       id="*Model_Space-8" />
    <symbol
       id="*Paper_Space-40" />
    <symbol
       id="*Paper_Space0-0" />
    <marker
       style="overflow:visible"
       refY="0.0"
       refX="0.0"
       orient="auto"
       id="DistanceX-5">
      <path
         id="path2261"
         style="stroke:#000000; stroke-width:0.5"
         d="M 3,-3 L -3,3 M 0,-5 L  0,5" />
    </marker>
    <pattern
       y="0"
       x="0"
       width="8"
       patternUnits="userSpaceOnUse"
       id="Hatch-32"
       height="8">
      <path
         id="path2264"
         stroke-width="0.25"
         stroke="#000000"
         linecap="square"
         d="M8 4 l-4,4" />
      <path
         id="path2266"
         stroke-width="0.25"
         stroke="#000000"
         linecap="square"
         d="M6 2 l-4,4" />
      <path
         id="path2268"
         stroke-width="0.25"
         stroke="#000000"
         linecap="square"
         d="M4 0 l-4,4" />
    </pattern>
    <symbol
       id="*Model_Space-4" />
    <symbol
       id="*Paper_Space-9" />
    <symbol
       id="*Paper_Space0-9" />
    <marker
       style="overflow:visible"
       refY="0.0"
       refX="0.0"
       orient="auto"
       id="DistanceX-6">
      <path
         id="path2515"
         style="stroke:#000000; stroke-width:0.5"
         d="M 3,-3 L -3,3 M 0,-5 L  0,5" />
    </marker>
    <pattern
       y="0"
       x="0"
       width="8"
       patternUnits="userSpaceOnUse"
       id="Hatch-7"
       height="8">
      <path
         id="path2518"
         stroke-width="0.25"
         stroke="#000000"
         linecap="square"
         d="M8 4 l-4,4" />
      <path
         id="path2520"
         stroke-width="0.25"
         stroke="#000000"
         linecap="square"
         d="M6 2 l-4,4" />
      <path
         id="path2522"
         stroke-width="0.25"
         stroke="#000000"
         linecap="square"
         d="M4 0 l-4,4" />
    </pattern>
    <symbol
       id="*MODEL_SPACE-16" />
    <symbol
       id="*PAPER_SPACE-9" />
    <marker
       style="overflow:visible"
       refY="0.0"
       refX="0.0"
       orient="auto"
       id="DistanceX-198">
      <path
         id="path2679"
         style="stroke:#000000; stroke-width:0.5"
         d="M 3,-3 L -3,3 M 0,-5 L  0,5" />
    </marker>
    <pattern
       y="0"
       x="0"
       width="8"
       patternUnits="userSpaceOnUse"
       id="Hatch-14"
       height="8">
      <path
         id="path2682"
         stroke-width="0.25"
         stroke="#000000"
         linecap="square"
         d="M8 4 l-4,4" />
      <path
         id="path2684"
         stroke-width="0.25"
         stroke="#000000"
         linecap="square"
         d="M6 2 l-4,4" />
      <path
         id="path2686"
         stroke-width="0.25"
         stroke="#000000"
         linecap="square"
         d="M4 0 l-4,4" />
    </pattern>
    <symbol
       id="*MODEL_SPACE-15" />
    <symbol
       id="*PAPER_SPACE-6" />
    <marker
       style="overflow:visible"
       refY="0.0"
       refX="0.0"
       orient="auto"
       id="DistanceX-15">
      <path
         id="path2847"
         style="stroke:#000000; stroke-width:0.5"
         d="M 3,-3 L -3,3 M 0,-5 L  0,5" />
    </marker>
    <pattern
       y="0"
       x="0"
       width="8"
       patternUnits="userSpaceOnUse"
       id="Hatch-41"
       height="8">
      <path
         id="path2850"
         stroke-width="0.25"
         stroke="#000000"
         linecap="square"
         d="M8 4 l-4,4" />
      <path
         id="path2852"
         stroke-width="0.25"
         stroke="#000000"
         linecap="square"
         d="M6 2 l-4,4" />
      <path
         id="path2854"
         stroke-width="0.25"
         stroke="#000000"
         linecap="square"
         d="M4 0 l-4,4" />
    </pattern>
    <symbol
       id="*MODEL_SPACE-11" />
    <symbol
       id="*PAPER_SPACE-4" />
  </defs>
  <sodipodi:namedview
     id="base"
     pagecolor="#ffffff"
     bordercolor="#666666"
     borderopacity="1.0"
     inkscape:pageopacity="0.0"
     inkscape:pageshadow="2"
     inkscape:zoom="0.50376469"
     inkscape:cx="978.70858"
     inkscape:cy="796.0002"
     inkscape:document-units="mm"
     inkscape:current-layer="layer1"
     showgrid="false"
     inkscape:snap-bbox="true"
     inkscape:bbox-paths="true"
     inkscape:window-width="1858"
     inkscape:window-height="1057"
     inkscape:window-x="54"
     inkscape:window-y="-8"
     inkscape:window-maximized="1"
     inkscape:snap-global="true"
     inkscape:bbox-nodes="true"
     inkscape:snap-nodes="false"
     inkscape:snap-others="false" />
  <metadata
     id="metadata5">
    <rdf:RDF>
      <cc:Work
         rdf:about="">
        <dc:format>image/svg+xml</dc:format>
        <dc:type
           rdf:resource="http://purl.org/dc/dcmitype/StillImage" />
        <dc:title></dc:title>
      </cc:Work>
    </rdf:RDF>
  </metadata>
  <g
     inkscape:label="Layer 1"
     inkscape:groupmode="layer"
     id="layer1"
     transform="translate(0,3)">
    <path
       style="fill:#00ffff;stroke:#000000;stroke-width:0.1;stroke-linecap:round;stroke-opacity:1;stroke-miterlimit:4;stroke-dasharray:none"
       d="m 16.986623,150.04762 a 3,3 0 0 0 -3.00033,2.99981 v 35.92494 a 3,3 0 0 0 3.00033,3.00033 H 181.01124 a 3,3 0 0 0 2.99982,-3.00033 v -35.92494 a 3,3 0 0 0 -2.99982,-2.99981 z m 111.999887,1.99574 a 1.0000001,1.0000001 0 0 1 1.02473,1.00407 1.0001911,1.0001911 0 1 1 -2.00038,0 1.0000001,1.0000001 0 0 1 0.97565,-1.00407 z m 29.99557,0.005 a 1.000005,1.000005 0 0 1 1.02889,0.99942 1.000005,1.000005 0 1 1 -1.99988,0 1.000005,1.000005 0 0 1 0.97099,-0.99942 z m -15.13136,1.20768 a 5.5,5.5 0 0 1 5.6601,5.49734 5.5,5.5 0 1 1 -10.99984,0 5.5,5.5 0 0 1 5.33974,-5.49734 z m -123.770747,0.86093 h 15.00012 a 1.6001616,1.6001616 0 0 1 0,3.20032 h -15.00012 a 1.6001616,1.6001616 0 0 1 0,-3.20032 z m 93.874367,4.03282 a 2.1,2.1 0 0 1 2.15646,2.10375 2.1,2.1 0 1 1 -4.19973,0 2.1,2.1 0 0 1 2.04327,-2.10375 z m 59.99996,0 a 2.0999998,2.0999998 0 0 1 2.15696,2.10375 2.1001302,2.1001302 0 0 1 -4.20026,0 2.0999998,2.0999998 0 0 1 2.0433,-2.10375 z m -12.91445,0.10439 a 1.9999999,1.9999999 0 0 1 2.05825,1.99936 1.9999999,1.9999999 0 1 1 -3.99973,0 1.9999999,1.9999999 0 0 1 1.94148,-1.99936 z m -127.927077,1.2125 h 19.9347 a 11.749997,11.749997 0 0 1 0,23.49986 h -19.9347 a 11.749997,11.749997 0 0 1 0,-23.49986 z m 55.92735,25.25117 a 1.9999998,1.9999998 0 0 1 2.05824,1.99884 2.0001309,2.0001309 0 0 1 -4.00026,0 1.9999998,1.9999998 0 0 1 1.94202,-1.99884 z m 35.999837,0 a 1.9999998,1.9999998 0 0 1 2.05827,1.99884 1.9999998,1.9999998 0 1 1 -3.99973,0 1.9999998,1.9999998 0 0 1 1.94146,-1.99884 z m 35.99989,0 a 1.9999998,1.9999998 0 0 1 2.05825,1.99884 1.9999998,1.9999998 0 1 1 -3.99973,0 1.9999998,1.9999998 0 0 1 1.94148,-1.99884 z m -140.960397,0.39894 h 15.00012 a 1.6000012,1.6000012 0 0 1 0,3.19981 h -15.00012 a 1.6000012,1.6000012 0 0 1 0,-3.19981 z m 31.00068,0 h 15.00013 a 1.6000013,1.6000013 0 0 1 0,3.19981 h -15.00013 a 1.6000013,1.6000013 0 0 1 0,-3.19981 z"
       id="path2284"
       inkscape:connector-curvature="0" />
    <path
       style="fill:#00ffff;stroke:#000000;stroke-width:0.1;stroke-linecap:round;stroke-opacity:1;stroke-miterlimit:4;stroke-dasharray:none"
       d="m 16.986623,104.57663 a 3,3 0 0 0 -3.00033,2.99982 v 35.92545 a 3,3 0 0 0 3.00033,2.99982 H 181.01124 a 3,3 0 0 0 2.99982,-2.99982 v -35.92545 a 3,3 0 0 0 -2.99982,-2.99982 z m 126.792257,0.68162 a 8.0250003,8.0250003 0 0 1 8.25739,8.02431 8.0250902,8.0250902 0 0 1 -16.05018,0 8.0250003,8.0250003 0 0 1 7.79279,-8.02431 z m -14.79237,1.31413 a 1.0000001,1.0000001 0 0 1 1.02473,1.00407 1.0000001,1.0000001 0 1 1 -1.99988,0 1.0000001,1.0000001 0 0 1 0.97515,-1.00407 z m 29.99557,0.005 a 1.000005,1.000005 0 0 1 1.02889,0.99942 1.000005,1.000005 0 1 1 -1.99988,0 1.000005,1.000005 0 0 1 0.97099,-0.99942 z m -138.902097,2.06861 h 15.00011 a 1.6001603,1.6001603 0 0 1 0,3.20032 h -15.00011 a 1.6001603,1.6001603 0 0 1 0,-3.20032 z m 93.874357,4.03282 a 2.0999999,2.0999999 0 0 1 2.15699,2.10375 2.1001302,2.1001302 0 1 1 -4.20026,0 2.0999999,2.0999999 0 0 1 2.04327,-2.10375 z m 59.99996,0 a 2.1,2.1 0 0 1 2.15698,2.10375 2.1001302,2.1001302 0 0 1 -4.20026,0 2.1,2.1 0 0 1 2.04328,-2.10375 z m -12.91445,0.10491 a 1.9999999,1.9999999 0 0 1 2.05827,1.99884 1.9999999,1.9999999 0 1 1 -3.99975,0 1.9999999,1.9999999 0 0 1 1.94148,-1.99884 z m -127.927077,1.21233 h 19.9347 a 11.750188,11.750188 0 0 1 0,23.50037 h -19.9347 a 11.750188,11.750188 0 0 1 0,-23.50037 z m 55.92734,25.25117 a 1.9999998,1.9999998 0 0 1 2.05828,1.99884 2.000145,2.000145 0 0 1 -4.00029,0 1.9999998,1.9999998 0 0 1 1.94201,-1.99884 z m 35.999867,0 a 1.9999998,1.9999998 0 0 1 2.05827,1.99884 1.9999998,1.9999998 0 1 1 -3.99975,0 1.9999998,1.9999998 0 0 1 1.94148,-1.99884 z m 35.99987,0 a 1.9999998,1.9999998 0 0 1 2.05827,1.99884 1.9999998,1.9999998 0 1 1 -3.99975,0 1.9999998,1.9999998 0 0 1 1.94148,-1.99884 z m -140.960387,0.39894 h 15.00012 a 1.6000012,1.6000012 0 0 1 0,3.19981 h -15.00012 a 1.6000012,1.6000012 0 0 1 0,-3.19981 z m 31.00069,0 h 15.00012 a 1.6000013,1.6000013 0 0 1 0,3.19981 h -15.00012 a 1.6000013,1.6000013 0 0 1 0,-3.19981 z"
       id="path2040"
       inkscape:connector-curvature="0" />
    <path
       style="fill:#00ffff;stroke:#000000;stroke-width:0.1;stroke-opacity:1;stroke-miterlimit:4;stroke-dasharray:none"
       d="m 141.55666,11.05593 v 5.62549 l -0.99994,1.00046 v 7.15977 l 0.99994,0.99994 v 5.35006 h 40.00013 v -5.35006 l 0.99994,-0.99994 v -7.15977 l -0.99994,-1.00046 v -5.62549 z m 19.76573,0.68419 a 8.025,8.025 0 0 1 8.25944,8.02174 8.0250902,8.0250902 0 1 1 -16.05018,0 8.025,8.025 0 0 1 7.79074,-8.02174 z m -13.79451,15.46159 a 1.0000001,1.0000001 0 0 1 1.02886,0.99994 1.0000001,1.0000001 0 1 1 -1.99988,0 1.0000001,1.0000001 0 0 1 0.97102,-0.99994 z m 28.00036,0 a 1.0000001,1.0000001 0 0 1 1.02835,0.99994 1.0000001,1.0000001 0 1 1 -1.99988,0 1.0000001,1.0000001 0 0 1 0.97153,-0.99994 z"
       id="path1218"
       inkscape:connector-curvature="0" />
    <path
       id="path1118"
       style="fill:#00ffff;stroke:#000000;stroke-width:0.1;stroke-opacity:1;stroke-miterlimit:4;stroke-dasharray:none"
       d="M 6.7680182,3.8916162 H 171.76803 V 7.891616 H 10.768015 V 168.89161 H 6.7680182 Z M 161.76802,6.8916154 a 1.0000001,1.0000001 0 1 0 0,-1.9999986 1.0000001,1.0000001 0 1 0 0,1.9999986 z M 8.7680301,87.391615 a 1.0000001,1.0000001 0 1 0 0,-2 1.0000001,1.0000001 0 1 0 0,2 z m 0,-72.5 a 1.0000001,1.0000001 0 1 0 0,-1.999998 1.0000001,1.0000001 0 1 0 0,1.999998 z M 89.268011,6.8916154 a 1.0000001,1.0000001 0 1 0 0,-1.9999986 1.0000001,1.0000001 0 1 0 0,1.9999986 z M 8.7680301,159.89161 a 1.0000006,1.0000006 0 1 0 0,-2 1.0000006,1.0000006 0 1 0 0,2 z M 16.768025,6.8916154 a 1.0000001,1.0000001 0 1 0 0,-1.9999986 1.0000001,1.0000001 0 1 0 0,1.9999986 z" />
    <path
       style="fill:#00ffff;stroke:#000000;stroke-width:0.1;stroke-linecap:round;stroke-miterlimit:4;stroke-dasharray:none;stroke-opacity:1"
       d="m 19.036302,11.006138 a 5,5 0 0 0 -5.00021,4.999699 v 34.99062 a 3.5088031,3.5088031 0 0 0 3.50883,3.50832 H 132.06091 a 5,5 0 0 0 4.9997,-4.9997 v -33.49924 a 5,5 0 0 0 -4.9997,-4.999699 z m 88.627148,2.761589 a 1.5999999,1.5999999 0 0 1 1.55339,1.59939 v 1.99987 a 1.5999999,1.5999999 0 0 1 -3.19982,0 v -1.99987 a 1.5999999,1.5999999 0 0 1 1.64643,-1.59939 z m 24.00112,10e-4 a 1.6000001,1.6000001 0 0 1 1.55236,1.59836 v 1.99987 a 1.6000001,1.6000001 0 0 1 -3.19982,0 v -1.99987 a 1.6000001,1.6000001 0 0 1 1.64746,-1.59836 z m -85.418548,1.70636 a 2,2 0 0 1 2.05774,1.99988 2,2 0 1 1 -3.99976,0 2,2 0 0 1 1.94202,-1.99988 z m 42.425299,5.1e-4 a 2,2 0 0 1 2.05827,1.99937 2,2 0 1 1 -3.999749,0 2,2 0 0 1 1.941479,-1.99937 z m -65.367589,0.39946 h 15.00013 a 1.5999998,1.5999998 0 0 1 0,3.19981 h -15.00013 a 1.5999998,1.5999998 0 0 1 0,-3.19981 z m 31.0002,0 h 15.0001 a 1.6000002,1.6000002 0 0 1 0,3.19981 h -15.0001 a 1.6000002,1.6000002 0 0 1 0,-3.19981 z m 53.312998,5.49217 h 24.00009 v 15.00012 h -24.00009 z m -88.938748,4.44211 a 1.9999997,1.9999997 0 0 1 2.05828,1.99885 1.9999997,1.9999997 0 1 1 -3.99976,0 1.9999997,1.9999997 0 0 1 1.94148,-1.99885 z m 69.81746,9.1643 a 8.025,8.025 0 0 1 8.258909,8.02121 8.025,8.025 0 0 1 -16.049649,0 8.025,8.025 0 0 1 7.79074,-8.02121 z m -69.57407,1.16892 a 1.9999997,1.9999997 0 0 1 2.05828,1.99885 1.9999997,1.9999997 0 0 1 -3.99976,0 1.9999997,1.9999997 0 0 1 1.94148,-1.99885 z m 39.74693,6.25338 a 2.0999997,2.0999997 0 0 1 2.16111,2.0991 2.0999997,2.0999997 0 0 1 -4.19973,0 2.0999997,2.0999997 0 0 1 2.03862,-2.0991 z m 59.999948,0 a 2.0999998,2.0999998 0 0 1 2.16111,2.0991 2.0999998,2.0999998 0 0 1 -4.19973,0 2.0999998,2.0999998 0 0 1 2.03862,-2.0991 z m -95.364718,4.47878 h 15.00013 a 1.6001603,1.6001603 0 0 1 0,3.20032 h -15.00013 a 1.6001603,1.6001603 0 0 1 0,-3.20032 z m 51.39741,3.5605 a 1.0000001,1.0000001 0 0 1 1.02886,0.99994 1.000195,1.000195 0 1 1 -2.00039,0 1.0000001,1.0000001 0 0 1 0.97153,-0.99994 z m 27.999808,0 a 1.0000001,1.0000001 0 0 1 1.02888,0.99994 1.0000001,1.0000001 0 1 1 -1.99987,0 1.0000001,1.0000001 0 0 1 0.97099,-0.99994 z"
       id="path1355"
       inkscape:connector-curvature="0" />
    <path
       style="fill:#00ffff;stroke:#000000;stroke-width:0.1;stroke-linecap:round;stroke-opacity:1;stroke-miterlimit:4;stroke-dasharray:none"
       d="m 18.985983,57.532141 a 5,5 0 0 0 -4.99969,4.99969 v 34.990073 a 3.5088031,3.5088031 0 0 0 3.50883,3.508826 H 132.01061 a 5,5 0 0 0 5.00021,-4.999696 V 62.531831 a 5,5 0 0 0 -5.00021,-4.99969 z m 88.627147,2.76159 a 1.6,1.6 0 0 1 5.2e-4,0 1.6,1.6 0 0 1 1.55339,1.59938 v 1.99988 a 1.6001603,1.6001603 0 0 1 -3.20032,0 v -1.99988 a 1.6,1.6 0 0 1 1.64641,-1.59938 z m 24.00112,10e-4 a 1.6000001,1.6000001 0 0 1 1.55288,1.59835 v 1.99988 a 1.600165,1.600165 0 0 1 -3.20033,0 v -1.99988 a 1.6000001,1.6000001 0 0 1 1.64745,-1.59835 z m -85.418037,1.70636 a 1.9999998,1.9999998 0 0 1 2.05776,1.99987 2.00014,2.00014 0 1 1 -4.00028,0 1.9999998,1.9999998 0 0 1 1.94252,-1.99987 z m 42.425319,5.1e-4 a 2,2 0 0 1 2.05827,1.99936 2.0001362,2.0001362 0 1 1 -4.00027,0 2,2 0 0 1 1.942,-1.99936 z m -65.367589,0.39946 h 14.9996 a 1.5999999,1.5999999 0 0 1 0,3.19981 h -14.9996 a 1.5999999,1.5999999 0 0 1 0,-3.19981 z m 30.99966,0 h 15.00012 a 1.6,1.6 0 0 1 0,3.19981 h -15.00012 a 1.6,1.6 0 0 1 0,-3.19981 z m 53.313537,5.49217 h 23.99957 v 15.00012 h -23.99957 z m -88.938757,4.44211 a 1.9999997,1.9999997 0 0 1 2.05827,1.99884 2.0001362,2.0001362 0 0 1 -4.00027,0 1.9999997,1.9999997 0 0 1 1.942,-1.99884 z m 0.24288,10.33322 a 1.9999996,1.9999996 0 0 1 2.05879,1.998833 2.0001362,2.0001362 0 1 1 -4.00027,0 1.9999996,1.9999996 0 0 1 1.94148,-1.998833 z m 69.647949,1.354943 a 5.5,5.5 0 0 1 5.660622,5.49733 5.5,5.5 0 1 1 -10.999831,0 5.5,5.5 0 0 1 5.339209,-5.49733 z m -29.900509,4.89839 a 2.0999998,2.0999998 0 0 1 2.16111,2.09909 2.1001302,2.1001302 0 0 1 -4.20026,0 2.0999998,2.0999998 0 0 1 2.03915,-2.09909 z m 59.999957,0 a 2.0999999,2.0999999 0 0 1 2.16111,2.09909 2.0999999,2.0999999 0 0 1 -4.19974,0 2.0999999,2.0999999 0 0 1 2.03863,-2.09909 z m -95.364717,4.47878 h 14.9996 a 1.6001615,1.6001615 0 0 1 0,3.20032 h -14.9996 a 1.6001615,1.6001615 0 0 1 0,-3.20032 z m 51.39686,3.55999 a 1.0000001,1.0000001 0 0 1 1.02888,1.00046 1.0000001,1.0000001 0 1 1 -1.99988,0 1.0000001,1.0000001 0 0 1 0.971,-1.00046 z m 28.000357,0 a 1.0000001,1.0000001 0 0 1 1.02836,1.00046 1.0000001,1.0000001 0 1 1 -1.99988,0 1.0000001,1.0000001 0 0 1 0.97152,-1.00046 z"
       id="path1618"
       inkscape:connector-curvature="0" />
    <path
       style="fill:#00ffff;stroke:#000000;stroke-width:0.1;stroke-opacity:1;stroke-miterlimit:4;stroke-dasharray:none"
       d="m 141.55665,34.737567 v 5.625497 l -0.99994,0.99994 v 7.160286 l 0.99994,0.999937 v 5.350063 h 40.00014 v -5.350063 l 0.99994,-0.999937 v -7.160286 l -0.99994,-0.99994 v -5.625497 z m 19.76572,0.684197 a 8.025,8.025 0 0 1 8.25892,8.021217 8.025,8.025 0 1 1 -16.04966,0 8.025,8.025 0 0 1 7.79074,-8.021217 z m -14.79445,1.315683 a 1.0000001,1.0000001 0 0 1 1.02888,0.999937 1.0001977,1.0001977 0 0 1 -2.00039,0 1.0000001,1.0000001 0 0 1 0.97151,-0.999937 z m 29.99972,0 a 1.0000001,1.0000001 0 0 1 1.02888,0.999937 1.0000001,1.0000001 0 1 1 -1.99988,0 1.0000001,1.0000001 0 0 1 0.971,-0.999937 z m 2.05776,6.206339 a 2,2 0 0 1 2.05827,1.999361 2,2 0 1 1 -3.99976,0 2,2 0 0 1 1.94149,-1.999361 z"
       id="path1880"
       inkscape:connector-curvature="0" />
    <path
       style="fill:#00ffff;stroke:#000000;stroke-width:0.1;stroke-opacity:1;stroke-miterlimit:4;stroke-dasharray:none"
       d="m 141.55719,57.950445 v 5.62549 l -1.00047,1.00046 v 7.15977 l 1.00047,0.99994 v 5.35006 h 39.9996 v -5.35006 l 0.99994,-0.99994 v -7.15977 l -0.99994,-1.00046 v -5.62549 z m 19.76519,0.68419 a 8.025,8.025 0 0 1 8.25945,8.02174 8.025,8.025 0 0 1 -16.04968,0 8.025,8.025 0 0 1 7.79023,-8.02174 z m -14.79444,15.46159 a 1.0000001,1.0000001 0 0 1 1.02886,0.99994 1.0000001,1.0000001 0 1 1 -1.99985,0 1.0000001,1.0000001 0 0 1 0.97099,-0.99994 z m 30.00023,0 a 1.0000001,1.0000001 0 0 1 1.02889,0.99994 1.0000001,1.0000001 0 1 1 -1.99988,0 1.0000001,1.0000001 0 0 1 0.97099,-0.99994 z"
       id="path2529"
       inkscape:connector-curvature="0" />
    <path
       style="fill:#00ffff;stroke:#000000;stroke-width:0.1;stroke-opacity:1;stroke-miterlimit:4;stroke-dasharray:none"
       d="m 186.10263,80.555678 a 3,3 0 0 0 2.99981,3.00035 h 14.13557 a 3,3 0 0 0 3.00034,-3.00035 V 6.5560556 a 3,3 0 0 0 -3.00034,-3.0003218 h -14.13557 a 3,3 0 0 0 -2.99981,3.0003218 z m 0.68419,-36.76521 a 8.025,8.025 0 0 1 8.02122,-8.25944 8.025,8.025 0 0 1 0,16.04968 8.025,8.025 0 0 1 -8.02122,-7.79024 z m 7.42229,29.82662 a 2.0999999,2.0999999 0 0 1 2.0991,-2.16112 2.0999999,2.0999999 0 1 1 0,4.19976 2.0999999,2.0999999 0 0 1 -2.0991,-2.03864 z m 0,-59.99996 a 2.1,2.1 0 0 1 2.0991,-2.16112 2.1,2.1 0 1 1 0,4.19976 2.1,2.1 0 0 1 -2.0991,-2.03864 z m 8.03878,44.96728 a 1.0000001,1.0000001 0 0 1 1.00046,-1.02835 1.0000001,1.0000001 0 1 1 0,1.99988 1.0000001,1.0000001 0 0 1 -1.00046,-0.97153 z m 0,-29.99972 a 1.0000001,1.0000001 0 0 1 1.00046,-1.02886 1.0000001,1.0000001 0 1 1 0,1.99988 1.0000001,1.0000001 0 0 1 -1.00046,-0.97102 z"
       id="path2693"
       inkscape:connector-curvature="0" />
    <path
       style="fill:#00ffff;stroke:#000000;stroke-width:0.1;stroke-opacity:1;stroke-miterlimit:4;stroke-dasharray:none"
       d="m 209.31549,80.555708 a 3,3 0 0 0 3.00034,3.00032 h 14.13557 a 3,3 0 0 0 2.99982,-3.00032 V 6.5560856 A 3,3 0 0 0 226.4514,3.5557338 h -14.13557 a 3,3 0 0 0 -3.00034,3.0003518 z m 3.20808,-36.8391 a 5.5,5.5 0 0 1 5.49785,-5.66063 5.5,5.5 0 0 1 0,10.99984 5.5,5.5 0 0 1 -5.49785,-5.33921 z m 4.89892,29.90051 a 2.0999999,2.0999999 0 0 1 2.0991,-2.16112 2.0999999,2.0999999 0 1 1 0,4.19973 2.0999999,2.0999999 0 0 1 -2.0991,-2.03861 z m 0,-59.99996 a 2.1,2.1 0 0 1 2.0991,-2.16112 2.1,2.1 0 1 1 0,4.19976 2.1,2.1 0 0 1 -2.0991,-2.03864 z m 8.03879,44.96728 a 1.0000001,1.0000001 0 0 1 0.99993,-1.02838 1.0000001,1.0000001 0 1 1 0,1.99988 1.0000001,1.0000001 0 0 1 -0.99993,-0.9715 z m 0,-29.99972 a 1.0000001,1.0000001 0 0 1 0.99993,-1.02889 1.0000001,1.0000001 0 1 1 0,1.99988 1.0000001,1.0000001 0 0 1 -0.99993,-0.97099 z"
       id="path2861"
       inkscape:connector-curvature="0" />
    <path
       inkscape:connector-curvature="0"
       id="path3023"
       d="m 141.55719,81.16332 v 5.62549 l -1.00047,1.00046 v 7.15977 l 1.00047,0.99994 v 5.35006 h 39.9996 v -5.35006 l 0.99994,-0.99994 v -7.15977 l -0.99994,-1.00046 v -5.62549 z m 19.76519,0.68419 a 8.025,8.025 0 0 1 8.25945,8.02174 8.025,8.025 0 0 1 -16.04968,0 8.025,8.025 0 0 1 7.79023,-8.02174 z M 146.52794,97.3091 a 1.0000001,1.0000001 0 0 1 1.02886,0.99994 1.0000001,1.0000001 0 1 1 -1.99985,0 1.0000001,1.0000001 0 0 1 0.97099,-0.99994 z m 30.00023,0 a 1.0000001,1.0000001 0 0 1 1.02889,0.99994 1.0000001,1.0000001 0 1 1 -1.99988,0 1.0000001,1.0000001 0 0 1 0.97099,-0.99994 z"
       style="fill:#00ffff;stroke:#000000;stroke-width:0.1;stroke-opacity:1;stroke-miterlimit:4;stroke-dasharray:none" />
    <path
       inkscape:connector-curvature="0"
       id="path3025"
       d="m 187.04015,164.10187 a 3,3 0 0 0 2.99981,3.00035 h 14.13557 a 3,3 0 0 0 3.00034,-3.00035 V 90.102265 a 3,3 0 0 0 -3.00034,-3.00032 h -14.13557 a 3,3 0 0 0 -2.99981,3.00032 z m 0.68419,-36.76521 a 8.025,8.025 0 0 1 8.02122,-8.25944 8.025,8.025 0 0 1 0,16.04968 8.025,8.025 0 0 1 -8.02122,-7.79024 z m 7.42229,29.82662 a 2.0999999,2.0999999 0 0 1 2.0991,-2.16112 2.0999999,2.0999999 0 1 1 0,4.19976 2.0999999,2.0999999 0 0 1 -2.0991,-2.03864 z m 0,-59.999945 a 2.1,2.1 0 0 1 2.0991,-2.16112 2.1,2.1 0 1 1 0,4.19976 2.1,2.1 0 0 1 -2.0991,-2.03864 z m 8.03878,44.967265 a 1.0000001,1.0000001 0 0 1 1.00046,-1.02835 1.0000001,1.0000001 0 1 1 0,1.99988 1.0000001,1.0000001 0 0 1 -1.00046,-0.97153 z m 0,-29.99972 a 1.0000001,1.0000001 0 0 1 1.00046,-1.02886 1.0000001,1.0000001 0 1 1 0,1.99988 1.0000001,1.0000001 0 0 1 -1.00046,-0.97102 z"
       style="fill:#00ffff;stroke:#000000;stroke-width:0.1;stroke-opacity:1;stroke-miterlimit:4;stroke-dasharray:none" />
    <path
       inkscape:connector-curvature="0"
       id="path3027"
       d="m 210.25301,164.10192 a 3,3 0 0 0 3.00034,3.00032 h 14.13557 a 3,3 0 0 0 2.99982,-3.00032 V 90.102295 a 3,3 0 0 0 -2.99982,-3.00035 h -14.13557 a 3,3 0 0 0 -3.00034,3.00035 z m 3.20808,-36.8391 a 5.5,5.5 0 0 1 5.49785,-5.66063 5.5,5.5 0 0 1 0,10.99984 5.5,5.5 0 0 1 -5.49785,-5.33921 z m 4.89892,29.90051 a 2.0999999,2.0999999 0 0 1 2.0991,-2.16112 2.0999999,2.0999999 0 1 1 0,4.19973 2.0999999,2.0999999 0 0 1 -2.0991,-2.03861 z m 0,-59.999965 a 2.1,2.1 0 0 1 2.0991,-2.16112 2.1,2.1 0 1 1 0,4.19976 2.1,2.1 0 0 1 -2.0991,-2.03864 z m 8.03879,44.967285 a 1.0000001,1.0000001 0 0 1 0.99993,-1.02838 1.0000001,1.0000001 0 1 1 0,1.99988 1.0000001,1.0000001 0 0 1 -0.99993,-0.9715 z m 0,-29.99972 a 1.0000001,1.0000001 0 0 1 0.99993,-1.02889 1.0000001,1.0000001 0 1 1 0,1.99988 1.0000001,1.0000001 0 0 1 -0.99993,-0.97099 z"
       style="fill:#00ffff;stroke:#000000;stroke-width:0.1;stroke-opacity:1;stroke-miterlimit:4;stroke-dasharray:none" />
  </g>
</svg>
