  0
SECTION
  2
HEADER
  9
$ACADVER
  1
AC1014
  9
$HANDSEED
  5
FFFF
  9
$MEASUREMENT
 70
     1
  0
ENDSEC
  0
SECTION
  2
TABLES
  0
TABLE
  2
VPORT
  5
8
330
0
100
AcDbSymbolTable
 70
     4
  0
VPORT
  5
2E
330
8
100
AcDbSymbolTableRecord
100
AcDbViewportTableRecord
  2
*ACTIVE
 70
     0
 10
0.0
 20
0.0
 11
1.0
 21
1.0
 12
210.0
 22
148.5
 13
0.0
 23
0.0
 14
10.0
 24
10.0
 15
10.0
 25
10.0
 16
0.0
 26
0.0
 36
1.0
 17
0.0
 27
0.0
 37
0.0
 40
341.0
 41
1.24
 42
50.0
 43
0.0
 44
0.0
 50
0.0
 51
0.0
 71
     0
 72
   100
 73
     1
 74
     3
 75
     0
 76
     0
 77
     0
 78
     0
  0
ENDTAB
  0
TABLE
  2
LTYPE
  5
5
330
0
100
AcDbSymbolTable
 70
     1
  0
LTYPE
  5
14
330
5
100
AcDbSymbolTableRecord
100
AcDbLinetypeTableRecord
  2
BYBLOCK
 70
     0
  3

 72
    65
 73
     0
 40
0.0
  0
LTYPE
  5
15
330
5
100
AcDbSymbolTableRecord
100
AcDbLinetypeTableRecord
  2
BYLAYER
 70
     0
  3

 72
    65
 73
     0
 40
0.0
  0
LTYPE
  5
16
330
5
100
AcDbSymbolTableRecord
100
AcDbLinetypeTableRecord
  2
CONTINUOUS
 70
     0
  3
Solid line
 72
    65
 73
     0
 40
0.0
  0
ENDTAB
  0
TABLE
  2
LAYER
  5
2
100
AcDbSymbolTable
 70
2
  0
LAYER
  5
50
100
AcDbSymbolTableRecord
100
AcDbLayerTableRecord
  2
0
 70
0
  6
CONTINUOUS
  0
LAYER
  5
51
100
AcDbSymbolTableRecord
100
AcDbLayerTableRecord
  2
Layer_1
 70
0
  6
CONTINUOUS
  0
ENDTAB
  0
TABLE
  2
STYLE
  5
3
330
0
100
AcDbSymbolTable
 70
     1
  0
STYLE
  5
11
330
3
100
AcDbSymbolTableRecord
100
AcDbTextStyleTableRecord
  2
STANDARD
 70
     0
 40
0.0
 41
1.0
 50
0.0
 71
     0
 42
2.5
  3
txt
  4

  0
ENDTAB
  0
TABLE
  2
VIEW
  5
6
330
0
100
AcDbSymbolTable
 70
     0
  0
ENDTAB
  0
TABLE
  2
UCS
  5
7
330
0
100
AcDbSymbolTable
 70
     0
  0
ENDTAB
  0
TABLE
  2
APPID
  5
9
330
0
100
AcDbSymbolTable
 70
     2
  0
APPID
  5
12
330
9
100
AcDbSymbolTableRecord
100
AcDbRegAppTableRecord
  2
ACAD
 70
     0
  0
ENDTAB
  0
TABLE
  2
DIMSTYLE
  5
A
330
0
100
AcDbSymbolTable
 70
     1
  0
DIMSTYLE
105
27
330
A
100
AcDbSymbolTableRecord
100
AcDbDimStyleTableRecord
  2
ISO-25
 70
     0
  3

  4

  5

  6

  7

 40
1.0
 41
2.5
 42
0.625
 43
3.75
 44
1.25
 45
0.0
 46
0.0
 47
0.0
 48
0.0
140
2.5
141
2.5
142
0.0
143
0.03937007874016
144
1.0
145
0.0
146
1.0
147
0.625
 71
     0
 72
     0
 73
     0
 74
     0
 75
     0
 76
     0
 77
     1
 78
     8
170
     0
171
     3
172
     1
173
     0
174
     0
175
     0
176
     0
177
     0
178
     0
270
     2
271
     2
272
     2
273
     2
274
     3
340
11
275
     0
280
     0
281
     0
282
     0
283
     0
284
     8
285
     0
286
     0
287
     3
288
     0
  0
ENDTAB
  0
TABLE
  2
BLOCK_RECORD
  5
1
330
0
100
AcDbSymbolTable
 70
     1
  0
BLOCK_RECORD
  5
1F
330
1
100
AcDbSymbolTableRecord
100
AcDbBlockTableRecord
  2
*MODEL_SPACE
  0
BLOCK_RECORD
  5
1B
330
1
100
AcDbSymbolTableRecord
100
AcDbBlockTableRecord
  2
*PAPER_SPACE
  0
ENDTAB
  0
ENDSEC
  0
SECTION
  2
BLOCKS
  0
BLOCK
  5
20
330
1F
100
AcDbEntity
  8
0
100
AcDbBlockBegin
  2
*MODEL_SPACE
 70
     0
 10
0.0
 20
0.0
 30
0.0
  3
*MODEL_SPACE
  1

  0
ENDBLK
  5
21
330
1F
100
AcDbEntity
  8
0
100
AcDbBlockEnd
  0
BLOCK
  5
1C
330
1B
100
AcDbEntity
 67
     1
  8
0
100
AcDbBlockBegin
  2
*PAPER_SPACE
  1

  0
ENDBLK
  5
1D
330
1B
100
AcDbEntity
 67
     1
  8
0
100
AcDbBlockEnd
  0
ENDSEC
  0
SECTION
  2
ENTITIES
  0
LINE
  5
100
100
AcDbEntity
  8
Layer_1
 62
7
100
AcDbLine
 10
6.702433
 20
290.387150
 30
0.0
 11
6.702433
 21
125.386887
 31
0.0
  0
LINE
  5
101
100
AcDbEntity
  8
Layer_1
 62
7
100
AcDbLine
 10
6.702433
 20
125.386887
 30
0.0
 11
171.702178
 21
125.386887
 31
0.0
  0
LINE
  5
102
100
AcDbEntity
  8
Layer_1
 62
7
100
AcDbLine
 10
171.702178
 20
125.386887
 30
0.0
 11
171.702178
 21
145.067339
 31
0.0
  0
LINE
  5
103
100
AcDbEntity
  8
Layer_1
 62
7
100
AcDbLine
 10
171.702178
 20
145.067339
 30
0.0
 11
175.062698
 21
145.067339
 31
0.0
  0
LINE
  5
104
100
AcDbEntity
  8
Layer_1
 62
7
100
AcDbLine
 10
175.062698
 20
145.067339
 30
0.0
 11
175.062698
 21
60.484906
 31
0.0
  0
SPLINE
  5
105
100
AcDbEntity
  8
Layer_1
 62
7
100
AcDbSpline
 70
8
 71
3
 72
8
 73
4
 74
0
 40
0
 40
0
 40
0
 40
0
 40
1
 40
1
 40
1
 40
1
 10
175.062698
 20
60.484906
 30
0.0
 10
175.062799
 20
58.828195
 30
0.0
 10
176.405804
 20
57.485191
 30
0.0
 10
178.062515
 20
57.485089
 30
0.0
  0
LINE
  5
106
100
AcDbEntity
  8
Layer_1
 62
7
100
AcDbLine
 10
178.062515
 20
57.485089
 30
0.0
 11
300.062314
 21
57.485089
 31
0.0
  0
SPLINE
  5
107
100
AcDbEntity
  8
Layer_1
 62
7
100
AcDbSpline
 70
8
 71
3
 72
8
 73
4
 74
0
 40
0
 40
0
 40
0
 40
0
 40
1
 40
1
 40
1
 40
1
 10
300.062314
 20
57.485089
 30
0.0
 10
300.857988
 20
57.485004
 30
0.0
 10
301.621104
 20
57.801012
 30
0.0
 10
302.183778
 20
58.363590
 30
0.0
  0
SPLINE
  5
108
100
AcDbEntity
  8
Layer_1
 62
7
100
AcDbSpline
 70
8
 71
3
 72
8
 73
4
 74
0
 40
0
 40
0
 40
0
 40
0
 40
1
 40
1
 40
1
 40
1
 10
302.183778
 20
58.363590
 30
0.0
 10
302.746451
 20
58.926169
 30
0.0
 10
303.062588
 20
59.689232
 30
0.0
 10
303.062636
 20
60.484906
 30
0.0
  0
LINE
  5
109
100
AcDbEntity
  8
Layer_1
 62
7
100
AcDbLine
 10
303.062636
 20
60.484906
 30
0.0
 11
303.062636
 21
169.484970
 31
0.0
  0
SPLINE
  5
10a
100
AcDbEntity
  8
Layer_1
 62
7
100
AcDbSpline
 70
8
 71
3
 72
8
 73
4
 74
0
 40
0
 40
0
 40
0
 40
0
 40
1
 40
1
 40
1
 40
1
 10
303.062636
 20
169.484970
 30
0.0
 10
303.062725
 20
170.280733
 30
0.0
 10
302.746650
 20
171.043930
 30
0.0
 10
302.183961
 20
171.606621
 30
0.0
  0
SPLINE
  5
10b
100
AcDbEntity
  8
Layer_1
 62
7
100
AcDbSpline
 70
8
 71
3
 72
8
 73
4
 74
0
 40
0
 40
0
 40
0
 40
0
 40
1
 40
1
 40
1
 40
1
 10
302.183961
 20
171.606621
 30
0.0
 10
301.621273
 20
172.169312
 30
0.0
 10
300.858077
 20
172.485390
 30
0.0
 10
300.062314
 20
172.485305
 30
0.0
  0
LINE
  5
10c
100
AcDbEntity
  8
Layer_1
 62
7
100
AcDbLine
 10
300.062314
 20
172.485305
 30
0.0
 11
260.060609
 21
172.485305
 31
0.0
  0
LINE
  5
10d
100
AcDbEntity
  8
Layer_1
 62
7
100
AcDbLine
 10
260.060609
 20
172.485305
 30
0.0
 11
260.060609
 21
175.144574
 31
0.0
  0
LINE
  5
10e
100
AcDbEntity
  8
Layer_1
 62
7
100
AcDbLine
 10
260.060609
 20
175.144574
 30
0.0
 11
300.062314
 21
175.144574
 31
0.0
  0
SPLINE
  5
10f
100
AcDbEntity
  8
Layer_1
 62
7
100
AcDbSpline
 70
8
 71
3
 72
8
 73
4
 74
0
 40
0
 40
0
 40
0
 40
0
 40
1
 40
1
 40
1
 40
1
 10
300.062314
 20
175.144574
 30
0.0
 10
300.857988
 20
175.144488
 30
0.0
 10
301.621104
 20
175.460496
 30
0.0
 10
302.183778
 20
176.023075
 30
0.0
  0
SPLINE
  5
110
100
AcDbEntity
  8
Layer_1
 62
7
100
AcDbSpline
 70
8
 71
3
 72
8
 73
4
 74
0
 40
0
 40
0
 40
0
 40
0
 40
1
 40
1
 40
1
 40
1
 10
302.183778
 20
176.023075
 30
0.0
 10
302.746451
 20
176.585654
 30
0.0
 10
303.062588
 20
177.348717
 30
0.0
 10
303.062636
 20
178.144391
 30
0.0
  0
LINE
  5
111
100
AcDbEntity
  8
Layer_1
 62
7
100
AcDbLine
 10
303.062636
 20
178.144391
 30
0.0
 11
303.062636
 21
287.144454
 31
0.0
  0
SPLINE
  5
112
100
AcDbEntity
  8
Layer_1
 62
7
100
AcDbSpline
 70
8
 71
3
 72
8
 73
4
 74
0
 40
0
 40
0
 40
0
 40
0
 40
1
 40
1
 40
1
 40
1
 10
303.062636
 20
287.144454
 30
0.0
 10
303.062588
 20
287.940128
 30
0.0
 10
302.746451
 20
288.703191
 30
0.0
 10
302.183778
 20
289.265770
 30
0.0
  0
SPLINE
  5
113
100
AcDbEntity
  8
Layer_1
 62
7
100
AcDbSpline
 70
8
 71
3
 72
8
 73
4
 74
0
 40
0
 40
0
 40
0
 40
0
 40
1
 40
1
 40
1
 40
1
 10
302.183778
 20
289.265770
 30
0.0
 10
301.621104
 20
289.828349
 30
0.0
 10
300.857988
 20
290.144356
 30
0.0
 10
300.062314
 20
290.144271
 30
0.0
  0
LINE
  5
114
100
AcDbEntity
  8
Layer_1
 62
7
100
AcDbLine
 10
300.062314
 20
290.144271
 30
0.0
 11
178.062515
 21
290.144271
 31
0.0
  0
SPLINE
  5
115
100
AcDbEntity
  8
Layer_1
 62
7
100
AcDbSpline
 70
8
 71
3
 72
8
 73
4
 74
0
 40
0
 40
0
 40
0
 40
0
 40
1
 40
1
 40
1
 40
1
 10
178.062515
 20
290.144271
 30
0.0
 10
176.405804
 20
290.144170
 30
0.0
 10
175.062799
 20
288.801165
 30
0.0
 10
175.062698
 20
287.144454
 30
0.0
  0
LINE
  5
116
100
AcDbEntity
  8
Layer_1
 62
7
100
AcDbLine
 10
175.062698
 20
287.144454
 30
0.0
 11
175.062698
 21
265.665662
 31
0.0
  0
LINE
  5
117
100
AcDbEntity
  8
Layer_1
 62
7
100
AcDbLine
 10
175.062698
 20
265.665662
 30
0.0
 11
171.702178
 21
265.665662
 31
0.0
  0
LINE
  5
118
100
AcDbEntity
  8
Layer_1
 62
7
100
AcDbLine
 10
171.702178
 20
265.665662
 30
0.0
 11
171.702178
 21
290.387150
 31
0.0
  0
LINE
  5
119
100
AcDbEntity
  8
Layer_1
 62
7
100
AcDbLine
 10
171.702178
 20
290.387150
 30
0.0
 11
6.702433
 21
290.387150
 31
0.0
  0
LINE
  5
11a
100
AcDbEntity
  8
Layer_1
 62
7
100
AcDbLine
 10
6.702433
 20
290.387150
 30
0.0
 11
6.702433
 21
290.387150
 31
0.0
  0
SPLINE
  5
11b
100
AcDbEntity
  8
Layer_1
 62
7
100
AcDbSpline
 70
8
 71
3
 72
8
 73
4
 74
0
 40
0
 40
0
 40
0
 40
0
 40
1
 40
1
 40
1
 40
1
 10
25.824263
 20
286.387394
 30
0.0
 10
26.094438
 20
286.395060
 30
0.0
 10
26.356209
 20
286.293034
 30
0.0
 10
26.549939
 20
286.104561
 30
0.0
  0
SPLINE
  5
11c
100
AcDbEntity
  8
Layer_1
 62
7
100
AcDbSpline
 70
8
 71
3
 72
8
 73
4
 74
0
 40
0
 40
0
 40
0
 40
0
 40
1
 40
1
 40
1
 40
1
 10
26.549939
 20
286.104561
 30
0.0
 10
26.743668
 20
285.916088
 30
0.0
 10
26.852855
 20
285.657222
 30
0.0
 10
26.852623
 20
285.386939
 30
0.0
  0
SPLINE
  5
11d
100
AcDbEntity
  8
Layer_1
 62
7
100
AcDbSpline
 70
8
 71
3
 72
8
 73
4
 74
0
 40
0
 40
0
 40
0
 40
0
 40
1
 40
1
 40
1
 40
1
 10
26.852623
 20
285.386939
 30
0.0
 10
26.852623
 20
285.029603
 30
0.0
 10
26.661987
 20
284.699411
 30
0.0
 10
26.352525
 20
284.520743
 30
0.0
  0
SPLINE
  5
11e
100
AcDbEntity
  8
Layer_1
 62
7
100
AcDbSpline
 70
8
 71
3
 72
8
 73
4
 74
0
 40
0
 40
0
 40
0
 40
0
 40
1
 40
1
 40
1
 40
1
 10
26.352525
 20
284.520743
 30
0.0
 10
26.043063
 20
284.342075
 30
0.0
 10
25.661790
 20
284.342075
 30
0.0
 10
25.352328
 20
284.520743
 30
0.0
  0
SPLINE
  5
11f
100
AcDbEntity
  8
Layer_1
 62
7
100
AcDbSpline
 70
8
 71
3
 72
8
 73
4
 74
0
 40
0
 40
0
 40
0
 40
0
 40
1
 40
1
 40
1
 40
1
 10
25.352328
 20
284.520743
 30
0.0
 10
25.042866
 20
284.699411
 30
0.0
 10
24.852230
 20
285.029603
 30
0.0
 10
24.852230
 20
285.386939
 30
0.0
  0
SPLINE
  5
120
100
AcDbEntity
  8
Layer_1
 62
7
100
AcDbSpline
 70
8
 71
3
 72
8
 73
4
 74
0
 40
0
 40
0
 40
0
 40
0
 40
1
 40
1
 40
1
 40
1
 10
24.852230
 20
285.386939
 30
0.0
 10
24.851771
 20
285.928661
 30
0.0
 10
25.282753
 20
286.372244
 30
0.0
 10
25.824263
 20
286.387394
 30
0.0
  0
LINE
  5
121
100
AcDbEntity
  8
Layer_1
 62
7
100
AcDbLine
 10
25.824263
 20
286.387394
 30
0.0
 11
25.824263
 21
286.387394
 31
0.0
  0
SPLINE
  5
122
100
AcDbEntity
  8
Layer_1
 62
7
100
AcDbSpline
 70
8
 71
3
 72
8
 73
4
 74
0
 40
0
 40
0
 40
0
 40
0
 40
1
 40
1
 40
1
 40
1
 10
130.823537
 20
286.386878
 30
0.0
 10
131.093710
 20
286.394683
 30
0.0
 10
131.355537
 20
286.292790
 30
0.0
 10
131.549364
 20
286.104414
 30
0.0
  0
SPLINE
  5
123
100
AcDbEntity
  8
Layer_1
 62
7
100
AcDbSpline
 70
8
 71
3
 72
8
 73
4
 74
0
 40
0
 40
0
 40
0
 40
0
 40
1
 40
1
 40
1
 40
1
 10
131.549364
 20
286.104414
 30
0.0
 10
131.743192
 20
285.916039
 30
0.0
 10
131.852511
 20
285.657224
 30
0.0
 10
131.852414
 20
285.386939
 30
0.0
  0
SPLINE
  5
124
100
AcDbEntity
  8
Layer_1
 62
7
100
AcDbSpline
 70
8
 71
3
 72
8
 73
4
 74
0
 40
0
 40
0
 40
0
 40
0
 40
1
 40
1
 40
1
 40
1
 10
131.852414
 20
285.386939
 30
0.0
 10
131.856410
 20
285.027050
 30
0.0
 10
131.666701
 20
284.692776
 30
0.0
 10
131.355677
 20
284.511668
 30
0.0
  0
SPLINE
  5
125
100
AcDbEntity
  8
Layer_1
 62
7
100
AcDbSpline
 70
8
 71
3
 72
8
 73
4
 74
0
 40
0
 40
0
 40
0
 40
0
 40
1
 40
1
 40
1
 40
1
 10
131.355677
 20
284.511668
 30
0.0
 10
131.044653
 20
284.330560
 30
0.0
 10
130.660299
 20
284.330560
 30
0.0
 10
130.349275
 20
284.511668
 30
0.0
  0
SPLINE
  5
126
100
AcDbEntity
  8
Layer_1
 62
7
100
AcDbSpline
 70
8
 71
3
 72
8
 73
4
 74
0
 40
0
 40
0
 40
0
 40
0
 40
1
 40
1
 40
1
 40
1
 10
130.349275
 20
284.511668
 30
0.0
 10
130.038250
 20
284.692776
 30
0.0
 10
129.848542
 20
285.027050
 30
0.0
 10
129.852537
 20
285.386939
 30
0.0
  0
SPLINE
  5
127
100
AcDbEntity
  8
Layer_1
 62
7
100
AcDbSpline
 70
8
 71
3
 72
8
 73
4
 74
0
 40
0
 40
0
 40
0
 40
0
 40
1
 40
1
 40
1
 40
1
 10
129.852537
 20
285.386939
 30
0.0
 10
129.852343
 20
285.928070
 30
0.0
 10
130.282634
 20
286.371185
 30
0.0
 10
130.823537
 20
286.386878
 30
0.0
  0
LINE
  5
128
100
AcDbEntity
  8
Layer_1
 62
7
100
AcDbLine
 10
130.823537
 20
286.386878
 30
0.0
 11
130.823537
 21
286.386878
 31
0.0
  0
SPLINE
  5
129
100
AcDbEntity
  8
Layer_1
 62
7
100
AcDbSpline
 70
8
 71
3
 72
8
 73
4
 74
0
 40
0
 40
0
 40
0
 40
0
 40
1
 40
1
 40
1
 40
1
 10
180.033970
 20
286.144515
 30
0.0
 10
180.304055
 20
286.152178
 30
0.0
 10
180.565747
 20
286.050222
 30
0.0
 10
180.759461
 20
285.861862
 30
0.0
  0
SPLINE
  5
12a
100
AcDbEntity
  8
Layer_1
 62
7
100
AcDbSpline
 70
8
 71
3
 72
8
 73
4
 74
0
 40
0
 40
0
 40
0
 40
0
 40
1
 40
1
 40
1
 40
1
 10
180.759461
 20
285.861862
 30
0.0
 10
180.953175
 20
285.673502
 30
0.0
 10
181.062423
 20
285.414770
 30
0.0
 10
181.062331
 20
285.144576
 30
0.0
  0
SPLINE
  5
12b
100
AcDbEntity
  8
Layer_1
 62
7
100
AcDbSpline
 70
8
 71
3
 72
8
 73
4
 74
0
 40
0
 40
0
 40
0
 40
0
 40
1
 40
1
 40
1
 40
1
 10
181.062331
 20
285.144576
 30
0.0
 10
181.066283
 20
284.784715
 30
0.0
 10
180.876565
 20
284.450486
 30
0.0
 10
180.565558
 20
284.269405
 30
0.0
  0
SPLINE
  5
12c
100
AcDbEntity
  8
Layer_1
 62
7
100
AcDbSpline
 70
8
 71
3
 72
8
 73
4
 74
0
 40
0
 40
0
 40
0
 40
0
 40
1
 40
1
 40
1
 40
1
 10
180.565558
 20
284.269405
 30
0.0
 10
180.254552
 20
284.088324
 30
0.0
 10
179.870231
 20
284.088324
 30
0.0
 10
179.559225
 20
284.269405
 30
0.0
  0
SPLINE
  5
12d
100
AcDbEntity
  8
Layer_1
 62
7
100
AcDbSpline
 70
8
 71
3
 72
8
 73
4
 74
0
 40
0
 40
0
 40
0
 40
0
 40
1
 40
1
 40
1
 40
1
 10
179.559225
 20
284.269405
 30
0.0
 10
179.248218
 20
284.450486
 30
0.0
 10
179.058500
 20
284.784715
 30
0.0
 10
179.062452
 20
285.144576
 30
0.0
  0
SPLINE
  5
12e
100
AcDbEntity
  8
Layer_1
 62
7
100
AcDbSpline
 70
8
 71
3
 72
8
 73
4
 74
0
 40
0
 40
0
 40
0
 40
0
 40
1
 40
1
 40
1
 40
1
 10
179.062452
 20
285.144576
 30
0.0
 10
179.062265
 20
285.685903
 30
0.0
 10
179.492863
 20
286.129097
 30
0.0
 10
180.033970
 20
286.144515
 30
0.0
  0
LINE
  5
12f
100
AcDbEntity
  8
Layer_1
 62
7
100
AcDbLine
 10
180.033970
 20
286.144515
 30
0.0
 11
180.033970
 21
286.144515
 31
0.0
  0
SPLINE
  5
130
100
AcDbEntity
  8
Layer_1
 62
7
100
AcDbSpline
 70
8
 71
3
 72
8
 73
4
 74
0
 40
0
 40
0
 40
0
 40
0
 40
1
 40
1
 40
1
 40
1
 10
298.033992
 20
286.144515
 30
0.0
 10
298.304081
 20
286.152184
 30
0.0
 10
298.565778
 20
286.050231
 30
0.0
 10
298.759497
 20
285.861870
 30
0.0
  0
SPLINE
  5
131
100
AcDbEntity
  8
Layer_1
 62
7
100
AcDbSpline
 70
8
 71
3
 72
8
 73
4
 74
0
 40
0
 40
0
 40
0
 40
0
 40
1
 40
1
 40
1
 40
1
 10
298.759497
 20
285.861870
 30
0.0
 10
298.953215
 20
285.673509
 30
0.0
 10
299.062467
 20
285.414774
 30
0.0
 10
299.062374
 20
285.144576
 30
0.0
  0
SPLINE
  5
132
100
AcDbEntity
  8
Layer_1
 62
7
100
AcDbSpline
 70
8
 71
3
 72
8
 73
4
 74
0
 40
0
 40
0
 40
0
 40
0
 40
1
 40
1
 40
1
 40
1
 10
299.062374
 20
285.144576
 30
0.0
 10
299.066326
 20
284.784715
 30
0.0
 10
298.876608
 20
284.450486
 30
0.0
 10
298.565601
 20
284.269405
 30
0.0
  0
SPLINE
  5
133
100
AcDbEntity
  8
Layer_1
 62
7
100
AcDbSpline
 70
8
 71
3
 72
8
 73
4
 74
0
 40
0
 40
0
 40
0
 40
0
 40
1
 40
1
 40
1
 40
1
 10
298.565601
 20
284.269405
 30
0.0
 10
298.254595
 20
284.088324
 30
0.0
 10
297.870274
 20
284.088324
 30
0.0
 10
297.559268
 20
284.269405
 30
0.0
  0
SPLINE
  5
134
100
AcDbEntity
  8
Layer_1
 62
7
100
AcDbSpline
 70
8
 71
3
 72
8
 73
4
 74
0
 40
0
 40
0
 40
0
 40
0
 40
1
 40
1
 40
1
 40
1
 10
297.559268
 20
284.269405
 30
0.0
 10
297.248261
 20
284.450486
 30
0.0
 10
297.058543
 20
284.784715
 30
0.0
 10
297.062495
 20
285.144576
 30
0.0
  0
SPLINE
  5
135
100
AcDbEntity
  8
Layer_1
 62
7
100
AcDbSpline
 70
8
 71
3
 72
8
 73
4
 74
0
 40
0
 40
0
 40
0
 40
0
 40
1
 40
1
 40
1
 40
1
 10
297.062495
 20
285.144576
 30
0.0
 10
297.062308
 20
285.685895
 30
0.0
 10
297.492893
 20
286.129086
 30
0.0
 10
298.033992
 20
286.144515
 30
0.0
  0
LINE
  5
136
100
AcDbEntity
  8
Layer_1
 62
7
100
AcDbLine
 10
298.033992
 20
286.144515
 30
0.0
 11
298.033992
 21
286.144515
 31
0.0
  0
SPLINE
  5
137
100
AcDbEntity
  8
Layer_1
 62
7
100
AcDbSpline
 70
8
 71
3
 72
8
 73
4
 74
0
 40
0
 40
0
 40
0
 40
0
 40
1
 40
1
 40
1
 40
1
 10
60.889305
 20
282.236227
 30
0.0
 10
62.510255
 20
282.283056
 30
0.0
 10
64.081136
 20
281.671770
 30
0.0
 10
65.244085
 20
280.541628
 30
0.0
  0
SPLINE
  5
138
100
AcDbEntity
  8
Layer_1
 62
7
100
AcDbSpline
 70
8
 71
3
 72
8
 73
4
 74
0
 40
0
 40
0
 40
0
 40
0
 40
1
 40
1
 40
1
 40
1
 10
65.244085
 20
280.541628
 30
0.0
 10
66.407034
 20
279.411486
 30
0.0
 10
67.063009
 20
277.858736
 30
0.0
 10
67.062571
 20
276.237110
 30
0.0
  0
SPLINE
  5
139
100
AcDbEntity
  8
Layer_1
 62
7
100
AcDbSpline
 70
8
 71
3
 72
8
 73
4
 74
0
 40
0
 40
0
 40
0
 40
0
 40
1
 40
1
 40
1
 40
1
 10
67.062571
 20
276.237110
 30
0.0
 10
67.062571
 20
274.093463
 30
0.0
 10
65.918950
 20
272.112651
 30
0.0
 10
64.062497
 20
271.040828
 30
0.0
  0
SPLINE
  5
13a
100
AcDbEntity
  8
Layer_1
 62
7
100
AcDbSpline
 70
8
 71
3
 72
8
 73
4
 74
0
 40
0
 40
0
 40
0
 40
0
 40
1
 40
1
 40
1
 40
1
 10
64.062497
 20
271.040828
 30
0.0
 10
62.206044
 20
269.969004
 30
0.0
 10
59.918800
 20
269.969004
 30
0.0
 10
58.062347
 20
271.040828
 30
0.0
  0
SPLINE
  5
13b
100
AcDbEntity
  8
Layer_1
 62
7
100
AcDbSpline
 70
8
 71
3
 72
8
 73
4
 74
0
 40
0
 40
0
 40
0
 40
0
 40
1
 40
1
 40
1
 40
1
 10
58.062347
 20
271.040828
 30
0.0
 10
56.205895
 20
272.112651
 30
0.0
 10
55.062273
 20
274.093463
 30
0.0
 10
55.062273
 20
276.237110
 30
0.0
  0
SPLINE
  5
13c
100
AcDbEntity
  8
Layer_1
 62
7
100
AcDbSpline
 70
8
 71
3
 72
8
 73
4
 74
0
 40
0
 40
0
 40
0
 40
0
 40
1
 40
1
 40
1
 40
1
 10
55.062273
 20
276.237110
 30
0.0
 10
55.061401
 20
279.484086
 30
0.0
 10
57.643678
 20
282.142623
 30
0.0
 10
60.889305
 20
282.236227
 30
0.0
  0
LINE
  5
13d
100
AcDbEntity
  8
Layer_1
 62
7
100
AcDbLine
 10
60.889305
 20
282.236227
 30
0.0
 11
60.889305
 21
282.236227
 31
0.0
  0
SPLINE
  5
13e
100
AcDbEntity
  8
Layer_1
 62
7
100
AcDbSpline
 70
8
 71
3
 72
8
 73
4
 74
0
 40
0
 40
0
 40
0
 40
0
 40
1
 40
1
 40
1
 40
1
 10
121.526947
 20
282.234160
 30
0.0
 10
123.147891
 20
282.281548
 30
0.0
 10
124.718993
 20
281.670796
 30
0.0
 10
125.882334
 20
280.541042
 30
0.0
  0
SPLINE
  5
13f
100
AcDbEntity
  8
Layer_1
 62
7
100
AcDbSpline
 70
8
 71
3
 72
8
 73
4
 74
0
 40
0
 40
0
 40
0
 40
0
 40
1
 40
1
 40
1
 40
1
 10
125.882334
 20
280.541042
 30
0.0
 10
127.045674
 20
279.411287
 30
0.0
 10
127.702177
 20
277.858747
 30
0.0
 10
127.702282
 20
276.237110
 30
0.0
  0
SPLINE
  5
140
100
AcDbEntity
  8
Layer_1
 62
7
100
AcDbSpline
 70
8
 71
3
 72
8
 73
4
 74
0
 40
0
 40
0
 40
0
 40
0
 40
1
 40
1
 40
1
 40
1
 10
127.702282
 20
276.237110
 30
0.0
 10
127.682561
 20
272.937455
 30
0.0
 10
125.002102
 20
270.272969
 30
0.0
 10
121.702389
 20
270.272969
 30
0.0
  0
SPLINE
  5
141
100
AcDbEntity
  8
Layer_1
 62
7
100
AcDbSpline
 70
8
 71
3
 72
8
 73
4
 74
0
 40
0
 40
0
 40
0
 40
0
 40
1
 40
1
 40
1
 40
1
 10
121.702389
 20
270.272969
 30
0.0
 10
118.402676
 20
270.272969
 30
0.0
 10
115.722217
 20
272.937455
 30
0.0
 10
115.702497
 20
276.237110
 30
0.0
  0
SPLINE
  5
142
100
AcDbEntity
  8
Layer_1
 62
7
100
AcDbSpline
 70
8
 71
3
 72
8
 73
4
 74
0
 40
0
 40
0
 40
0
 40
0
 40
1
 40
1
 40
1
 40
1
 10
115.702497
 20
276.237110
 30
0.0
 10
115.702703
 20
279.482310
 30
0.0
 10
118.283136
 20
282.139211
 30
0.0
 10
121.526947
 20
282.234160
 30
0.0
  0
LINE
  5
143
100
AcDbEntity
  8
Layer_1
 62
7
100
AcDbLine
 10
121.526947
 20
282.234160
 30
0.0
 11
121.526947
 21
282.234160
 31
0.0
  0
SPLINE
  5
144
100
AcDbEntity
  8
Layer_1
 62
7
100
AcDbSpline
 70
8
 71
3
 72
8
 73
4
 74
0
 40
0
 40
0
 40
0
 40
0
 40
1
 40
1
 40
1
 40
1
 10
189.137290
 20
282.214006
 30
0.0
 10
189.839776
 20
282.234357
 30
0.0
 10
190.520580
 20
281.969461
 30
0.0
 10
191.024577
 20
281.479678
 30
0.0
  0
SPLINE
  5
145
100
AcDbEntity
  8
Layer_1
 62
7
100
AcDbSpline
 70
8
 71
3
 72
8
 73
4
 74
0
 40
0
 40
0
 40
0
 40
0
 40
1
 40
1
 40
1
 40
1
 10
191.024577
 20
281.479678
 30
0.0
 10
191.528574
 20
280.989895
 30
0.0
 10
191.812831
 20
280.316945
 30
0.0
 10
191.812580
 20
279.614165
 30
0.0
  0
SPLINE
  5
146
100
AcDbEntity
  8
Layer_1
 62
7
100
AcDbSpline
 70
8
 71
3
 72
8
 73
4
 74
0
 40
0
 40
0
 40
0
 40
0
 40
1
 40
1
 40
1
 40
1
 10
191.812580
 20
279.614165
 30
0.0
 10
191.812580
 20
278.685238
 30
0.0
 10
191.317003
 20
277.826875
 30
0.0
 10
190.512530
 20
277.362412
 30
0.0
  0
SPLINE
  5
147
100
AcDbEntity
  8
Layer_1
 62
7
100
AcDbSpline
 70
8
 71
3
 72
8
 73
4
 74
0
 40
0
 40
0
 40
0
 40
0
 40
1
 40
1
 40
1
 40
1
 10
190.512530
 20
277.362412
 30
0.0
 10
189.708056
 20
276.897949
 30
0.0
 10
188.716903
 20
276.897949
 30
0.0
 10
187.912430
 20
277.362412
 30
0.0
  0
SPLINE
  5
148
100
AcDbEntity
  8
Layer_1
 62
7
100
AcDbSpline
 70
8
 71
3
 72
8
 73
4
 74
0
 40
0
 40
0
 40
0
 40
0
 40
1
 40
1
 40
1
 40
1
 10
187.912430
 20
277.362412
 30
0.0
 10
187.107956
 20
277.826875
 30
0.0
 10
186.612380
 20
278.685238
 30
0.0
 10
186.612380
 20
279.614165
 30
0.0
  0
SPLINE
  5
149
100
AcDbEntity
  8
Layer_1
 62
7
100
AcDbSpline
 70
8
 71
3
 72
8
 73
4
 74
0
 40
0
 40
0
 40
0
 40
0
 40
1
 40
1
 40
1
 40
1
 10
186.612380
 20
279.614165
 30
0.0
 10
186.611878
 20
281.021223
 30
0.0
 10
187.730819
 20
282.173369
 30
0.0
 10
189.137290
 20
282.214006
 30
0.0
  0
LINE
  5
14a
100
AcDbEntity
  8
Layer_1
 62
7
100
AcDbLine
 10
189.137290
 20
282.214006
 30
0.0
 11
189.137290
 21
282.214006
 31
0.0
  0
SPLINE
  5
14b
100
AcDbEntity
  8
Layer_1
 62
7
100
AcDbSpline
 70
8
 71
3
 72
8
 73
4
 74
0
 40
0
 40
0
 40
0
 40
0
 40
1
 40
1
 40
1
 40
1
 10
288.837155
 20
282.214006
 30
0.0
 10
289.539639
 20
282.234354
 30
0.0
 10
290.220441
 20
281.969458
 30
0.0
 10
290.724436
 20
281.479675
 30
0.0
  0
SPLINE
  5
14c
100
AcDbEntity
  8
Layer_1
 62
7
100
AcDbSpline
 70
8
 71
3
 72
8
 73
4
 74
0
 40
0
 40
0
 40
0
 40
0
 40
1
 40
1
 40
1
 40
1
 10
290.724436
 20
281.479675
 30
0.0
 10
291.228432
 20
280.989892
 30
0.0
 10
291.512688
 20
280.316944
 30
0.0
 10
291.512436
 20
279.614165
 30
0.0
  0
SPLINE
  5
14d
100
AcDbEntity
  8
Layer_1
 62
7
100
AcDbSpline
 70
8
 71
3
 72
8
 73
4
 74
0
 40
0
 40
0
 40
0
 40
0
 40
1
 40
1
 40
1
 40
1
 10
291.512436
 20
279.614165
 30
0.0
 10
291.522963
 20
278.678364
 30
0.0
 10
291.029752
 20
277.809108
 30
0.0
 10
290.221034
 20
277.338143
 30
0.0
  0
SPLINE
  5
14e
100
AcDbEntity
  8
Layer_1
 62
7
100
AcDbSpline
 70
8
 71
3
 72
8
 73
4
 74
0
 40
0
 40
0
 40
0
 40
0
 40
1
 40
1
 40
1
 40
1
 10
290.221034
 20
277.338143
 30
0.0
 10
289.412316
 20
276.867177
 30
0.0
 10
288.412885
 20
276.867177
 30
0.0
 10
287.604167
 20
277.338143
 30
0.0
  0
SPLINE
  5
14f
100
AcDbEntity
  8
Layer_1
 62
7
100
AcDbSpline
 70
8
 71
3
 72
8
 73
4
 74
0
 40
0
 40
0
 40
0
 40
0
 40
1
 40
1
 40
1
 40
1
 10
287.604167
 20
277.338143
 30
0.0
 10
286.795449
 20
277.809108
 30
0.0
 10
286.302238
 20
278.678364
 30
0.0
 10
286.312765
 20
279.614165
 30
0.0
  0
SPLINE
  5
150
100
AcDbEntity
  8
Layer_1
 62
7
100
AcDbSpline
 70
8
 71
3
 72
8
 73
4
 74
0
 40
0
 40
0
 40
0
 40
0
 40
1
 40
1
 40
1
 40
1
 10
286.312765
 20
279.614165
 30
0.0
 10
286.312256
 20
281.021026
 30
0.0
 10
287.430888
 20
282.173093
 30
0.0
 10
288.837155
 20
282.214006
 30
0.0
  0
LINE
  5
151
100
AcDbEntity
  8
Layer_1
 62
7
100
AcDbLine
 10
288.837155
 20
282.214006
 30
0.0
 11
288.837155
 21
282.214006
 31
0.0
  0
SPLINE
  5
152
100
AcDbEntity
  8
Layer_1
 62
7
100
AcDbSpline
 70
8
 71
3
 72
8
 73
4
 74
0
 40
0
 40
0
 40
0
 40
0
 40
1
 40
1
 40
1
 40
1
 10
8.674406
 20
281.387700
 30
0.0
 10
8.944582
 20
281.395226
 30
0.0
 10
9.206299
 20
281.293067
 30
0.0
 10
9.399931
 20
281.104497
 30
0.0
  0
SPLINE
  5
153
100
AcDbEntity
  8
Layer_1
 62
7
100
AcDbSpline
 70
8
 71
3
 72
8
 73
4
 74
0
 40
0
 40
0
 40
0
 40
0
 40
1
 40
1
 40
1
 40
1
 10
9.399931
 20
281.104497
 30
0.0
 10
9.593563
 20
280.915927
 30
0.0
 10
9.702618
 20
280.657008
 30
0.0
 10
9.702250
 20
280.386727
 30
0.0
  0
SPLINE
  5
154
100
AcDbEntity
  8
Layer_1
 62
7
100
AcDbSpline
 70
8
 71
3
 72
8
 73
4
 74
0
 40
0
 40
0
 40
0
 40
0
 40
1
 40
1
 40
1
 40
1
 10
9.702250
 20
280.386727
 30
0.0
 10
9.706228
 20
280.026850
 30
0.0
 10
9.516516
 20
279.692593
 30
0.0
 10
9.205499
 20
279.511496
 30
0.0
  0
SPLINE
  5
155
100
AcDbEntity
  8
Layer_1
 62
7
100
AcDbSpline
 70
8
 71
3
 72
8
 73
4
 74
0
 40
0
 40
0
 40
0
 40
0
 40
1
 40
1
 40
1
 40
1
 10
9.205499
 20
279.511496
 30
0.0
 10
8.894482
 20
279.330399
 30
0.0
 10
8.510141
 20
279.330399
 30
0.0
 10
8.199124
 20
279.511496
 30
0.0
  0
SPLINE
  5
156
100
AcDbEntity
  8
Layer_1
 62
7
100
AcDbSpline
 70
8
 71
3
 72
8
 73
4
 74
0
 40
0
 40
0
 40
0
 40
0
 40
1
 40
1
 40
1
 40
1
 10
8.199124
 20
279.511496
 30
0.0
 10
7.888106
 20
279.692593
 30
0.0
 10
7.698394
 20
280.026850
 30
0.0
 10
7.702372
 20
280.386727
 30
0.0
  0
SPLINE
  5
157
100
AcDbEntity
  8
Layer_1
 62
7
100
AcDbSpline
 70
8
 71
3
 72
8
 73
4
 74
0
 40
0
 40
0
 40
0
 40
0
 40
1
 40
1
 40
1
 40
1
 10
7.702372
 20
280.386727
 30
0.0
 10
7.701633
 20
280.928650
 30
0.0
 10
8.132695
 20
281.372545
 30
0.0
 10
8.674406
 20
281.387700
 30
0.0
  0
LINE
  5
158
100
AcDbEntity
  8
Layer_1
 62
7
100
AcDbLine
 10
8.674406
 20
281.387700
 30
0.0
 11
8.674406
 21
281.387700
 31
0.0
  0
LINE
  5
159
100
AcDbEntity
  8
Layer_1
 62
7
100
AcDbLine
 10
171.702178
 20
262.665845
 30
0.0
 11
175.062698
 21
262.665845
 31
0.0
  0
LINE
  5
15a
100
AcDbEntity
  8
Layer_1
 62
7
100
AcDbLine
 10
175.062698
 20
262.665845
 30
0.0
 11
175.062698
 21
178.144391
 31
0.0
  0
SPLINE
  5
15b
100
AcDbEntity
  8
Layer_1
 62
7
100
AcDbSpline
 70
8
 71
3
 72
8
 73
4
 74
0
 40
0
 40
0
 40
0
 40
0
 40
1
 40
1
 40
1
 40
1
 10
175.062698
 20
178.144391
 30
0.0
 10
175.062799
 20
176.487679
 30
0.0
 10
176.405804
 20
175.144675
 30
0.0
 10
178.062515
 20
175.144574
 30
0.0
  0
LINE
  5
15c
100
AcDbEntity
  8
Layer_1
 62
7
100
AcDbLine
 10
178.062515
 20
175.144574
 30
0.0
 11
257.060792
 21
175.144574
 31
0.0
  0
LINE
  5
15d
100
AcDbEntity
  8
Layer_1
 62
7
100
AcDbLine
 10
257.060792
 20
175.144574
 30
0.0
 11
257.060792
 21
172.485305
 31
0.0
  0
LINE
  5
15e
100
AcDbEntity
  8
Layer_1
 62
7
100
AcDbLine
 10
257.060792
 20
172.485305
 30
0.0
 11
178.062515
 21
172.485305
 31
0.0
  0
SPLINE
  5
15f
100
AcDbEntity
  8
Layer_1
 62
7
100
AcDbSpline
 70
8
 71
3
 72
8
 73
4
 74
0
 40
0
 40
0
 40
0
 40
0
 40
1
 40
1
 40
1
 40
1
 10
178.062515
 20
172.485305
 30
0.0
 10
177.266839
 20
172.485256
 30
0.0
 10
176.503773
 20
172.169118
 30
0.0
 10
175.941194
 20
171.606442
 30
0.0
  0
SPLINE
  5
160
100
AcDbEntity
  8
Layer_1
 62
7
100
AcDbSpline
 70
8
 71
3
 72
8
 73
4
 74
0
 40
0
 40
0
 40
0
 40
0
 40
1
 40
1
 40
1
 40
1
 10
175.941194
 20
171.606442
 30
0.0
 10
175.378615
 20
171.043766
 30
0.0
 10
175.062609
 20
170.280646
 30
0.0
 10
175.062698
 20
169.484970
 30
0.0
  0
LINE
  5
161
100
AcDbEntity
  8
Layer_1
 62
7
100
AcDbLine
 10
175.062698
 20
169.484970
 30
0.0
 11
175.062698
 21
148.067156
 31
0.0
  0
LINE
  5
162
100
AcDbEntity
  8
Layer_1
 62
7
100
AcDbLine
 10
175.062698
 20
148.067156
 30
0.0
 11
171.702178
 21
148.067156
 31
0.0
  0
LINE
  5
163
100
AcDbEntity
  8
Layer_1
 62
7
100
AcDbLine
 10
171.702178
 20
148.067156
 30
0.0
 11
171.702178
 21
262.665845
 31
0.0
  0
LINE
  5
164
100
AcDbEntity
  8
Layer_1
 62
7
100
AcDbLine
 10
171.702178
 20
262.665845
 30
0.0
 11
171.702178
 21
262.665845
 31
0.0
  0
SPLINE
  5
165
100
AcDbEntity
  8
Layer_1
 62
7
100
AcDbSpline
 70
8
 71
3
 72
8
 73
4
 74
0
 40
0
 40
0
 40
0
 40
0
 40
1
 40
1
 40
1
 40
1
 10
288.808712
 20
253.482943
 30
0.0
 10
289.767888
 20
253.511070
 30
0.0
 10
290.697595
 20
253.149697
 30
0.0
 10
291.385986
 20
252.481170
 30
0.0
  0
SPLINE
  5
166
100
AcDbEntity
  8
Layer_1
 62
7
100
AcDbSpline
 70
8
 71
3
 72
8
 73
4
 74
0
 40
0
 40
0
 40
0
 40
0
 40
1
 40
1
 40
1
 40
1
 10
291.385986
 20
252.481170
 30
0.0
 10
292.074376
 20
251.812643
 30
0.0
 10
292.462806
 20
250.893911
 30
0.0
 10
292.462767
 20
249.934323
 30
0.0
  0
SPLINE
  5
167
100
AcDbEntity
  8
Layer_1
 62
7
100
AcDbSpline
 70
8
 71
3
 72
8
 73
4
 74
0
 40
0
 40
0
 40
0
 40
0
 40
1
 40
1
 40
1
 40
1
 10
292.462767
 20
249.934323
 30
0.0
 10
292.462767
 20
248.665970
 30
0.0
 10
291.786109
 20
247.493965
 30
0.0
 10
290.687684
 20
246.859789
 30
0.0
  0
SPLINE
  5
168
100
AcDbEntity
  8
Layer_1
 62
7
100
AcDbSpline
 70
8
 71
3
 72
8
 73
4
 74
0
 40
0
 40
0
 40
0
 40
0
 40
1
 40
1
 40
1
 40
1
 10
290.687684
 20
246.859789
 30
0.0
 10
289.589258
 20
246.225613
 30
0.0
 10
288.235943
 20
246.225613
 30
0.0
 10
287.137518
 20
246.859789
 30
0.0
  0
SPLINE
  5
169
100
AcDbEntity
  8
Layer_1
 62
7
100
AcDbSpline
 70
8
 71
3
 72
8
 73
4
 74
0
 40
0
 40
0
 40
0
 40
0
 40
1
 40
1
 40
1
 40
1
 10
287.137518
 20
246.859789
 30
0.0
 10
286.039093
 20
247.493965
 30
0.0
 10
285.362435
 20
248.665970
 30
0.0
 10
285.362435
 20
249.934323
 30
0.0
  0
SPLINE
  5
16a
100
AcDbEntity
  8
Layer_1
 62
7
100
AcDbSpline
 70
8
 71
3
 72
8
 73
4
 74
0
 40
0
 40
0
 40
0
 40
0
 40
1
 40
1
 40
1
 40
1
 10
285.362435
 20
249.934323
 30
0.0
 10
285.362361
 20
251.854596
 30
0.0
 10
286.889259
 20
253.426837
 30
0.0
 10
288.808712
 20
253.482943
 30
0.0
  0
LINE
  5
16b
100
AcDbEntity
  8
Layer_1
 62
7
100
AcDbLine
 10
288.808712
 20
253.482943
 30
0.0
 11
288.808712
 21
253.482943
 31
0.0
  0
SPLINE
  5
16c
100
AcDbEntity
  8
Layer_1
 62
7
100
AcDbSpline
 70
8
 71
3
 72
8
 73
4
 74
0
 40
0
 40
0
 40
0
 40
0
 40
1
 40
1
 40
1
 40
1
 10
189.137290
 20
252.534163
 30
0.0
 10
189.839776
 20
252.554514
 30
0.0
 10
190.520580
 20
252.289619
 30
0.0
 10
191.024577
 20
251.799836
 30
0.0
  0
SPLINE
  5
16d
100
AcDbEntity
  8
Layer_1
 62
7
100
AcDbSpline
 70
8
 71
3
 72
8
 73
4
 74
0
 40
0
 40
0
 40
0
 40
0
 40
1
 40
1
 40
1
 40
1
 10
191.024577
 20
251.799836
 30
0.0
 10
191.528574
 20
251.310053
 30
0.0
 10
191.812831
 20
250.637103
 30
0.0
 10
191.812580
 20
249.934323
 30
0.0
  0
SPLINE
  5
16e
100
AcDbEntity
  8
Layer_1
 62
7
100
AcDbSpline
 70
8
 71
3
 72
8
 73
4
 74
0
 40
0
 40
0
 40
0
 40
0
 40
1
 40
1
 40
1
 40
1
 10
191.812580
 20
249.934323
 30
0.0
 10
191.812580
 20
249.005396
 30
0.0
 10
191.317003
 20
248.147033
 30
0.0
 10
190.512530
 20
247.682570
 30
0.0
  0
SPLINE
  5
16f
100
AcDbEntity
  8
Layer_1
 62
7
100
AcDbSpline
 70
8
 71
3
 72
8
 73
4
 74
0
 40
0
 40
0
 40
0
 40
0
 40
1
 40
1
 40
1
 40
1
 10
190.512530
 20
247.682570
 30
0.0
 10
189.708056
 20
247.218107
 30
0.0
 10
188.716903
 20
247.218107
 30
0.0
 10
187.912430
 20
247.682570
 30
0.0
  0
SPLINE
  5
170
100
AcDbEntity
  8
Layer_1
 62
7
100
AcDbSpline
 70
8
 71
3
 72
8
 73
4
 74
0
 40
0
 40
0
 40
0
 40
0
 40
1
 40
1
 40
1
 40
1
 10
187.912430
 20
247.682570
 30
0.0
 10
187.107956
 20
248.147033
 30
0.0
 10
186.612380
 20
249.005396
 30
0.0
 10
186.612380
 20
249.934323
 30
0.0
  0
SPLINE
  5
171
100
AcDbEntity
  8
Layer_1
 62
7
100
AcDbSpline
 70
8
 71
3
 72
8
 73
4
 74
0
 40
0
 40
0
 40
0
 40
0
 40
1
 40
1
 40
1
 40
1
 10
186.612380
 20
249.934323
 30
0.0
 10
186.611879
 20
251.341381
 30
0.0
 10
187.730819
 20
252.493527
 30
0.0
 10
189.137290
 20
252.534163
 30
0.0
  0
LINE
  5
172
100
AcDbEntity
  8
Layer_1
 62
7
100
AcDbLine
 10
189.137290
 20
252.534163
 30
0.0
 11
189.137290
 21
252.534163
 31
0.0
  0
SPLINE
  5
173
100
AcDbEntity
  8
Layer_1
 62
7
100
AcDbSpline
 70
8
 71
3
 72
8
 73
4
 74
0
 40
0
 40
0
 40
0
 40
0
 40
1
 40
1
 40
1
 40
1
 10
228.987569
 20
242.533742
 30
0.0
 10
229.689878
 20
242.553948
 30
0.0
 10
230.370467
 20
242.289059
 30
0.0
 10
230.874335
 20
241.799404
 30
0.0
  0
SPLINE
  5
174
100
AcDbEntity
  8
Layer_1
 62
7
100
AcDbSpline
 70
8
 71
3
 72
8
 73
4
 74
0
 40
0
 40
0
 40
0
 40
0
 40
1
 40
1
 40
1
 40
1
 10
230.874335
 20
241.799404
 30
0.0
 10
231.378203
 20
241.309749
 30
0.0
 10
231.662451
 20
240.637016
 30
0.0
 10
231.662343
 20
239.934417
 30
0.0
  0
SPLINE
  5
175
100
AcDbEntity
  8
Layer_1
 62
7
100
AcDbSpline
 70
8
 71
3
 72
8
 73
4
 74
0
 40
0
 40
0
 40
0
 40
0
 40
1
 40
1
 40
1
 40
1
 10
231.662343
 20
239.934417
 30
0.0
 10
231.672698
 20
238.998727
 30
0.0
 10
231.179448
 20
238.129649
 30
0.0
 10
230.370799
 20
237.658790
 30
0.0
  0
SPLINE
  5
176
100
AcDbEntity
  8
Layer_1
 62
7
100
AcDbSpline
 70
8
 71
3
 72
8
 73
4
 74
0
 40
0
 40
0
 40
0
 40
0
 40
1
 40
1
 40
1
 40
1
 10
230.370799
 20
237.658790
 30
0.0
 10
229.562150
 20
237.187930
 30
0.0
 10
228.562854
 20
237.187930
 30
0.0
 10
227.754205
 20
237.658790
 30
0.0
  0
SPLINE
  5
177
100
AcDbEntity
  8
Layer_1
 62
7
100
AcDbSpline
 70
8
 71
3
 72
8
 73
4
 74
0
 40
0
 40
0
 40
0
 40
0
 40
1
 40
1
 40
1
 40
1
 10
227.754205
 20
237.658790
 30
0.0
 10
226.945556
 20
238.129649
 30
0.0
 10
226.452306
 20
238.998727
 30
0.0
 10
226.462661
 20
239.934417
 30
0.0
  0
SPLINE
  5
178
100
AcDbEntity
  8
Layer_1
 62
7
100
AcDbSpline
 70
8
 71
3
 72
8
 73
4
 74
0
 40
0
 40
0
 40
0
 40
0
 40
1
 40
1
 40
1
 40
1
 10
226.462661
 20
239.934417
 30
0.0
 10
226.462440
 20
241.341274
 30
0.0
 10
227.581299
 20
242.493110
 30
0.0
 10
228.987569
 20
242.533742
 30
0.0
  0
LINE
  5
179
100
AcDbEntity
  8
Layer_1
 62
7
100
AcDbLine
 10
228.987569
 20
242.533742
 30
0.0
 11
228.987569
 21
242.533742
 31
0.0
  0
SPLINE
  5
17a
100
AcDbEntity
  8
Layer_1
 62
7
100
AcDbSpline
 70
8
 71
3
 72
8
 73
4
 74
0
 40
0
 40
0
 40
0
 40
0
 40
1
 40
1
 40
1
 40
1
 10
248.987384
 20
242.533742
 30
0.0
 10
249.689780
 20
242.554090
 30
0.0
 10
250.370504
 20
242.289265
 30
0.0
 10
250.874485
 20
241.799594
 30
0.0
  0
SPLINE
  5
17b
100
AcDbEntity
  8
Layer_1
 62
7
100
AcDbSpline
 70
8
 71
3
 72
8
 73
4
 74
0
 40
0
 40
0
 40
0
 40
0
 40
1
 40
1
 40
1
 40
1
 10
250.874485
 20
241.799594
 30
0.0
 10
251.378466
 20
241.309923
 30
0.0
 10
251.662785
 20
240.637108
 30
0.0
 10
251.662673
 20
239.934417
 30
0.0
  0
SPLINE
  5
17c
100
AcDbEntity
  8
Layer_1
 62
7
100
AcDbSpline
 70
8
 71
3
 72
8
 73
4
 74
0
 40
0
 40
0
 40
0
 40
0
 40
1
 40
1
 40
1
 40
1
 10
251.662673
 20
239.934417
 30
0.0
 10
251.662673
 20
239.005491
 30
0.0
 10
251.167097
 20
238.147127
 30
0.0
 10
250.362623
 20
237.682664
 30
0.0
  0
SPLINE
  5
17d
100
AcDbEntity
  8
Layer_1
 62
7
100
AcDbSpline
 70
8
 71
3
 72
8
 73
4
 74
0
 40
0
 40
0
 40
0
 40
0
 40
1
 40
1
 40
1
 40
1
 10
250.362623
 20
237.682664
 30
0.0
 10
249.558149
 20
237.218201
 30
0.0
 10
248.566997
 20
237.218201
 30
0.0
 10
247.762523
 20
237.682664
 30
0.0
  0
SPLINE
  5
17e
100
AcDbEntity
  8
Layer_1
 62
7
100
AcDbSpline
 70
8
 71
3
 72
8
 73
4
 74
0
 40
0
 40
0
 40
0
 40
0
 40
1
 40
1
 40
1
 40
1
 10
247.762523
 20
237.682664
 30
0.0
 10
246.958049
 20
238.147127
 30
0.0
 10
246.462473
 20
239.005491
 30
0.0
 10
246.462473
 20
239.934417
 30
0.0
  0
SPLINE
  5
17f
100
AcDbEntity
  8
Layer_1
 62
7
100
AcDbSpline
 70
8
 71
3
 72
8
 73
4
 74
0
 40
0
 40
0
 40
0
 40
0
 40
1
 40
1
 40
1
 40
1
 10
246.462473
 20
239.934417
 30
0.0
 10
246.462251
 20
241.341275
 30
0.0
 10
247.581112
 20
242.493111
 30
0.0
 10
248.987384
 20
242.533742
 30
0.0
  0
LINE
  5
180
100
AcDbEntity
  8
Layer_1
 62
7
100
AcDbLine
 10
248.987384
 20
242.533742
 30
0.0
 11
248.987384
 21
242.533742
 31
0.0
  0
SPLINE
  5
181
100
AcDbEntity
  8
Layer_1
 62
7
100
AcDbSpline
 70
8
 71
3
 72
8
 73
4
 74
0
 40
0
 40
0
 40
0
 40
0
 40
1
 40
1
 40
1
 40
1
 10
70.887145
 20
242.384395
 30
0.0
 10
72.508178
 20
242.431786
 30
0.0
 10
74.079360
 20
241.820964
 30
0.0
 10
75.242716
 20
240.691098
 30
0.0
  0
SPLINE
  5
182
100
AcDbEntity
  8
Layer_1
 62
7
100
AcDbSpline
 70
8
 71
3
 72
8
 73
4
 74
0
 40
0
 40
0
 40
0
 40
0
 40
1
 40
1
 40
1
 40
1
 10
75.242716
 20
240.691098
 30
0.0
 10
76.406072
 20
239.561231
 30
0.0
 10
77.062514
 20
238.008557
 30
0.0
 10
77.062480
 20
236.386831
 30
0.0
  0
SPLINE
  5
183
100
AcDbEntity
  8
Layer_1
 62
7
100
AcDbSpline
 70
8
 71
3
 72
8
 73
4
 74
0
 40
0
 40
0
 40
0
 40
0
 40
1
 40
1
 40
1
 40
1
 10
77.062480
 20
236.386831
 30
0.0
 10
77.062480
 20
234.243183
 30
0.0
 10
75.918858
 20
232.262371
 30
0.0
 10
74.062405
 20
231.190548
 30
0.0
  0
SPLINE
  5
184
100
AcDbEntity
  8
Layer_1
 62
7
100
AcDbSpline
 70
8
 71
3
 72
8
 73
4
 74
0
 40
0
 40
0
 40
0
 40
0
 40
1
 40
1
 40
1
 40
1
 10
74.062405
 20
231.190548
 30
0.0
 10
72.205951
 20
230.118724
 30
0.0
 10
69.918707
 20
230.118724
 30
0.0
 10
68.062254
 20
231.190548
 30
0.0
  0
SPLINE
  5
185
100
AcDbEntity
  8
Layer_1
 62
7
100
AcDbSpline
 70
8
 71
3
 72
8
 73
4
 74
0
 40
0
 40
0
 40
0
 40
0
 40
1
 40
1
 40
1
 40
1
 10
68.062254
 20
231.190548
 30
0.0
 10
66.205801
 20
232.262371
 30
0.0
 10
65.062179
 20
234.243183
 30
0.0
 10
65.062179
 20
236.386831
 30
0.0
  0
SPLINE
  5
186
100
AcDbEntity
  8
Layer_1
 62
7
100
AcDbSpline
 70
8
 71
3
 72
8
 73
4
 74
0
 40
0
 40
0
 40
0
 40
0
 40
1
 40
1
 40
1
 40
1
 10
65.062179
 20
236.386831
 30
0.0
 10
65.062115
 20
239.632425
 30
0.0
 10
67.642932
 20
242.289713
 30
0.0
 10
70.887145
 20
242.384395
 30
0.0
  0
LINE
  5
187
100
AcDbEntity
  8
Layer_1
 62
7
100
AcDbLine
 10
70.887145
 20
242.384395
 30
0.0
 11
70.887145
 21
242.384395
 31
0.0
  0
SPLINE
  5
188
100
AcDbEntity
  8
Layer_1
 62
7
100
AcDbSpline
 70
8
 71
3
 72
8
 73
4
 74
0
 40
0
 40
0
 40
0
 40
0
 40
1
 40
1
 40
1
 40
1
 10
70.887145
 20
222.384583
 30
0.0
 10
72.508179
 20
222.431974
 30
0.0
 10
74.079361
 20
221.821152
 30
0.0
 10
75.242717
 20
220.691285
 30
0.0
  0
SPLINE
  5
189
100
AcDbEntity
  8
Layer_1
 62
7
100
AcDbSpline
 70
8
 71
3
 72
8
 73
4
 74
0
 40
0
 40
0
 40
0
 40
0
 40
1
 40
1
 40
1
 40
1
 10
75.242717
 20
220.691285
 30
0.0
 10
76.406073
 20
219.561418
 30
0.0
 10
77.062515
 20
218.008743
 30
0.0
 10
77.062480
 20
216.387016
 30
0.0
  0
SPLINE
  5
18a
100
AcDbEntity
  8
Layer_1
 62
7
100
AcDbSpline
 70
8
 71
3
 72
8
 73
4
 74
0
 40
0
 40
0
 40
0
 40
0
 40
1
 40
1
 40
1
 40
1
 10
77.062480
 20
216.387016
 30
0.0
 10
77.062480
 20
214.243369
 30
0.0
 10
75.918858
 20
212.262557
 30
0.0
 10
74.062405
 20
211.190733
 30
0.0
  0
SPLINE
  5
18b
100
AcDbEntity
  8
Layer_1
 62
7
100
AcDbSpline
 70
8
 71
3
 72
8
 73
4
 74
0
 40
0
 40
0
 40
0
 40
0
 40
1
 40
1
 40
1
 40
1
 10
74.062405
 20
211.190733
 30
0.0
 10
72.205951
 20
210.118910
 30
0.0
 10
69.918707
 20
210.118910
 30
0.0
 10
68.062254
 20
211.190733
 30
0.0
  0
SPLINE
  5
18c
100
AcDbEntity
  8
Layer_1
 62
7
100
AcDbSpline
 70
8
 71
3
 72
8
 73
4
 74
0
 40
0
 40
0
 40
0
 40
0
 40
1
 40
1
 40
1
 40
1
 10
68.062254
 20
211.190733
 30
0.0
 10
66.205801
 20
212.262557
 30
0.0
 10
65.062179
 20
214.243369
 30
0.0
 10
65.062179
 20
216.387016
 30
0.0
  0
SPLINE
  5
18d
100
AcDbEntity
  8
Layer_1
 62
7
100
AcDbSpline
 70
8
 71
3
 72
8
 73
4
 74
0
 40
0
 40
0
 40
0
 40
0
 40
1
 40
1
 40
1
 40
1
 10
65.062179
 20
216.387016
 30
0.0
 10
65.062113
 20
219.632612
 30
0.0
 10
67.642931
 20
222.289902
 30
0.0
 10
70.887145
 20
222.384583
 30
0.0
  0
LINE
  5
18e
100
AcDbEntity
  8
Layer_1
 62
7
100
AcDbLine
 10
70.887145
 20
222.384583
 30
0.0
 11
70.887145
 21
222.384583
 31
0.0
  0
SPLINE
  5
18f
100
AcDbEntity
  8
Layer_1
 62
7
100
AcDbSpline
 70
8
 71
3
 72
8
 73
4
 74
0
 40
0
 40
0
 40
0
 40
0
 40
1
 40
1
 40
1
 40
1
 10
189.137290
 20
222.214051
 30
0.0
 10
189.839776
 20
222.234402
 30
0.0
 10
190.520580
 20
221.969507
 30
0.0
 10
191.024577
 20
221.479724
 30
0.0
  0
SPLINE
  5
190
100
AcDbEntity
  8
Layer_1
 62
7
100
AcDbSpline
 70
8
 71
3
 72
8
 73
4
 74
0
 40
0
 40
0
 40
0
 40
0
 40
1
 40
1
 40
1
 40
1
 10
191.024577
 20
221.479724
 30
0.0
 10
191.528574
 20
220.989941
 30
0.0
 10
191.812831
 20
220.316991
 30
0.0
 10
191.812580
 20
219.614211
 30
0.0
  0
SPLINE
  5
191
100
AcDbEntity
  8
Layer_1
 62
7
100
AcDbSpline
 70
8
 71
3
 72
8
 73
4
 74
0
 40
0
 40
0
 40
0
 40
0
 40
1
 40
1
 40
1
 40
1
 10
191.812580
 20
219.614211
 30
0.0
 10
191.812580
 20
218.685284
 30
0.0
 10
191.317003
 20
217.826921
 30
0.0
 10
190.512530
 20
217.362458
 30
0.0
  0
SPLINE
  5
192
100
AcDbEntity
  8
Layer_1
 62
7
100
AcDbSpline
 70
8
 71
3
 72
8
 73
4
 74
0
 40
0
 40
0
 40
0
 40
0
 40
1
 40
1
 40
1
 40
1
 10
190.512530
 20
217.362458
 30
0.0
 10
189.708056
 20
216.897995
 30
0.0
 10
188.716903
 20
216.897995
 30
0.0
 10
187.912430
 20
217.362458
 30
0.0
  0
SPLINE
  5
193
100
AcDbEntity
  8
Layer_1
 62
7
100
AcDbSpline
 70
8
 71
3
 72
8
 73
4
 74
0
 40
0
 40
0
 40
0
 40
0
 40
1
 40
1
 40
1
 40
1
 10
187.912430
 20
217.362458
 30
0.0
 10
187.107956
 20
217.826921
 30
0.0
 10
186.612380
 20
218.685284
 30
0.0
 10
186.612380
 20
219.614211
 30
0.0
  0
SPLINE
  5
194
100
AcDbEntity
  8
Layer_1
 62
7
100
AcDbSpline
 70
8
 71
3
 72
8
 73
4
 74
0
 40
0
 40
0
 40
0
 40
0
 40
1
 40
1
 40
1
 40
1
 10
186.612380
 20
219.614211
 30
0.0
 10
186.611879
 20
221.021269
 30
0.0
 10
187.730819
 20
222.173415
 30
0.0
 10
189.137290
 20
222.214051
 30
0.0
  0
LINE
  5
195
100
AcDbEntity
  8
Layer_1
 62
7
100
AcDbLine
 10
189.137290
 20
222.214051
 30
0.0
 11
189.137290
 21
222.214051
 31
0.0
  0
SPLINE
  5
196
100
AcDbEntity
  8
Layer_1
 62
7
100
AcDbSpline
 70
8
 71
3
 72
8
 73
4
 74
0
 40
0
 40
0
 40
0
 40
0
 40
1
 40
1
 40
1
 40
1
 10
288.837155
 20
222.214051
 30
0.0
 10
289.539639
 20
222.234400
 30
0.0
 10
290.220441
 20
221.969504
 30
0.0
 10
290.724436
 20
221.479721
 30
0.0
  0
SPLINE
  5
197
100
AcDbEntity
  8
Layer_1
 62
7
100
AcDbSpline
 70
8
 71
3
 72
8
 73
4
 74
0
 40
0
 40
0
 40
0
 40
0
 40
1
 40
1
 40
1
 40
1
 10
290.724436
 20
221.479721
 30
0.0
 10
291.228431
 20
220.989938
 30
0.0
 10
291.512688
 20
220.316990
 30
0.0
 10
291.512436
 20
219.614211
 30
0.0
  0
SPLINE
  5
198
100
AcDbEntity
  8
Layer_1
 62
7
100
AcDbSpline
 70
8
 71
3
 72
8
 73
4
 74
0
 40
0
 40
0
 40
0
 40
0
 40
1
 40
1
 40
1
 40
1
 10
291.512436
 20
219.614211
 30
0.0
 10
291.522963
 20
218.678410
 30
0.0
 10
291.029752
 20
217.809154
 30
0.0
 10
290.221034
 20
217.338189
 30
0.0
  0
SPLINE
  5
199
100
AcDbEntity
  8
Layer_1
 62
7
100
AcDbSpline
 70
8
 71
3
 72
8
 73
4
 74
0
 40
0
 40
0
 40
0
 40
0
 40
1
 40
1
 40
1
 40
1
 10
290.221034
 20
217.338189
 30
0.0
 10
289.412316
 20
216.867223
 30
0.0
 10
288.412885
 20
216.867223
 30
0.0
 10
287.604167
 20
217.338189
 30
0.0
  0
SPLINE
  5
19a
100
AcDbEntity
  8
Layer_1
 62
7
100
AcDbSpline
 70
8
 71
3
 72
8
 73
4
 74
0
 40
0
 40
0
 40
0
 40
0
 40
1
 40
1
 40
1
 40
1
 10
287.604167
 20
217.338189
 30
0.0
 10
286.795449
 20
217.809154
 30
0.0
 10
286.302238
 20
218.678410
 30
0.0
 10
286.312765
 20
219.614211
 30
0.0
  0
SPLINE
  5
19b
100
AcDbEntity
  8
Layer_1
 62
7
100
AcDbSpline
 70
8
 71
3
 72
8
 73
4
 74
0
 40
0
 40
0
 40
0
 40
0
 40
1
 40
1
 40
1
 40
1
 10
286.312765
 20
219.614211
 30
0.0
 10
286.312256
 20
221.021072
 30
0.0
 10
287.430888
 20
222.173139
 30
0.0
 10
288.837155
 20
222.214051
 30
0.0
  0
LINE
  5
19c
100
AcDbEntity
  8
Layer_1
 62
7
100
AcDbLine
 10
288.837155
 20
222.214051
 30
0.0
 11
288.837155
 21
222.214051
 31
0.0
  0
SPLINE
  5
19d
100
AcDbEntity
  8
Layer_1
 62
7
100
AcDbSpline
 70
8
 71
3
 72
8
 73
4
 74
0
 40
0
 40
0
 40
0
 40
0
 40
1
 40
1
 40
1
 40
1
 10
8.674406
 20
208.887733
 30
0.0
 10
8.944582
 20
208.895259
 30
0.0
 10
9.206299
 20
208.793100
 30
0.0
 10
9.399931
 20
208.604530
 30
0.0
  0
SPLINE
  5
19e
100
AcDbEntity
  8
Layer_1
 62
7
100
AcDbSpline
 70
8
 71
3
 72
8
 73
4
 74
0
 40
0
 40
0
 40
0
 40
0
 40
1
 40
1
 40
1
 40
1
 10
9.399931
 20
208.604530
 30
0.0
 10
9.593562
 20
208.415961
 30
0.0
 10
9.702617
 20
208.157042
 30
0.0
 10
9.702250
 20
207.886761
 30
0.0
  0
SPLINE
  5
19f
100
AcDbEntity
  8
Layer_1
 62
7
100
AcDbSpline
 70
8
 71
3
 72
8
 73
4
 74
0
 40
0
 40
0
 40
0
 40
0
 40
1
 40
1
 40
1
 40
1
 10
9.702250
 20
207.886761
 30
0.0
 10
9.706228
 20
207.526883
 30
0.0
 10
9.516516
 20
207.192627
 30
0.0
 10
9.205499
 20
207.011530
 30
0.0
  0
SPLINE
  5
1a0
100
AcDbEntity
  8
Layer_1
 62
7
100
AcDbSpline
 70
8
 71
3
 72
8
 73
4
 74
0
 40
0
 40
0
 40
0
 40
0
 40
1
 40
1
 40
1
 40
1
 10
9.205499
 20
207.011530
 30
0.0
 10
8.894482
 20
206.830433
 30
0.0
 10
8.510141
 20
206.830433
 30
0.0
 10
8.199124
 20
207.011530
 30
0.0
  0
SPLINE
  5
1a1
100
AcDbEntity
  8
Layer_1
 62
7
100
AcDbSpline
 70
8
 71
3
 72
8
 73
4
 74
0
 40
0
 40
0
 40
0
 40
0
 40
1
 40
1
 40
1
 40
1
 10
8.199124
 20
207.011530
 30
0.0
 10
7.888106
 20
207.192627
 30
0.0
 10
7.698394
 20
207.526883
 30
0.0
 10
7.702372
 20
207.886761
 30
0.0
  0
SPLINE
  5
1a2
100
AcDbEntity
  8
Layer_1
 62
7
100
AcDbSpline
 70
8
 71
3
 72
8
 73
4
 74
0
 40
0
 40
0
 40
0
 40
0
 40
1
 40
1
 40
1
 40
1
 10
7.702372
 20
207.886761
 30
0.0
 10
7.701634
 20
208.428683
 30
0.0
 10
8.132695
 20
208.872577
 30
0.0
 10
8.674406
 20
208.887733
 30
0.0
  0
LINE
  5
1a3
100
AcDbEntity
  8
Layer_1
 62
7
100
AcDbLine
 10
8.674406
 20
208.887733
 30
0.0
 11
8.674406
 21
208.887733
 31
0.0
  0
SPLINE
  5
1a4
100
AcDbEntity
  8
Layer_1
 62
7
100
AcDbSpline
 70
8
 71
3
 72
8
 73
4
 74
0
 40
0
 40
0
 40
0
 40
0
 40
1
 40
1
 40
1
 40
1
 10
288.808712
 20
192.842717
 30
0.0
 10
289.767888
 20
192.870843
 30
0.0
 10
290.697595
 20
192.509471
 30
0.0
 10
291.385986
 20
191.840943
 30
0.0
  0
SPLINE
  5
1a5
100
AcDbEntity
  8
Layer_1
 62
7
100
AcDbSpline
 70
8
 71
3
 72
8
 73
4
 74
0
 40
0
 40
0
 40
0
 40
0
 40
1
 40
1
 40
1
 40
1
 10
291.385986
 20
191.840943
 30
0.0
 10
292.074376
 20
191.172416
 30
0.0
 10
292.462806
 20
190.253684
 30
0.0
 10
292.462767
 20
189.294096
 30
0.0
  0
SPLINE
  5
1a6
100
AcDbEntity
  8
Layer_1
 62
7
100
AcDbSpline
 70
8
 71
3
 72
8
 73
4
 74
0
 40
0
 40
0
 40
0
 40
0
 40
1
 40
1
 40
1
 40
1
 10
292.462767
 20
189.294096
 30
0.0
 10
292.462767
 20
188.025744
 30
0.0
 10
291.786109
 20
186.853738
 30
0.0
 10
290.687684
 20
186.219562
 30
0.0
  0
SPLINE
  5
1a7
100
AcDbEntity
  8
Layer_1
 62
7
100
AcDbSpline
 70
8
 71
3
 72
8
 73
4
 74
0
 40
0
 40
0
 40
0
 40
0
 40
1
 40
1
 40
1
 40
1
 10
290.687684
 20
186.219562
 30
0.0
 10
289.589258
 20
185.585386
 30
0.0
 10
288.235943
 20
185.585386
 30
0.0
 10
287.137518
 20
186.219562
 30
0.0
  0
SPLINE
  5
1a8
100
AcDbEntity
  8
Layer_1
 62
7
100
AcDbSpline
 70
8
 71
3
 72
8
 73
4
 74
0
 40
0
 40
0
 40
0
 40
0
 40
1
 40
1
 40
1
 40
1
 10
287.137518
 20
186.219562
 30
0.0
 10
286.039093
 20
186.853738
 30
0.0
 10
285.362435
 20
188.025744
 30
0.0
 10
285.362435
 20
189.294096
 30
0.0
  0
SPLINE
  5
1a9
100
AcDbEntity
  8
Layer_1
 62
7
100
AcDbSpline
 70
8
 71
3
 72
8
 73
4
 74
0
 40
0
 40
0
 40
0
 40
0
 40
1
 40
1
 40
1
 40
1
 10
285.362435
 20
189.294096
 30
0.0
 10
285.362361
 20
191.214369
 30
0.0
 10
286.889259
 20
192.786611
 30
0.0
 10
288.808712
 20
192.842717
 30
0.0
  0
LINE
  5
1aa
100
AcDbEntity
  8
Layer_1
 62
7
100
AcDbLine
 10
288.808712
 20
192.842717
 30
0.0
 11
288.808712
 21
192.842717
 31
0.0
  0
SPLINE
  5
1ab
100
AcDbEntity
  8
Layer_1
 62
7
100
AcDbSpline
 70
8
 71
3
 72
8
 73
4
 74
0
 40
0
 40
0
 40
0
 40
0
 40
1
 40
1
 40
1
 40
1
 10
189.137290
 20
191.893940
 30
0.0
 10
189.839776
 20
191.914290
 30
0.0
 10
190.520581
 20
191.649395
 30
0.0
 10
191.024578
 20
191.159611
 30
0.0
  0
SPLINE
  5
1ac
100
AcDbEntity
  8
Layer_1
 62
7
100
AcDbSpline
 70
8
 71
3
 72
8
 73
4
 74
0
 40
0
 40
0
 40
0
 40
0
 40
1
 40
1
 40
1
 40
1
 10
191.024578
 20
191.159611
 30
0.0
 10
191.528575
 20
190.669827
 30
0.0
 10
191.812832
 20
189.996877
 30
0.0
 10
191.812580
 20
189.294096
 30
0.0
  0
SPLINE
  5
1ad
100
AcDbEntity
  8
Layer_1
 62
7
100
AcDbSpline
 70
8
 71
3
 72
8
 73
4
 74
0
 40
0
 40
0
 40
0
 40
0
 40
1
 40
1
 40
1
 40
1
 10
191.812580
 20
189.294096
 30
0.0
 10
191.812580
 20
188.365170
 30
0.0
 10
191.317003
 20
187.506807
 30
0.0
 10
190.512530
 20
187.042343
 30
0.0
  0
SPLINE
  5
1ae
100
AcDbEntity
  8
Layer_1
 62
7
100
AcDbSpline
 70
8
 71
3
 72
8
 73
4
 74
0
 40
0
 40
0
 40
0
 40
0
 40
1
 40
1
 40
1
 40
1
 10
190.512530
 20
187.042343
 30
0.0
 10
189.708056
 20
186.577880
 30
0.0
 10
188.716903
 20
186.577880
 30
0.0
 10
187.912430
 20
187.042343
 30
0.0
  0
SPLINE
  5
1af
100
AcDbEntity
  8
Layer_1
 62
7
100
AcDbSpline
 70
8
 71
3
 72
8
 73
4
 74
0
 40
0
 40
0
 40
0
 40
0
 40
1
 40
1
 40
1
 40
1
 10
187.912430
 20
187.042343
 30
0.0
 10
187.107956
 20
187.506807
 30
0.0
 10
186.612380
 20
188.365170
 30
0.0
 10
186.612380
 20
189.294096
 30
0.0
  0
SPLINE
  5
1b0
100
AcDbEntity
  8
Layer_1
 62
7
100
AcDbSpline
 70
8
 71
3
 72
8
 73
4
 74
0
 40
0
 40
0
 40
0
 40
0
 40
1
 40
1
 40
1
 40
1
 10
186.612380
 20
189.294096
 30
0.0
 10
186.611877
 20
190.701155
 30
0.0
 10
187.730818
 20
191.853303
 30
0.0
 10
189.137290
 20
191.893940
 30
0.0
  0
LINE
  5
1b1
100
AcDbEntity
  8
Layer_1
 62
7
100
AcDbLine
 10
189.137290
 20
191.893940
 30
0.0
 11
189.137290
 21
191.893940
 31
0.0
  0
SPLINE
  5
1b2
100
AcDbEntity
  8
Layer_1
 62
7
100
AcDbSpline
 70
8
 71
3
 72
8
 73
4
 74
0
 40
0
 40
0
 40
0
 40
0
 40
1
 40
1
 40
1
 40
1
 10
60.889305
 20
182.536371
 30
0.0
 10
62.510345
 20
182.583202
 30
0.0
 10
64.081306
 20
181.971847
 30
0.0
 10
65.244271
 20
180.841593
 30
0.0
  0
SPLINE
  5
1b3
100
AcDbEntity
  8
Layer_1
 62
7
100
AcDbSpline
 70
8
 71
3
 72
8
 73
4
 74
0
 40
0
 40
0
 40
0
 40
0
 40
1
 40
1
 40
1
 40
1
 10
65.244271
 20
180.841593
 30
0.0
 10
66.407235
 20
179.711338
 30
0.0
 10
67.063149
 20
178.158453
 30
0.0
 10
67.062571
 20
176.536737
 30
0.0
  0
SPLINE
  5
1b4
100
AcDbEntity
  8
Layer_1
 62
7
100
AcDbSpline
 70
8
 71
3
 72
8
 73
4
 74
0
 40
0
 40
0
 40
0
 40
0
 40
1
 40
1
 40
1
 40
1
 10
67.062571
 20
176.536737
 30
0.0
 10
67.062571
 20
174.393090
 30
0.0
 10
65.918950
 20
172.412279
 30
0.0
 10
64.062497
 20
171.340455
 30
0.0
  0
SPLINE
  5
1b5
100
AcDbEntity
  8
Layer_1
 62
7
100
AcDbSpline
 70
8
 71
3
 72
8
 73
4
 74
0
 40
0
 40
0
 40
0
 40
0
 40
1
 40
1
 40
1
 40
1
 10
64.062497
 20
171.340455
 30
0.0
 10
62.206044
 20
170.268632
 30
0.0
 10
59.918800
 20
170.268632
 30
0.0
 10
58.062347
 20
171.340455
 30
0.0
  0
SPLINE
  5
1b6
100
AcDbEntity
  8
Layer_1
 62
7
100
AcDbSpline
 70
8
 71
3
 72
8
 73
4
 74
0
 40
0
 40
0
 40
0
 40
0
 40
1
 40
1
 40
1
 40
1
 10
58.062347
 20
171.340455
 30
0.0
 10
56.205895
 20
172.412279
 30
0.0
 10
55.062273
 20
174.393090
 30
0.0
 10
55.062273
 20
176.536737
 30
0.0
  0
SPLINE
  5
1b7
100
AcDbEntity
  8
Layer_1
 62
7
100
AcDbSpline
 70
8
 71
3
 72
8
 73
4
 74
0
 40
0
 40
0
 40
0
 40
0
 40
1
 40
1
 40
1
 40
1
 10
55.062273
 20
176.536737
 30
0.0
 10
55.061122
 20
179.783914
 30
0.0
 10
57.643478
 20
182.442762
 30
0.0
 10
60.889305
 20
182.536371
 30
0.0
  0
LINE
  5
1b8
100
AcDbEntity
  8
Layer_1
 62
7
100
AcDbLine
 10
60.889305
 20
182.536371
 30
0.0
 11
60.889305
 21
182.536371
 31
0.0
  0
SPLINE
  5
1b9
100
AcDbEntity
  8
Layer_1
 62
7
100
AcDbSpline
 70
8
 71
3
 72
8
 73
4
 74
0
 40
0
 40
0
 40
0
 40
0
 40
1
 40
1
 40
1
 40
1
 10
121.526947
 20
182.534304
 30
0.0
 10
123.147981
 20
182.581695
 30
0.0
 10
124.719163
 20
181.970873
 30
0.0
 10
125.882519
 20
180.841006
 30
0.0
  0
SPLINE
  5
1ba
100
AcDbEntity
  8
Layer_1
 62
7
100
AcDbSpline
 70
8
 71
3
 72
8
 73
4
 74
0
 40
0
 40
0
 40
0
 40
0
 40
1
 40
1
 40
1
 40
1
 10
125.882519
 20
180.841006
 30
0.0
 10
127.045875
 20
179.711139
 30
0.0
 10
127.702317
 20
178.158464
 30
0.0
 10
127.702282
 20
176.536737
 30
0.0
  0
SPLINE
  5
1bb
100
AcDbEntity
  8
Layer_1
 62
7
100
AcDbSpline
 70
8
 71
3
 72
8
 73
4
 74
0
 40
0
 40
0
 40
0
 40
0
 40
1
 40
1
 40
1
 40
1
 10
127.702282
 20
176.536737
 30
0.0
 10
127.682561
 20
173.237083
 30
0.0
 10
125.002102
 20
170.572596
 30
0.0
 10
121.702389
 20
170.572596
 30
0.0
  0
SPLINE
  5
1bc
100
AcDbEntity
  8
Layer_1
 62
7
100
AcDbSpline
 70
8
 71
3
 72
8
 73
4
 74
0
 40
0
 40
0
 40
0
 40
0
 40
1
 40
1
 40
1
 40
1
 10
121.702389
 20
170.572596
 30
0.0
 10
118.402676
 20
170.572596
 30
0.0
 10
115.722217
 20
173.237083
 30
0.0
 10
115.702497
 20
176.536737
 30
0.0
  0
SPLINE
  5
1bd
100
AcDbEntity
  8
Layer_1
 62
7
100
AcDbSpline
 70
8
 71
3
 72
8
 73
4
 74
0
 40
0
 40
0
 40
0
 40
0
 40
1
 40
1
 40
1
 40
1
 10
115.702497
 20
176.536737
 30
0.0
 10
115.702423
 20
179.782138
 30
0.0
 10
118.282935
 20
182.439349
 30
0.0
 10
121.526947
 20
182.534304
 30
0.0
  0
LINE
  5
1be
100
AcDbEntity
  8
Layer_1
 62
7
100
AcDbLine
 10
121.526947
 20
182.534304
 30
0.0
 11
121.526947
 21
182.534304
 31
0.0
  0
SPLINE
  5
1bf
100
AcDbEntity
  8
Layer_1
 62
7
100
AcDbSpline
 70
8
 71
3
 72
8
 73
4
 74
0
 40
0
 40
0
 40
0
 40
0
 40
1
 40
1
 40
1
 40
1
 10
180.033970
 20
181.144207
 30
0.0
 10
180.304055
 20
181.151870
 30
0.0
 10
180.565747
 20
181.049914
 30
0.0
 10
180.759461
 20
180.861554
 30
0.0
  0
SPLINE
  5
1c0
100
AcDbEntity
  8
Layer_1
 62
7
100
AcDbSpline
 70
8
 71
3
 72
8
 73
4
 74
0
 40
0
 40
0
 40
0
 40
0
 40
1
 40
1
 40
1
 40
1
 10
180.759461
 20
180.861554
 30
0.0
 10
180.953176
 20
180.673194
 30
0.0
 10
181.062424
 20
180.414461
 30
0.0
 10
181.062331
 20
180.144267
 30
0.0
  0
SPLINE
  5
1c1
100
AcDbEntity
  8
Layer_1
 62
7
100
AcDbSpline
 70
8
 71
3
 72
8
 73
4
 74
0
 40
0
 40
0
 40
0
 40
0
 40
1
 40
1
 40
1
 40
1
 10
181.062331
 20
180.144267
 30
0.0
 10
181.066283
 20
179.784407
 30
0.0
 10
180.876565
 20
179.450177
 30
0.0
 10
180.565558
 20
179.269097
 30
0.0
  0
SPLINE
  5
1c2
100
AcDbEntity
  8
Layer_1
 62
7
100
AcDbSpline
 70
8
 71
3
 72
8
 73
4
 74
0
 40
0
 40
0
 40
0
 40
0
 40
1
 40
1
 40
1
 40
1
 10
180.565558
 20
179.269097
 30
0.0
 10
180.254552
 20
179.088016
 30
0.0
 10
179.870231
 20
179.088016
 30
0.0
 10
179.559225
 20
179.269097
 30
0.0
  0
SPLINE
  5
1c3
100
AcDbEntity
  8
Layer_1
 62
7
100
AcDbSpline
 70
8
 71
3
 72
8
 73
4
 74
0
 40
0
 40
0
 40
0
 40
0
 40
1
 40
1
 40
1
 40
1
 10
179.559225
 20
179.269097
 30
0.0
 10
179.248218
 20
179.450177
 30
0.0
 10
179.058500
 20
179.784407
 30
0.0
 10
179.062452
 20
180.144267
 30
0.0
  0
SPLINE
  5
1c4
100
AcDbEntity
  8
Layer_1
 62
7
100
AcDbSpline
 70
8
 71
3
 72
8
 73
4
 74
0
 40
0
 40
0
 40
0
 40
0
 40
1
 40
1
 40
1
 40
1
 10
179.062452
 20
180.144267
 30
0.0
 10
179.062265
 20
180.685595
 30
0.0
 10
179.492863
 20
181.128789
 30
0.0
 10
180.033970
 20
181.144207
 30
0.0
  0
LINE
  5
1c5
100
AcDbEntity
  8
Layer_1
 62
7
100
AcDbLine
 10
180.033970
 20
181.144207
 30
0.0
 11
180.033970
 21
181.144207
 31
0.0
  0
SPLINE
  5
1c6
100
AcDbEntity
  8
Layer_1
 62
7
100
AcDbSpline
 70
8
 71
3
 72
8
 73
4
 74
0
 40
0
 40
0
 40
0
 40
0
 40
1
 40
1
 40
1
 40
1
 10
298.033992
 20
181.144207
 30
0.0
 10
298.304081
 20
181.151876
 30
0.0
 10
298.565778
 20
181.049923
 30
0.0
 10
298.759497
 20
180.861562
 30
0.0
  0
SPLINE
  5
1c7
100
AcDbEntity
  8
Layer_1
 62
7
100
AcDbSpline
 70
8
 71
3
 72
8
 73
4
 74
0
 40
0
 40
0
 40
0
 40
0
 40
1
 40
1
 40
1
 40
1
 10
298.759497
 20
180.861562
 30
0.0
 10
298.953216
 20
180.673201
 30
0.0
 10
299.062467
 20
180.414465
 30
0.0
 10
299.062374
 20
180.144267
 30
0.0
  0
SPLINE
  5
1c8
100
AcDbEntity
  8
Layer_1
 62
7
100
AcDbSpline
 70
8
 71
3
 72
8
 73
4
 74
0
 40
0
 40
0
 40
0
 40
0
 40
1
 40
1
 40
1
 40
1
 10
299.062374
 20
180.144267
 30
0.0
 10
299.066326
 20
179.784407
 30
0.0
 10
298.876608
 20
179.450177
 30
0.0
 10
298.565601
 20
179.269097
 30
0.0
  0
SPLINE
  5
1c9
100
AcDbEntity
  8
Layer_1
 62
7
100
AcDbSpline
 70
8
 71
3
 72
8
 73
4
 74
0
 40
0
 40
0
 40
0
 40
0
 40
1
 40
1
 40
1
 40
1
 10
298.565601
 20
179.269097
 30
0.0
 10
298.254595
 20
179.088016
 30
0.0
 10
297.870274
 20
179.088016
 30
0.0
 10
297.559268
 20
179.269097
 30
0.0
  0
SPLINE
  5
1ca
100
AcDbEntity
  8
Layer_1
 62
7
100
AcDbSpline
 70
8
 71
3
 72
8
 73
4
 74
0
 40
0
 40
0
 40
0
 40
0
 40
1
 40
1
 40
1
 40
1
 10
297.559268
 20
179.269097
 30
0.0
 10
297.248261
 20
179.450177
 30
0.0
 10
297.058543
 20
179.784407
 30
0.0
 10
297.062495
 20
180.144267
 30
0.0
  0
SPLINE
  5
1cb
100
AcDbEntity
  8
Layer_1
 62
7
100
AcDbSpline
 70
8
 71
3
 72
8
 73
4
 74
0
 40
0
 40
0
 40
0
 40
0
 40
1
 40
1
 40
1
 40
1
 10
297.062495
 20
180.144267
 30
0.0
 10
297.062308
 20
180.685587
 30
0.0
 10
297.492893
 20
181.128778
 30
0.0
 10
298.033992
 20
181.144207
 30
0.0
  0
LINE
  5
1cc
100
AcDbEntity
  8
Layer_1
 62
7
100
AcDbLine
 10
298.033992
 20
181.144207
 30
0.0
 11
298.033992
 21
181.144207
 31
0.0
  0
SPLINE
  5
1cd
100
AcDbEntity
  8
Layer_1
 62
7
100
AcDbSpline
 70
8
 71
3
 72
8
 73
4
 74
0
 40
0
 40
0
 40
0
 40
0
 40
1
 40
1
 40
1
 40
1
 10
180.033970
 20
168.485033
 30
0.0
 10
180.304055
 20
168.492696
 30
0.0
 10
180.565747
 20
168.390740
 30
0.0
 10
180.759461
 20
168.202380
 30
0.0
  0
SPLINE
  5
1ce
100
AcDbEntity
  8
Layer_1
 62
7
100
AcDbSpline
 70
8
 71
3
 72
8
 73
4
 74
0
 40
0
 40
0
 40
0
 40
0
 40
1
 40
1
 40
1
 40
1
 10
180.759461
 20
168.202380
 30
0.0
 10
180.953176
 20
168.014019
 30
0.0
 10
181.062424
 20
167.755287
 30
0.0
 10
181.062331
 20
167.485093
 30
0.0
  0
SPLINE
  5
1cf
100
AcDbEntity
  8
Layer_1
 62
7
100
AcDbSpline
 70
8
 71
3
 72
8
 73
4
 74
0
 40
0
 40
0
 40
0
 40
0
 40
1
 40
1
 40
1
 40
1
 10
181.062331
 20
167.485093
 30
0.0
 10
181.066283
 20
167.125232
 30
0.0
 10
180.876565
 20
166.791003
 30
0.0
 10
180.565558
 20
166.609922
 30
0.0
  0
SPLINE
  5
1d0
100
AcDbEntity
  8
Layer_1
 62
7
100
AcDbSpline
 70
8
 71
3
 72
8
 73
4
 74
0
 40
0
 40
0
 40
0
 40
0
 40
1
 40
1
 40
1
 40
1
 10
180.565558
 20
166.609922
 30
0.0
 10
180.254552
 20
166.428841
 30
0.0
 10
179.870231
 20
166.428841
 30
0.0
 10
179.559225
 20
166.609922
 30
0.0
  0
SPLINE
  5
1d1
100
AcDbEntity
  8
Layer_1
 62
7
100
AcDbSpline
 70
8
 71
3
 72
8
 73
4
 74
0
 40
0
 40
0
 40
0
 40
0
 40
1
 40
1
 40
1
 40
1
 10
179.559225
 20
166.609922
 30
0.0
 10
179.248218
 20
166.791003
 30
0.0
 10
179.058500
 20
167.125232
 30
0.0
 10
179.062452
 20
167.485093
 30
0.0
  0
SPLINE
  5
1d2
100
AcDbEntity
  8
Layer_1
 62
7
100
AcDbSpline
 70
8
 71
3
 72
8
 73
4
 74
0
 40
0
 40
0
 40
0
 40
0
 40
1
 40
1
 40
1
 40
1
 10
179.062452
 20
167.485093
 30
0.0
 10
179.062265
 20
168.026420
 30
0.0
 10
179.492863
 20
168.469615
 30
0.0
 10
180.033970
 20
168.485033
 30
0.0
  0
LINE
  5
1d3
100
AcDbEntity
  8
Layer_1
 62
7
100
AcDbLine
 10
180.033970
 20
168.485033
 30
0.0
 11
180.033970
 21
168.485033
 31
0.0
  0
SPLINE
  5
1d4
100
AcDbEntity
  8
Layer_1
 62
7
100
AcDbSpline
 70
8
 71
3
 72
8
 73
4
 74
0
 40
0
 40
0
 40
0
 40
0
 40
1
 40
1
 40
1
 40
1
 10
298.033992
 20
168.485033
 30
0.0
 10
298.304081
 20
168.492701
 30
0.0
 10
298.565778
 20
168.390748
 30
0.0
 10
298.759497
 20
168.202387
 30
0.0
  0
SPLINE
  5
1d5
100
AcDbEntity
  8
Layer_1
 62
7
100
AcDbSpline
 70
8
 71
3
 72
8
 73
4
 74
0
 40
0
 40
0
 40
0
 40
0
 40
1
 40
1
 40
1
 40
1
 10
298.759497
 20
168.202387
 30
0.0
 10
298.953216
 20
168.014026
 30
0.0
 10
299.062467
 20
167.755290
 30
0.0
 10
299.062374
 20
167.485093
 30
0.0
  0
SPLINE
  5
1d6
100
AcDbEntity
  8
Layer_1
 62
7
100
AcDbSpline
 70
8
 71
3
 72
8
 73
4
 74
0
 40
0
 40
0
 40
0
 40
0
 40
1
 40
1
 40
1
 40
1
 10
299.062374
 20
167.485093
 30
0.0
 10
299.066326
 20
167.125232
 30
0.0
 10
298.876608
 20
166.791003
 30
0.0
 10
298.565601
 20
166.609922
 30
0.0
  0
SPLINE
  5
1d7
100
AcDbEntity
  8
Layer_1
 62
7
100
AcDbSpline
 70
8
 71
3
 72
8
 73
4
 74
0
 40
0
 40
0
 40
0
 40
0
 40
1
 40
1
 40
1
 40
1
 10
298.565601
 20
166.609922
 30
0.0
 10
298.254595
 20
166.428841
 30
0.0
 10
297.870274
 20
166.428841
 30
0.0
 10
297.559268
 20
166.609922
 30
0.0
  0
SPLINE
  5
1d8
100
AcDbEntity
  8
Layer_1
 62
7
100
AcDbSpline
 70
8
 71
3
 72
8
 73
4
 74
0
 40
0
 40
0
 40
0
 40
0
 40
1
 40
1
 40
1
 40
1
 10
297.559268
 20
166.609922
 30
0.0
 10
297.248261
 20
166.791003
 30
0.0
 10
297.058543
 20
167.125232
 30
0.0
 10
297.062495
 20
167.485093
 30
0.0
  0
SPLINE
  5
1d9
100
AcDbEntity
  8
Layer_1
 62
7
100
AcDbSpline
 70
8
 71
3
 72
8
 73
4
 74
0
 40
0
 40
0
 40
0
 40
0
 40
1
 40
1
 40
1
 40
1
 10
297.062495
 20
167.485093
 30
0.0
 10
297.062308
 20
168.026412
 30
0.0
 10
297.492893
 20
168.469603
 30
0.0
 10
298.033992
 20
168.485033
 30
0.0
  0
LINE
  5
1da
100
AcDbEntity
  8
Layer_1
 62
7
100
AcDbLine
 10
298.033992
 20
168.485033
 30
0.0
 11
298.033992
 21
168.485033
 31
0.0
  0
SPLINE
  5
1db
100
AcDbEntity
  8
Layer_1
 62
7
100
AcDbSpline
 70
8
 71
3
 72
8
 73
4
 74
0
 40
0
 40
0
 40
0
 40
0
 40
1
 40
1
 40
1
 40
1
 10
25.824263
 20
168.387364
 30
0.0
 10
26.094438
 20
168.395030
 30
0.0
 10
26.356209
 20
168.293004
 30
0.0
 10
26.549939
 20
168.104531
 30
0.0
  0
SPLINE
  5
1dc
100
AcDbEntity
  8
Layer_1
 62
7
100
AcDbSpline
 70
8
 71
3
 72
8
 73
4
 74
0
 40
0
 40
0
 40
0
 40
0
 40
1
 40
1
 40
1
 40
1
 10
26.549939
 20
168.104531
 30
0.0
 10
26.743668
 20
167.916058
 30
0.0
 10
26.852855
 20
167.657192
 30
0.0
 10
26.852623
 20
167.386909
 30
0.0
  0
SPLINE
  5
1dd
100
AcDbEntity
  8
Layer_1
 62
7
100
AcDbSpline
 70
8
 71
3
 72
8
 73
4
 74
0
 40
0
 40
0
 40
0
 40
0
 40
1
 40
1
 40
1
 40
1
 10
26.852623
 20
167.386909
 30
0.0
 10
26.852623
 20
167.029573
 30
0.0
 10
26.661987
 20
166.699381
 30
0.0
 10
26.352525
 20
166.520713
 30
0.0
  0
SPLINE
  5
1de
100
AcDbEntity
  8
Layer_1
 62
7
100
AcDbSpline
 70
8
 71
3
 72
8
 73
4
 74
0
 40
0
 40
0
 40
0
 40
0
 40
1
 40
1
 40
1
 40
1
 10
26.352525
 20
166.520713
 30
0.0
 10
26.043063
 20
166.342045
 30
0.0
 10
25.661790
 20
166.342045
 30
0.0
 10
25.352328
 20
166.520713
 30
0.0
  0
SPLINE
  5
1df
100
AcDbEntity
  8
Layer_1
 62
7
100
AcDbSpline
 70
8
 71
3
 72
8
 73
4
 74
0
 40
0
 40
0
 40
0
 40
0
 40
1
 40
1
 40
1
 40
1
 10
25.352328
 20
166.520713
 30
0.0
 10
25.042866
 20
166.699381
 30
0.0
 10
24.852230
 20
167.029573
 30
0.0
 10
24.852230
 20
167.386909
 30
0.0
  0
SPLINE
  5
1e0
100
AcDbEntity
  8
Layer_1
 62
7
100
AcDbSpline
 70
8
 71
3
 72
8
 73
4
 74
0
 40
0
 40
0
 40
0
 40
0
 40
1
 40
1
 40
1
 40
1
 10
24.852230
 20
167.386909
 30
0.0
 10
24.851771
 20
167.928631
 30
0.0
 10
25.282753
 20
168.372214
 30
0.0
 10
25.824263
 20
168.387364
 30
0.0
  0
LINE
  5
1e1
100
AcDbEntity
  8
Layer_1
 62
7
100
AcDbLine
 10
25.824263
 20
168.387364
 30
0.0
 11
25.824263
 21
168.387364
 31
0.0
  0
SPLINE
  5
1e2
100
AcDbEntity
  8
Layer_1
 62
7
100
AcDbSpline
 70
8
 71
3
 72
8
 73
4
 74
0
 40
0
 40
0
 40
0
 40
0
 40
1
 40
1
 40
1
 40
1
 10
130.823537
 20
168.386846
 30
0.0
 10
131.093710
 20
168.394651
 30
0.0
 10
131.355536
 20
168.292758
 30
0.0
 10
131.549364
 20
168.104383
 30
0.0
  0
SPLINE
  5
1e3
100
AcDbEntity
  8
Layer_1
 62
7
100
AcDbSpline
 70
8
 71
3
 72
8
 73
4
 74
0
 40
0
 40
0
 40
0
 40
0
 40
1
 40
1
 40
1
 40
1
 10
131.549364
 20
168.104383
 30
0.0
 10
131.743191
 20
167.916008
 30
0.0
 10
131.852510
 20
167.657194
 30
0.0
 10
131.852414
 20
167.386909
 30
0.0
  0
SPLINE
  5
1e4
100
AcDbEntity
  8
Layer_1
 62
7
100
AcDbSpline
 70
8
 71
3
 72
8
 73
4
 74
0
 40
0
 40
0
 40
0
 40
0
 40
1
 40
1
 40
1
 40
1
 10
131.852414
 20
167.386909
 30
0.0
 10
131.856410
 20
167.027020
 30
0.0
 10
131.666701
 20
166.692746
 30
0.0
 10
131.355677
 20
166.511638
 30
0.0
  0
SPLINE
  5
1e5
100
AcDbEntity
  8
Layer_1
 62
7
100
AcDbSpline
 70
8
 71
3
 72
8
 73
4
 74
0
 40
0
 40
0
 40
0
 40
0
 40
1
 40
1
 40
1
 40
1
 10
131.355677
 20
166.511638
 30
0.0
 10
131.044653
 20
166.330530
 30
0.0
 10
130.660299
 20
166.330530
 30
0.0
 10
130.349275
 20
166.511638
 30
0.0
  0
SPLINE
  5
1e6
100
AcDbEntity
  8
Layer_1
 62
7
100
AcDbSpline
 70
8
 71
3
 72
8
 73
4
 74
0
 40
0
 40
0
 40
0
 40
0
 40
1
 40
1
 40
1
 40
1
 10
130.349275
 20
166.511638
 30
0.0
 10
130.038250
 20
166.692746
 30
0.0
 10
129.848542
 20
167.027020
 30
0.0
 10
129.852537
 20
167.386909
 30
0.0
  0
SPLINE
  5
1e7
100
AcDbEntity
  8
Layer_1
 62
7
100
AcDbSpline
 70
8
 71
3
 72
8
 73
4
 74
0
 40
0
 40
0
 40
0
 40
0
 40
1
 40
1
 40
1
 40
1
 10
129.852537
 20
167.386909
 30
0.0
 10
129.852344
 20
167.928039
 30
0.0
 10
130.282634
 20
168.371153
 30
0.0
 10
130.823537
 20
168.386846
 30
0.0
  0
LINE
  5
1e8
100
AcDbEntity
  8
Layer_1
 62
7
100
AcDbLine
 10
130.823537
 20
168.386846
 30
0.0
 11
130.823537
 21
168.386846
 31
0.0
  0
SPLINE
  5
1e9
100
AcDbEntity
  8
Layer_1
 62
7
100
AcDbSpline
 70
8
 71
3
 72
8
 73
4
 74
0
 40
0
 40
0
 40
0
 40
0
 40
1
 40
1
 40
1
 40
1
 10
189.137290
 20
164.554523
 30
0.0
 10
189.839686
 20
164.574871
 30
0.0
 10
190.520411
 20
164.310046
 30
0.0
 10
191.024392
 20
163.820375
 30
0.0
  0
SPLINE
  5
1ea
100
AcDbEntity
  8
Layer_1
 62
7
100
AcDbSpline
 70
8
 71
3
 72
8
 73
4
 74
0
 40
0
 40
0
 40
0
 40
0
 40
1
 40
1
 40
1
 40
1
 10
191.024392
 20
163.820375
 30
0.0
 10
191.528373
 20
163.330704
 30
0.0
 10
191.812692
 20
162.657889
 30
0.0
 10
191.812580
 20
161.955198
 30
0.0
  0
SPLINE
  5
1eb
100
AcDbEntity
  8
Layer_1
 62
7
100
AcDbSpline
 70
8
 71
3
 72
8
 73
4
 74
0
 40
0
 40
0
 40
0
 40
0
 40
1
 40
1
 40
1
 40
1
 10
191.812580
 20
161.955198
 30
0.0
 10
191.812480
 20
161.026307
 30
0.0
 10
191.316922
 20
160.167977
 30
0.0
 10
190.512480
 20
159.703532
 30
0.0
  0
SPLINE
  5
1ec
100
AcDbEntity
  8
Layer_1
 62
7
100
AcDbSpline
 70
8
 71
3
 72
8
 73
4
 74
0
 40
0
 40
0
 40
0
 40
0
 40
1
 40
1
 40
1
 40
1
 10
190.512480
 20
159.703532
 30
0.0
 10
189.708037
 20
159.239087
 30
0.0
 10
188.716922
 20
159.239087
 30
0.0
 10
187.912480
 20
159.703532
 30
0.0
  0
SPLINE
  5
1ed
100
AcDbEntity
  8
Layer_1
 62
7
100
AcDbSpline
 70
8
 71
3
 72
8
 73
4
 74
0
 40
0
 40
0
 40
0
 40
0
 40
1
 40
1
 40
1
 40
1
 10
187.912480
 20
159.703532
 30
0.0
 10
187.108037
 20
160.167977
 30
0.0
 10
186.612479
 20
161.026307
 30
0.0
 10
186.612479
 20
161.955198
 30
0.0
  0
SPLINE
  5
1ee
100
AcDbEntity
  8
Layer_1
 62
7
100
AcDbSpline
 70
8
 71
3
 72
8
 73
4
 74
0
 40
0
 40
0
 40
0
 40
0
 40
1
 40
1
 40
1
 40
1
 10
186.612479
 20
161.955198
 30
0.0
 10
186.612256
 20
163.362018
 30
0.0
 10
187.731058
 20
164.513839
 30
0.0
 10
189.137290
 20
164.554523
 30
0.0
  0
LINE
  5
1ef
100
AcDbEntity
  8
Layer_1
 62
7
100
AcDbLine
 10
189.137290
 20
164.554523
 30
0.0
 11
189.137290
 21
164.554523
 31
0.0
  0
SPLINE
  5
1f0
100
AcDbEntity
  8
Layer_1
 62
7
100
AcDbSpline
 70
8
 71
3
 72
8
 73
4
 74
0
 40
0
 40
0
 40
0
 40
0
 40
1
 40
1
 40
1
 40
1
 10
288.837155
 20
164.554523
 30
0.0
 10
289.539550
 20
164.574869
 30
0.0
 10
290.220272
 20
164.310043
 30
0.0
 10
290.724251
 20
163.820372
 30
0.0
  0
SPLINE
  5
1f1
100
AcDbEntity
  8
Layer_1
 62
7
100
AcDbSpline
 70
8
 71
3
 72
8
 73
4
 74
0
 40
0
 40
0
 40
0
 40
0
 40
1
 40
1
 40
1
 40
1
 10
290.724251
 20
163.820372
 30
0.0
 10
291.228231
 20
163.330702
 30
0.0
 10
291.512548
 20
162.657888
 30
0.0
 10
291.512436
 20
161.955198
 30
0.0
  0
SPLINE
  5
1f2
100
AcDbEntity
  8
Layer_1
 62
7
100
AcDbSpline
 70
8
 71
3
 72
8
 73
4
 74
0
 40
0
 40
0
 40
0
 40
0
 40
1
 40
1
 40
1
 40
1
 10
291.512436
 20
161.955198
 30
0.0
 10
291.522966
 20
161.019396
 30
0.0
 10
291.029756
 20
160.150138
 30
0.0
 10
290.221036
 20
159.679170
 30
0.0
  0
SPLINE
  5
1f3
100
AcDbEntity
  8
Layer_1
 62
7
100
AcDbSpline
 70
8
 71
3
 72
8
 73
4
 74
0
 40
0
 40
0
 40
0
 40
0
 40
1
 40
1
 40
1
 40
1
 10
290.221036
 20
159.679170
 30
0.0
 10
289.412317
 20
159.208203
 30
0.0
 10
288.412884
 20
159.208203
 30
0.0
 10
287.604165
 20
159.679170
 30
0.0
  0
SPLINE
  5
1f4
100
AcDbEntity
  8
Layer_1
 62
7
100
AcDbSpline
 70
8
 71
3
 72
8
 73
4
 74
0
 40
0
 40
0
 40
0
 40
0
 40
1
 40
1
 40
1
 40
1
 10
287.604165
 20
159.679170
 30
0.0
 10
286.795446
 20
160.150138
 30
0.0
 10
286.302236
 20
161.019396
 30
0.0
 10
286.312765
 20
161.955198
 30
0.0
  0
SPLINE
  5
1f5
100
AcDbEntity
  8
Layer_1
 62
7
100
AcDbSpline
 70
8
 71
3
 72
8
 73
4
 74
0
 40
0
 40
0
 40
0
 40
0
 40
1
 40
1
 40
1
 40
1
 10
286.312765
 20
161.955198
 30
0.0
 10
286.312536
 20
163.361859
 30
0.0
 10
287.431088
 20
164.513616
 30
0.0
 10
288.837155
 20
164.554523
 30
0.0
  0
LINE
  5
1f6
100
AcDbEntity
  8
Layer_1
 62
7
100
AcDbLine
 10
288.837155
 20
164.554523
 30
0.0
 11
288.837155
 21
164.554523
 31
0.0
  0
SPLINE
  5
1f7
100
AcDbEntity
  8
Layer_1
 62
7
100
AcDbSpline
 70
8
 71
3
 72
8
 73
4
 74
0
 40
0
 40
0
 40
0
 40
0
 40
1
 40
1
 40
1
 40
1
 10
8.674406
 20
136.387767
 30
0.0
 10
8.944582
 20
136.395293
 30
0.0
 10
9.206300
 20
136.293134
 30
0.0
 10
9.399932
 20
136.104564
 30
0.0
  0
SPLINE
  5
1f8
100
AcDbEntity
  8
Layer_1
 62
7
100
AcDbSpline
 70
8
 71
3
 72
8
 73
4
 74
0
 40
0
 40
0
 40
0
 40
0
 40
1
 40
1
 40
1
 40
1
 10
9.399932
 20
136.104564
 30
0.0
 10
9.593563
 20
135.915994
 30
0.0
 10
9.702618
 20
135.657074
 30
0.0
 10
9.702250
 20
135.386793
 30
0.0
  0
SPLINE
  5
1f9
100
AcDbEntity
  8
Layer_1
 62
7
100
AcDbSpline
 70
8
 71
3
 72
8
 73
4
 74
0
 40
0
 40
0
 40
0
 40
0
 40
1
 40
1
 40
1
 40
1
 10
9.702250
 20
135.386793
 30
0.0
 10
9.706228
 20
135.026915
 30
0.0
 10
9.516516
 20
134.692659
 30
0.0
 10
9.205499
 20
134.511562
 30
0.0
  0
SPLINE
  5
1fa
100
AcDbEntity
  8
Layer_1
 62
7
100
AcDbSpline
 70
8
 71
3
 72
8
 73
4
 74
0
 40
0
 40
0
 40
0
 40
0
 40
1
 40
1
 40
1
 40
1
 10
9.205499
 20
134.511562
 30
0.0
 10
8.894482
 20
134.330465
 30
0.0
 10
8.510141
 20
134.330465
 30
0.0
 10
8.199124
 20
134.511562
 30
0.0
  0
SPLINE
  5
1fb
100
AcDbEntity
  8
Layer_1
 62
7
100
AcDbSpline
 70
8
 71
3
 72
8
 73
4
 74
0
 40
0
 40
0
 40
0
 40
0
 40
1
 40
1
 40
1
 40
1
 10
8.199124
 20
134.511562
 30
0.0
 10
7.888106
 20
134.692659
 30
0.0
 10
7.698394
 20
135.026915
 30
0.0
 10
7.702372
 20
135.386793
 30
0.0
  0
SPLINE
  5
1fc
100
AcDbEntity
  8
Layer_1
 62
7
100
AcDbSpline
 70
8
 71
3
 72
8
 73
4
 74
0
 40
0
 40
0
 40
0
 40
0
 40
1
 40
1
 40
1
 40
1
 10
7.702372
 20
135.386793
 30
0.0
 10
7.701632
 20
135.928716
 30
0.0
 10
8.132694
 20
136.372612
 30
0.0
 10
8.674406
 20
136.387767
 30
0.0
  0
LINE
  5
1fd
100
AcDbEntity
  8
Layer_1
 62
7
100
AcDbLine
 10
8.674406
 20
136.387767
 30
0.0
 11
8.674406
 21
136.387767
 31
0.0
  0
SPLINE
  5
1fe
100
AcDbEntity
  8
Layer_1
 62
7
100
AcDbSpline
 70
8
 71
3
 72
8
 73
4
 74
0
 40
0
 40
0
 40
0
 40
0
 40
1
 40
1
 40
1
 40
1
 10
288.808712
 20
135.823459
 30
0.0
 10
289.767798
 20
135.851583
 30
0.0
 10
290.697425
 20
135.490280
 30
0.0
 10
291.385800
 20
134.821866
 30
0.0
  0
SPLINE
  5
1ff
100
AcDbEntity
  8
Layer_1
 62
7
100
AcDbSpline
 70
8
 71
3
 72
8
 73
4
 74
0
 40
0
 40
0
 40
0
 40
0
 40
1
 40
1
 40
1
 40
1
 10
291.385800
 20
134.821866
 30
0.0
 10
292.074174
 20
134.153452
 30
0.0
 10
292.462666
 20
133.234855
 30
0.0
 10
292.462767
 20
132.275357
 30
0.0
  0
SPLINE
  5
200
100
AcDbEntity
  8
Layer_1
 62
7
100
AcDbSpline
 70
8
 71
3
 72
8
 73
4
 74
0
 40
0
 40
0
 40
0
 40
0
 40
1
 40
1
 40
1
 40
1
 10
292.462767
 20
132.275357
 30
0.0
 10
292.462601
 20
131.007064
 30
0.0
 10
291.785974
 20
129.835113
 30
0.0
 10
290.687601
 20
129.200966
 30
0.0
  0
SPLINE
  5
201
100
AcDbEntity
  8
Layer_1
 62
7
100
AcDbSpline
 70
8
 71
3
 72
8
 73
4
 74
0
 40
0
 40
0
 40
0
 40
0
 40
1
 40
1
 40
1
 40
1
 10
290.687601
 20
129.200966
 30
0.0
 10
289.589227
 20
128.566820
 30
0.0
 10
288.235974
 20
128.566820
 30
0.0
 10
287.137601
 20
129.200966
 30
0.0
  0
SPLINE
  5
202
100
AcDbEntity
  8
Layer_1
 62
7
100
AcDbSpline
 70
8
 71
3
 72
8
 73
4
 74
0
 40
0
 40
0
 40
0
 40
0
 40
1
 40
1
 40
1
 40
1
 10
287.137601
 20
129.200966
 30
0.0
 10
286.039227
 20
129.835113
 30
0.0
 10
285.362601
 20
131.007064
 30
0.0
 10
285.362601
 20
132.275357
 30
0.0
  0
SPLINE
  5
203
100
AcDbEntity
  8
Layer_1
 62
7
100
AcDbSpline
 70
8
 71
3
 72
8
 73
4
 74
0
 40
0
 40
0
 40
0
 40
0
 40
1
 40
1
 40
1
 40
1
 10
285.362601
 20
132.275357
 30
0.0
 10
285.362805
 20
134.195366
 30
0.0
 10
286.889525
 20
135.767271
 30
0.0
 10
288.808712
 20
135.823459
 30
0.0
  0
LINE
  5
204
100
AcDbEntity
  8
Layer_1
 62
7
100
AcDbLine
 10
288.808712
 20
135.823459
 30
0.0
 11
288.808712
 21
135.823459
 31
0.0
  0
SPLINE
  5
205
100
AcDbEntity
  8
Layer_1
 62
7
100
AcDbSpline
 70
8
 71
3
 72
8
 73
4
 74
0
 40
0
 40
0
 40
0
 40
0
 40
1
 40
1
 40
1
 40
1
 10
189.137290
 20
134.874681
 30
0.0
 10
189.839686
 20
134.895030
 30
0.0
 10
190.520411
 20
134.630204
 30
0.0
 10
191.024392
 20
134.140534
 30
0.0
  0
SPLINE
  5
206
100
AcDbEntity
  8
Layer_1
 62
7
100
AcDbSpline
 70
8
 71
3
 72
8
 73
4
 74
0
 40
0
 40
0
 40
0
 40
0
 40
1
 40
1
 40
1
 40
1
 10
191.024392
 20
134.140534
 30
0.0
 10
191.528373
 20
133.650863
 30
0.0
 10
191.812692
 20
132.978048
 30
0.0
 10
191.812580
 20
132.275357
 30
0.0
  0
SPLINE
  5
207
100
AcDbEntity
  8
Layer_1
 62
7
100
AcDbSpline
 70
8
 71
3
 72
8
 73
4
 74
0
 40
0
 40
0
 40
0
 40
0
 40
1
 40
1
 40
1
 40
1
 10
191.812580
 20
132.275357
 30
0.0
 10
191.812480
 20
131.346466
 30
0.0
 10
191.316922
 20
130.488136
 30
0.0
 10
190.512480
 20
130.023691
 30
0.0
  0
SPLINE
  5
208
100
AcDbEntity
  8
Layer_1
 62
7
100
AcDbSpline
 70
8
 71
3
 72
8
 73
4
 74
0
 40
0
 40
0
 40
0
 40
0
 40
1
 40
1
 40
1
 40
1
 10
190.512480
 20
130.023691
 30
0.0
 10
189.708037
 20
129.559245
 30
0.0
 10
188.716922
 20
129.559245
 30
0.0
 10
187.912480
 20
130.023691
 30
0.0
  0
SPLINE
  5
209
100
AcDbEntity
  8
Layer_1
 62
7
100
AcDbSpline
 70
8
 71
3
 72
8
 73
4
 74
0
 40
0
 40
0
 40
0
 40
0
 40
1
 40
1
 40
1
 40
1
 10
187.912480
 20
130.023691
 30
0.0
 10
187.108037
 20
130.488136
 30
0.0
 10
186.612479
 20
131.346466
 30
0.0
 10
186.612479
 20
132.275357
 30
0.0
  0
SPLINE
  5
20a
100
AcDbEntity
  8
Layer_1
 62
7
100
AcDbSpline
 70
8
 71
3
 72
8
 73
4
 74
0
 40
0
 40
0
 40
0
 40
0
 40
1
 40
1
 40
1
 40
1
 10
186.612479
 20
132.275357
 30
0.0
 10
186.612256
 20
133.682177
 30
0.0
 10
187.731058
 20
134.833998
 30
0.0
 10
189.137290
 20
134.874681
 30
0.0
  0
LINE
  5
20b
100
AcDbEntity
  8
Layer_1
 62
7
100
AcDbLine
 10
189.137290
 20
134.874681
 30
0.0
 11
189.137290
 21
134.874681
 31
0.0
  0
SPLINE
  5
20c
100
AcDbEntity
  8
Layer_1
 62
7
100
AcDbSpline
 70
8
 71
3
 72
8
 73
4
 74
0
 40
0
 40
0
 40
0
 40
0
 40
1
 40
1
 40
1
 40
1
 10
16.674434
 20
128.388254
 30
0.0
 10
16.944700
 20
128.395783
 30
0.0
 10
17.206497
 20
128.293554
 30
0.0
 10
17.400144
 20
128.104872
 30
0.0
  0
SPLINE
  5
20d
100
AcDbEntity
  8
Layer_1
 62
7
100
AcDbSpline
 70
8
 71
3
 72
8
 73
4
 74
0
 40
0
 40
0
 40
0
 40
0
 40
1
 40
1
 40
1
 40
1
 10
17.400144
 20
128.104872
 30
0.0
 10
17.593792
 20
127.916191
 30
0.0
 10
17.702785
 20
127.657137
 30
0.0
 10
17.702278
 20
127.386767
 30
0.0
  0
SPLINE
  5
20e
100
AcDbEntity
  8
Layer_1
 62
7
100
AcDbSpline
 70
8
 71
3
 72
8
 73
4
 74
0
 40
0
 40
0
 40
0
 40
0
 40
1
 40
1
 40
1
 40
1
 10
17.702278
 20
127.386767
 30
0.0
 10
17.706257
 20
127.026889
 30
0.0
 10
17.516544
 20
126.692633
 30
0.0
 10
17.205527
 20
126.511536
 30
0.0
  0
SPLINE
  5
20f
100
AcDbEntity
  8
Layer_1
 62
7
100
AcDbSpline
 70
8
 71
3
 72
8
 73
4
 74
0
 40
0
 40
0
 40
0
 40
0
 40
1
 40
1
 40
1
 40
1
 10
17.205527
 20
126.511536
 30
0.0
 10
16.894510
 20
126.330439
 30
0.0
 10
16.510169
 20
126.330439
 30
0.0
 10
16.199152
 20
126.511536
 30
0.0
  0
SPLINE
  5
210
100
AcDbEntity
  8
Layer_1
 62
7
100
AcDbSpline
 70
8
 71
3
 72
8
 73
4
 74
0
 40
0
 40
0
 40
0
 40
0
 40
1
 40
1
 40
1
 40
1
 10
16.199152
 20
126.511536
 30
0.0
 10
15.888135
 20
126.692633
 30
0.0
 10
15.698422
 20
127.026889
 30
0.0
 10
15.702400
 20
127.386767
 30
0.0
  0
SPLINE
  5
211
100
AcDbEntity
  8
Layer_1
 62
7
100
AcDbSpline
 70
8
 71
3
 72
8
 73
4
 74
0
 40
0
 40
0
 40
0
 40
0
 40
1
 40
1
 40
1
 40
1
 10
15.702400
 20
127.386767
 30
0.0
 10
15.701382
 20
127.928889
 30
0.0
 10
16.132523
 20
128.373094
 30
0.0
 10
16.674434
 20
128.388254
 30
0.0
  0
LINE
  5
212
100
AcDbEntity
  8
Layer_1
 62
7
100
AcDbLine
 10
16.674434
 20
128.388254
 30
0.0
 11
16.674434
 21
128.388254
 31
0.0
  0
SPLINE
  5
213
100
AcDbEntity
  8
Layer_1
 62
7
100
AcDbSpline
 70
8
 71
3
 72
8
 73
4
 74
0
 40
0
 40
0
 40
0
 40
0
 40
1
 40
1
 40
1
 40
1
 10
161.674366
 20
128.387738
 30
0.0
 10
161.944542
 20
128.395265
 30
0.0
 10
162.206259
 20
128.293106
 30
0.0
 10
162.399891
 20
128.104536
 30
0.0
  0
SPLINE
  5
214
100
AcDbEntity
  8
Layer_1
 62
7
100
AcDbSpline
 70
8
 71
3
 72
8
 73
4
 74
0
 40
0
 40
0
 40
0
 40
0
 40
1
 40
1
 40
1
 40
1
 10
162.399891
 20
128.104536
 30
0.0
 10
162.593524
 20
127.915967
 30
0.0
 10
162.702579
 20
127.657048
 30
0.0
 10
162.702211
 20
127.386767
 30
0.0
  0
SPLINE
  5
215
100
AcDbEntity
  8
Layer_1
 62
7
100
AcDbSpline
 70
8
 71
3
 72
8
 73
4
 74
0
 40
0
 40
0
 40
0
 40
0
 40
1
 40
1
 40
1
 40
1
 10
162.702211
 20
127.386767
 30
0.0
 10
162.706223
 20
127.026867
 30
0.0
 10
162.516518
 20
126.692576
 30
0.0
 10
162.205488
 20
126.511458
 30
0.0
  0
SPLINE
  5
216
100
AcDbEntity
  8
Layer_1
 62
7
100
AcDbSpline
 70
8
 71
3
 72
8
 73
4
 74
0
 40
0
 40
0
 40
0
 40
0
 40
1
 40
1
 40
1
 40
1
 10
162.205488
 20
126.511458
 30
0.0
 10
161.894457
 20
126.330340
 30
0.0
 10
161.510089
 20
126.330340
 30
0.0
 10
161.199058
 20
126.511458
 30
0.0
  0
SPLINE
  5
217
100
AcDbEntity
  8
Layer_1
 62
7
100
AcDbSpline
 70
8
 71
3
 72
8
 73
4
 74
0
 40
0
 40
0
 40
0
 40
0
 40
1
 40
1
 40
1
 40
1
 10
161.199058
 20
126.511458
 30
0.0
 10
160.888028
 20
126.692576
 30
0.0
 10
160.698323
 20
127.026867
 30
0.0
 10
160.702335
 20
127.386767
 30
0.0
  0
SPLINE
  5
218
100
AcDbEntity
  8
Layer_1
 62
7
100
AcDbSpline
 70
8
 71
3
 72
8
 73
4
 74
0
 40
0
 40
0
 40
0
 40
0
 40
1
 40
1
 40
1
 40
1
 10
160.702335
 20
127.386767
 30
0.0
 10
160.701596
 20
127.928688
 30
0.0
 10
161.132656
 20
128.372582
 30
0.0
 10
161.674366
 20
128.387738
 30
0.0
  0
LINE
  5
219
100
AcDbEntity
  8
Layer_1
 62
7
100
AcDbLine
 10
161.674366
 20
128.387738
 30
0.0
 11
161.674366
 21
128.387738
 31
0.0
  0
SPLINE
  5
21a
100
AcDbEntity
  8
Layer_1
 62
7
100
AcDbSpline
 70
8
 71
3
 72
8
 73
4
 74
0
 40
0
 40
0
 40
0
 40
0
 40
1
 40
1
 40
1
 40
1
 10
89.173885
 20
128.386704
 30
0.0
 10
89.443970
 20
128.394367
 30
0.0
 10
89.705661
 20
128.292412
 30
0.0
 10
89.899375
 20
128.104052
 30
0.0
  0
SPLINE
  5
21b
100
AcDbEntity
  8
Layer_1
 62
7
100
AcDbSpline
 70
8
 71
3
 72
8
 73
4
 74
0
 40
0
 40
0
 40
0
 40
0
 40
1
 40
1
 40
1
 40
1
 10
89.899375
 20
128.104052
 30
0.0
 10
90.093089
 20
127.915692
 30
0.0
 10
90.202338
 20
127.656960
 30
0.0
 10
90.202246
 20
127.386767
 30
0.0
  0
SPLINE
  5
21c
100
AcDbEntity
  8
Layer_1
 62
7
100
AcDbSpline
 70
8
 71
3
 72
8
 73
4
 74
0
 40
0
 40
0
 40
0
 40
0
 40
1
 40
1
 40
1
 40
1
 10
90.202246
 20
127.386767
 30
0.0
 10
90.206198
 20
127.026906
 30
0.0
 10
90.016480
 20
126.692677
 30
0.0
 10
89.705473
 20
126.511596
 30
0.0
  0
SPLINE
  5
21d
100
AcDbEntity
  8
Layer_1
 62
7
100
AcDbSpline
 70
8
 71
3
 72
8
 73
4
 74
0
 40
0
 40
0
 40
0
 40
0
 40
1
 40
1
 40
1
 40
1
 10
89.705473
 20
126.511596
 30
0.0
 10
89.394467
 20
126.330515
 30
0.0
 10
89.010146
 20
126.330515
 30
0.0
 10
88.699140
 20
126.511596
 30
0.0
  0
SPLINE
  5
21e
100
AcDbEntity
  8
Layer_1
 62
7
100
AcDbSpline
 70
8
 71
3
 72
8
 73
4
 74
0
 40
0
 40
0
 40
0
 40
0
 40
1
 40
1
 40
1
 40
1
 10
88.699140
 20
126.511596
 30
0.0
 10
88.388133
 20
126.692677
 30
0.0
 10
88.198415
 20
127.026906
 30
0.0
 10
88.202367
 20
127.386767
 30
0.0
  0
SPLINE
  5
21f
100
AcDbEntity
  8
Layer_1
 62
7
100
AcDbSpline
 70
8
 71
3
 72
8
 73
4
 74
0
 40
0
 40
0
 40
0
 40
0
 40
1
 40
1
 40
1
 40
1
 10
88.202367
 20
127.386767
 30
0.0
 10
88.202181
 20
127.928093
 30
0.0
 10
88.632779
 20
128.371286
 30
0.0
 10
89.173885
 20
128.386704
 30
0.0
  0
LINE
  5
220
100
AcDbEntity
  8
Layer_1
 62
7
100
AcDbLine
 10
89.173885
 20
128.386704
 30
0.0
 11
89.173885
 21
128.386704
 31
0.0
  0
SPLINE
  5
221
100
AcDbEntity
  8
Layer_1
 62
7
100
AcDbSpline
 70
8
 71
3
 72
8
 73
4
 74
0
 40
0
 40
0
 40
0
 40
0
 40
1
 40
1
 40
1
 40
1
 10
228.987569
 20
124.874776
 30
0.0
 10
229.689967
 20
124.894984
 30
0.0
 10
230.370637
 20
124.630026
 30
0.0
 10
230.874521
 20
124.140258
 30
0.0
  0
SPLINE
  5
222
100
AcDbEntity
  8
Layer_1
 62
7
100
AcDbSpline
 70
8
 71
3
 72
8
 73
4
 74
0
 40
0
 40
0
 40
0
 40
0
 40
1
 40
1
 40
1
 40
1
 10
230.874521
 20
124.140258
 30
0.0
 10
231.378404
 20
123.650490
 30
0.0
 10
231.662591
 20
122.977621
 30
0.0
 10
231.662343
 20
122.274932
 30
0.0
  0
SPLINE
  5
223
100
AcDbEntity
  8
Layer_1
 62
7
100
AcDbSpline
 70
8
 71
3
 72
8
 73
4
 74
0
 40
0
 40
0
 40
0
 40
0
 40
1
 40
1
 40
1
 40
1
 10
231.662343
 20
122.274932
 30
0.0
 10
231.672700
 20
121.339241
 30
0.0
 10
231.179451
 20
120.470160
 30
0.0
 10
230.370801
 20
119.999299
 30
0.0
  0
SPLINE
  5
224
100
AcDbEntity
  8
Layer_1
 62
7
100
AcDbSpline
 70
8
 71
3
 72
8
 73
4
 74
0
 40
0
 40
0
 40
0
 40
0
 40
1
 40
1
 40
1
 40
1
 10
230.370801
 20
119.999299
 30
0.0
 10
229.562151
 20
119.528438
 30
0.0
 10
228.562853
 20
119.528438
 30
0.0
 10
227.754203
 20
119.999299
 30
0.0
  0
SPLINE
  5
225
100
AcDbEntity
  8
Layer_1
 62
7
100
AcDbSpline
 70
8
 71
3
 72
8
 73
4
 74
0
 40
0
 40
0
 40
0
 40
0
 40
1
 40
1
 40
1
 40
1
 10
227.754203
 20
119.999299
 30
0.0
 10
226.945553
 20
120.470160
 30
0.0
 10
226.452304
 20
121.339241
 30
0.0
 10
226.462661
 20
122.274932
 30
0.0
  0
SPLINE
  5
226
100
AcDbEntity
  8
Layer_1
 62
7
100
AcDbSpline
 70
8
 71
3
 72
8
 73
4
 74
0
 40
0
 40
0
 40
0
 40
0
 40
1
 40
1
 40
1
 40
1
 10
226.462661
 20
122.274932
 30
0.0
 10
226.462159
 20
123.681991
 30
0.0
 10
227.581098
 20
124.834138
 30
0.0
 10
228.987569
 20
124.874776
 30
0.0
  0
LINE
  5
227
100
AcDbEntity
  8
Layer_1
 62
7
100
AcDbLine
 10
228.987569
 20
124.874776
 30
0.0
 11
228.987569
 21
124.874776
 31
0.0
  0
SPLINE
  5
228
100
AcDbEntity
  8
Layer_1
 62
7
100
AcDbSpline
 70
8
 71
3
 72
8
 73
4
 74
0
 40
0
 40
0
 40
0
 40
0
 40
1
 40
1
 40
1
 40
1
 10
248.987384
 20
124.874776
 30
0.0
 10
249.689870
 20
124.895126
 30
0.0
 10
250.370674
 20
124.630231
 30
0.0
 10
250.874671
 20
124.140447
 30
0.0
  0
SPLINE
  5
229
100
AcDbEntity
  8
Layer_1
 62
7
100
AcDbSpline
 70
8
 71
3
 72
8
 73
4
 74
0
 40
0
 40
0
 40
0
 40
0
 40
1
 40
1
 40
1
 40
1
 10
250.874671
 20
124.140447
 30
0.0
 10
251.378668
 20
123.650663
 30
0.0
 10
251.662925
 20
122.977713
 30
0.0
 10
251.662673
 20
122.274932
 30
0.0
  0
SPLINE
  5
22a
100
AcDbEntity
  8
Layer_1
 62
7
100
AcDbSpline
 70
8
 71
3
 72
8
 73
4
 74
0
 40
0
 40
0
 40
0
 40
0
 40
1
 40
1
 40
1
 40
1
 10
251.662673
 20
122.274932
 30
0.0
 10
251.662573
 20
121.346042
 30
0.0
 10
251.167016
 20
120.487711
 30
0.0
 10
250.362573
 20
120.023266
 30
0.0
  0
SPLINE
  5
22b
100
AcDbEntity
  8
Layer_1
 62
7
100
AcDbSpline
 70
8
 71
3
 72
8
 73
4
 74
0
 40
0
 40
0
 40
0
 40
0
 40
1
 40
1
 40
1
 40
1
 10
250.362573
 20
120.023266
 30
0.0
 10
249.558130
 20
119.558821
 30
0.0
 10
248.567016
 20
119.558821
 30
0.0
 10
247.762573
 20
120.023266
 30
0.0
  0
SPLINE
  5
22c
100
AcDbEntity
  8
Layer_1
 62
7
100
AcDbSpline
 70
8
 71
3
 72
8
 73
4
 74
0
 40
0
 40
0
 40
0
 40
0
 40
1
 40
1
 40
1
 40
1
 10
247.762573
 20
120.023266
 30
0.0
 10
246.958130
 20
120.487711
 30
0.0
 10
246.462573
 20
121.346042
 30
0.0
 10
246.462573
 20
122.274932
 30
0.0
  0
SPLINE
  5
22d
100
AcDbEntity
  8
Layer_1
 62
7
100
AcDbSpline
 70
8
 71
3
 72
8
 73
4
 74
0
 40
0
 40
0
 40
0
 40
0
 40
1
 40
1
 40
1
 40
1
 10
246.462573
 20
122.274932
 30
0.0
 10
246.462069
 20
123.681954
 30
0.0
 10
247.580950
 20
124.834086
 30
0.0
 10
248.987384
 20
124.874776
 30
0.0
  0
LINE
  5
22e
100
AcDbEntity
  8
Layer_1
 62
7
100
AcDbLine
 10
248.987384
 20
124.874776
 30
0.0
 11
248.987384
 21
124.874776
 31
0.0
  0
SPLINE
  5
22f
100
AcDbEntity
  8
Layer_1
 62
7
100
AcDbSpline
 70
8
 71
3
 72
8
 73
4
 74
0
 40
0
 40
0
 40
0
 40
0
 40
1
 40
1
 40
1
 40
1
 10
189.137290
 20
104.554567
 30
0.0
 10
189.839686
 20
104.574915
 30
0.0
 10
190.520410
 20
104.310090
 30
0.0
 10
191.024391
 20
103.820420
 30
0.0
  0
SPLINE
  5
230
100
AcDbEntity
  8
Layer_1
 62
7
100
AcDbSpline
 70
8
 71
3
 72
8
 73
4
 74
0
 40
0
 40
0
 40
0
 40
0
 40
1
 40
1
 40
1
 40
1
 10
191.024391
 20
103.820420
 30
0.0
 10
191.528372
 20
103.330750
 30
0.0
 10
191.812691
 20
102.657935
 30
0.0
 10
191.812580
 20
101.955245
 30
0.0
  0
SPLINE
  5
231
100
AcDbEntity
  8
Layer_1
 62
7
100
AcDbSpline
 70
8
 71
3
 72
8
 73
4
 74
0
 40
0
 40
0
 40
0
 40
0
 40
1
 40
1
 40
1
 40
1
 10
191.812580
 20
101.955245
 30
0.0
 10
191.812480
 20
101.026354
 30
0.0
 10
191.316922
 20
100.168024
 30
0.0
 10
190.512480
 20
99.703579
 30
0.0
  0
SPLINE
  5
232
100
AcDbEntity
  8
Layer_1
 62
7
100
AcDbSpline
 70
8
 71
3
 72
8
 73
4
 74
0
 40
0
 40
0
 40
0
 40
0
 40
1
 40
1
 40
1
 40
1
 10
190.512480
 20
99.703579
 30
0.0
 10
189.708037
 20
99.239133
 30
0.0
 10
188.716922
 20
99.239133
 30
0.0
 10
187.912480
 20
99.703579
 30
0.0
  0
SPLINE
  5
233
100
AcDbEntity
  8
Layer_1
 62
7
100
AcDbSpline
 70
8
 71
3
 72
8
 73
4
 74
0
 40
0
 40
0
 40
0
 40
0
 40
1
 40
1
 40
1
 40
1
 10
187.912480
 20
99.703579
 30
0.0
 10
187.108037
 20
100.168024
 30
0.0
 10
186.612479
 20
101.026354
 30
0.0
 10
186.612479
 20
101.955245
 30
0.0
  0
SPLINE
  5
234
100
AcDbEntity
  8
Layer_1
 62
7
100
AcDbSpline
 70
8
 71
3
 72
8
 73
4
 74
0
 40
0
 40
0
 40
0
 40
0
 40
1
 40
1
 40
1
 40
1
 10
186.612479
 20
101.955245
 30
0.0
 10
186.612258
 20
103.362064
 30
0.0
 10
187.731059
 20
104.513883
 30
0.0
 10
189.137290
 20
104.554567
 30
0.0
  0
LINE
  5
235
100
AcDbEntity
  8
Layer_1
 62
7
100
AcDbLine
 10
189.137290
 20
104.554567
 30
0.0
 11
189.137290
 21
104.554567
 31
0.0
  0
SPLINE
  5
236
100
AcDbEntity
  8
Layer_1
 62
7
100
AcDbSpline
 70
8
 71
3
 72
8
 73
4
 74
0
 40
0
 40
0
 40
0
 40
0
 40
1
 40
1
 40
1
 40
1
 10
288.837155
 20
104.554567
 30
0.0
 10
289.539549
 20
104.574913
 30
0.0
 10
290.220271
 20
104.310087
 30
0.0
 10
290.724250
 20
103.820417
 30
0.0
  0
SPLINE
  5
237
100
AcDbEntity
  8
Layer_1
 62
7
100
AcDbSpline
 70
8
 71
3
 72
8
 73
4
 74
0
 40
0
 40
0
 40
0
 40
0
 40
1
 40
1
 40
1
 40
1
 10
290.724250
 20
103.820417
 30
0.0
 10
291.228230
 20
103.330747
 30
0.0
 10
291.512548
 20
102.657934
 30
0.0
 10
291.512436
 20
101.955245
 30
0.0
  0
SPLINE
  5
238
100
AcDbEntity
  8
Layer_1
 62
7
100
AcDbSpline
 70
8
 71
3
 72
8
 73
4
 74
0
 40
0
 40
0
 40
0
 40
0
 40
1
 40
1
 40
1
 40
1
 10
291.512436
 20
101.955245
 30
0.0
 10
291.522966
 20
101.019442
 30
0.0
 10
291.029756
 20
100.150184
 30
0.0
 10
290.221036
 20
99.679217
 30
0.0
  0
SPLINE
  5
239
100
AcDbEntity
  8
Layer_1
 62
7
100
AcDbSpline
 70
8
 71
3
 72
8
 73
4
 74
0
 40
0
 40
0
 40
0
 40
0
 40
1
 40
1
 40
1
 40
1
 10
290.221036
 20
99.679217
 30
0.0
 10
289.412317
 20
99.208250
 30
0.0
 10
288.412884
 20
99.208250
 30
0.0
 10
287.604165
 20
99.679217
 30
0.0
  0
SPLINE
  5
23a
100
AcDbEntity
  8
Layer_1
 62
7
100
AcDbSpline
 70
8
 71
3
 72
8
 73
4
 74
0
 40
0
 40
0
 40
0
 40
0
 40
1
 40
1
 40
1
 40
1
 10
287.604165
 20
99.679217
 30
0.0
 10
286.795446
 20
100.150184
 30
0.0
 10
286.302236
 20
101.019442
 30
0.0
 10
286.312765
 20
101.955245
 30
0.0
  0
SPLINE
  5
23b
100
AcDbEntity
  8
Layer_1
 62
7
100
AcDbSpline
 70
8
 71
3
 72
8
 73
4
 74
0
 40
0
 40
0
 40
0
 40
0
 40
1
 40
1
 40
1
 40
1
 10
286.312765
 20
101.955245
 30
0.0
 10
286.312537
 20
103.361905
 30
0.0
 10
287.431089
 20
104.513660
 30
0.0
 10
288.837155
 20
104.554567
 30
0.0
  0
LINE
  5
23c
100
AcDbEntity
  8
Layer_1
 62
7
100
AcDbLine
 10
288.837155
 20
104.554567
 30
0.0
 11
288.837155
 21
104.554567
 31
0.0
  0
SPLINE
  5
23d
100
AcDbEntity
  8
Layer_1
 62
7
100
AcDbSpline
 70
8
 71
3
 72
8
 73
4
 74
0
 40
0
 40
0
 40
0
 40
0
 40
1
 40
1
 40
1
 40
1
 10
288.808712
 20
75.183751
 30
0.0
 10
289.767888
 20
75.211877
 30
0.0
 10
290.697595
 20
74.850505
 30
0.0
 10
291.385986
 20
74.181978
 30
0.0
  0
SPLINE
  5
23e
100
AcDbEntity
  8
Layer_1
 62
7
100
AcDbSpline
 70
8
 71
3
 72
8
 73
4
 74
0
 40
0
 40
0
 40
0
 40
0
 40
1
 40
1
 40
1
 40
1
 10
291.385986
 20
74.181978
 30
0.0
 10
292.074376
 20
73.513450
 30
0.0
 10
292.462806
 20
72.594718
 30
0.0
 10
292.462767
 20
71.635130
 30
0.0
  0
SPLINE
  5
23f
100
AcDbEntity
  8
Layer_1
 62
7
100
AcDbSpline
 70
8
 71
3
 72
8
 73
4
 74
0
 40
0
 40
0
 40
0
 40
0
 40
1
 40
1
 40
1
 40
1
 10
292.462767
 20
71.635130
 30
0.0
 10
292.462601
 20
70.366837
 30
0.0
 10
291.785974
 20
69.194886
 30
0.0
 10
290.687601
 20
68.560740
 30
0.0
  0
SPLINE
  5
240
100
AcDbEntity
  8
Layer_1
 62
7
100
AcDbSpline
 70
8
 71
3
 72
8
 73
4
 74
0
 40
0
 40
0
 40
0
 40
0
 40
1
 40
1
 40
1
 40
1
 10
290.687601
 20
68.560740
 30
0.0
 10
289.589227
 20
67.926594
 30
0.0
 10
288.235974
 20
67.926594
 30
0.0
 10
287.137601
 20
68.560740
 30
0.0
  0
SPLINE
  5
241
100
AcDbEntity
  8
Layer_1
 62
7
100
AcDbSpline
 70
8
 71
3
 72
8
 73
4
 74
0
 40
0
 40
0
 40
0
 40
0
 40
1
 40
1
 40
1
 40
1
 10
287.137601
 20
68.560740
 30
0.0
 10
286.039227
 20
69.194886
 30
0.0
 10
285.362601
 20
70.366837
 30
0.0
 10
285.362601
 20
71.635130
 30
0.0
  0
SPLINE
  5
242
100
AcDbEntity
  8
Layer_1
 62
7
100
AcDbSpline
 70
8
 71
3
 72
8
 73
4
 74
0
 40
0
 40
0
 40
0
 40
0
 40
1
 40
1
 40
1
 40
1
 10
285.362601
 20
71.635130
 30
0.0
 10
285.362524
 20
73.555341
 30
0.0
 10
286.889324
 20
75.127557
 30
0.0
 10
288.808712
 20
75.183751
 30
0.0
  0
LINE
  5
243
100
AcDbEntity
  8
Layer_1
 62
7
100
AcDbLine
 10
288.808712
 20
75.183751
 30
0.0
 11
288.808712
 21
75.183751
 31
0.0
  0
SPLINE
  5
244
100
AcDbEntity
  8
Layer_1
 62
7
100
AcDbSpline
 70
8
 71
3
 72
8
 73
4
 74
0
 40
0
 40
0
 40
0
 40
0
 40
1
 40
1
 40
1
 40
1
 10
189.137290
 20
74.234971
 30
0.0
 10
189.839776
 20
74.255322
 30
0.0
 10
190.520580
 20
73.990426
 30
0.0
 10
191.024577
 20
73.500643
 30
0.0
  0
SPLINE
  5
245
100
AcDbEntity
  8
Layer_1
 62
7
100
AcDbSpline
 70
8
 71
3
 72
8
 73
4
 74
0
 40
0
 40
0
 40
0
 40
0
 40
1
 40
1
 40
1
 40
1
 10
191.024577
 20
73.500643
 30
0.0
 10
191.528574
 20
73.010860
 30
0.0
 10
191.812831
 20
72.337911
 30
0.0
 10
191.812580
 20
71.635130
 30
0.0
  0
SPLINE
  5
246
100
AcDbEntity
  8
Layer_1
 62
7
100
AcDbSpline
 70
8
 71
3
 72
8
 73
4
 74
0
 40
0
 40
0
 40
0
 40
0
 40
1
 40
1
 40
1
 40
1
 10
191.812580
 20
71.635130
 30
0.0
 10
191.812480
 20
70.706240
 30
0.0
 10
191.316922
 20
69.847909
 30
0.0
 10
190.512480
 20
69.383464
 30
0.0
  0
SPLINE
  5
247
100
AcDbEntity
  8
Layer_1
 62
7
100
AcDbSpline
 70
8
 71
3
 72
8
 73
4
 74
0
 40
0
 40
0
 40
0
 40
0
 40
1
 40
1
 40
1
 40
1
 10
190.512480
 20
69.383464
 30
0.0
 10
189.708037
 20
68.919019
 30
0.0
 10
188.716922
 20
68.919019
 30
0.0
 10
187.912480
 20
69.383464
 30
0.0
  0
SPLINE
  5
248
100
AcDbEntity
  8
Layer_1
 62
7
100
AcDbSpline
 70
8
 71
3
 72
8
 73
4
 74
0
 40
0
 40
0
 40
0
 40
0
 40
1
 40
1
 40
1
 40
1
 10
187.912480
 20
69.383464
 30
0.0
 10
187.108037
 20
69.847909
 30
0.0
 10
186.612479
 20
70.706240
 30
0.0
 10
186.612479
 20
71.635130
 30
0.0
  0
SPLINE
  5
249
100
AcDbEntity
  8
Layer_1
 62
7
100
AcDbSpline
 70
8
 71
3
 72
8
 73
4
 74
0
 40
0
 40
0
 40
0
 40
0
 40
1
 40
1
 40
1
 40
1
 10
186.612479
 20
71.635130
 30
0.0
 10
186.611977
 20
73.042151
 30
0.0
 10
187.730858
 20
74.194281
 30
0.0
 10
189.137290
 20
74.234971
 30
0.0
  0
LINE
  5
24a
100
AcDbEntity
  8
Layer_1
 62
7
100
AcDbLine
 10
189.137290
 20
74.234971
 30
0.0
 11
189.137290
 21
74.234971
 31
0.0
  0
SPLINE
  5
24b
100
AcDbEntity
  8
Layer_1
 62
7
100
AcDbSpline
 70
8
 71
3
 72
8
 73
4
 74
0
 40
0
 40
0
 40
0
 40
0
 40
1
 40
1
 40
1
 40
1
 10
180.033970
 20
63.485241
 30
0.0
 10
180.304055
 20
63.492904
 30
0.0
 10
180.565747
 20
63.390949
 30
0.0
 10
180.759461
 20
63.202588
 30
0.0
  0
SPLINE
  5
24c
100
AcDbEntity
  8
Layer_1
 62
7
100
AcDbSpline
 70
8
 71
3
 72
8
 73
4
 74
0
 40
0
 40
0
 40
0
 40
0
 40
1
 40
1
 40
1
 40
1
 10
180.759461
 20
63.202588
 30
0.0
 10
180.953176
 20
63.014228
 30
0.0
 10
181.062424
 20
62.755495
 30
0.0
 10
181.062331
 20
62.485301
 30
0.0
  0
SPLINE
  5
24d
100
AcDbEntity
  8
Layer_1
 62
7
100
AcDbSpline
 70
8
 71
3
 72
8
 73
4
 74
0
 40
0
 40
0
 40
0
 40
0
 40
1
 40
1
 40
1
 40
1
 10
181.062331
 20
62.485301
 30
0.0
 10
181.066283
 20
62.125441
 30
0.0
 10
180.876565
 20
61.791212
 30
0.0
 10
180.565558
 20
61.610131
 30
0.0
  0
SPLINE
  5
24e
100
AcDbEntity
  8
Layer_1
 62
7
100
AcDbSpline
 70
8
 71
3
 72
8
 73
4
 74
0
 40
0
 40
0
 40
0
 40
0
 40
1
 40
1
 40
1
 40
1
 10
180.565558
 20
61.610131
 30
0.0
 10
180.254552
 20
61.429050
 30
0.0
 10
179.870231
 20
61.429050
 30
0.0
 10
179.559225
 20
61.610131
 30
0.0
  0
SPLINE
  5
24f
100
AcDbEntity
  8
Layer_1
 62
7
100
AcDbSpline
 70
8
 71
3
 72
8
 73
4
 74
0
 40
0
 40
0
 40
0
 40
0
 40
1
 40
1
 40
1
 40
1
 10
179.559225
 20
61.610131
 30
0.0
 10
179.248218
 20
61.791212
 30
0.0
 10
179.058500
 20
62.125441
 30
0.0
 10
179.062452
 20
62.485301
 30
0.0
  0
SPLINE
  5
250
100
AcDbEntity
  8
Layer_1
 62
7
100
AcDbSpline
 70
8
 71
3
 72
8
 73
4
 74
0
 40
0
 40
0
 40
0
 40
0
 40
1
 40
1
 40
1
 40
1
 10
179.062452
 20
62.485301
 30
0.0
 10
179.062265
 20
63.026629
 30
0.0
 10
179.492863
 20
63.469823
 30
0.0
 10
180.033970
 20
63.485241
 30
0.0
  0
LINE
  5
251
100
AcDbEntity
  8
Layer_1
 62
7
100
AcDbLine
 10
180.033970
 20
63.485241
 30
0.0
 11
180.033970
 21
63.485241
 31
0.0
  0
SPLINE
  5
252
100
AcDbEntity
  8
Layer_1
 62
7
100
AcDbSpline
 70
8
 71
3
 72
8
 73
4
 74
0
 40
0
 40
0
 40
0
 40
0
 40
1
 40
1
 40
1
 40
1
 10
298.033992
 20
63.485241
 30
0.0
 10
298.304081
 20
63.492910
 30
0.0
 10
298.565778
 20
63.390957
 30
0.0
 10
298.759497
 20
63.202596
 30
0.0
  0
SPLINE
  5
253
100
AcDbEntity
  8
Layer_1
 62
7
100
AcDbSpline
 70
8
 71
3
 72
8
 73
4
 74
0
 40
0
 40
0
 40
0
 40
0
 40
1
 40
1
 40
1
 40
1
 10
298.759497
 20
63.202596
 30
0.0
 10
298.953216
 20
63.014235
 30
0.0
 10
299.062467
 20
62.755499
 30
0.0
 10
299.062374
 20
62.485301
 30
0.0
  0
SPLINE
  5
254
100
AcDbEntity
  8
Layer_1
 62
7
100
AcDbSpline
 70
8
 71
3
 72
8
 73
4
 74
0
 40
0
 40
0
 40
0
 40
0
 40
1
 40
1
 40
1
 40
1
 10
299.062374
 20
62.485301
 30
0.0
 10
299.066326
 20
62.125441
 30
0.0
 10
298.876608
 20
61.791212
 30
0.0
 10
298.565601
 20
61.610131
 30
0.0
  0
SPLINE
  5
255
100
AcDbEntity
  8
Layer_1
 62
7
100
AcDbSpline
 70
8
 71
3
 72
8
 73
4
 74
0
 40
0
 40
0
 40
0
 40
0
 40
1
 40
1
 40
1
 40
1
 10
298.565601
 20
61.610131
 30
0.0
 10
298.254595
 20
61.429050
 30
0.0
 10
297.870274
 20
61.429050
 30
0.0
 10
297.559268
 20
61.610131
 30
0.0
  0
SPLINE
  5
256
100
AcDbEntity
  8
Layer_1
 62
7
100
AcDbSpline
 70
8
 71
3
 72
8
 73
4
 74
0
 40
0
 40
0
 40
0
 40
0
 40
1
 40
1
 40
1
 40
1
 10
297.559268
 20
61.610131
 30
0.0
 10
297.248261
 20
61.791212
 30
0.0
 10
297.058543
 20
62.125441
 30
0.0
 10
297.062495
 20
62.485301
 30
0.0
  0
SPLINE
  5
257
100
AcDbEntity
  8
Layer_1
 62
7
100
AcDbSpline
 70
8
 71
3
 72
8
 73
4
 74
0
 40
0
 40
0
 40
0
 40
0
 40
1
 40
1
 40
1
 40
1
 10
297.062495
 20
62.485301
 30
0.0
 10
297.062308
 20
63.026621
 30
0.0
 10
297.492893
 20
63.469812
 30
0.0
 10
298.033992
 20
63.485241
 30
0.0
  0
LINE
  5
258
100
AcDbEntity
  8
Layer_1
 62
7
100
AcDbLine
 10
298.033992
 20
63.485241
 30
0.0
 11
298.033992
 21
63.485241
 31
0.0
  0
ENDSEC
  0
SECTION
  2
OBJECTS
  0
DICTIONARY
  5
C
330
0
100
AcDbDictionary
  3
ACAD_GROUP
350
D
  3
ACAD_MLINESTYLE
350
17
  0
DICTIONARY
  5
D
330
C
100
AcDbDictionary
  0
DICTIONARY
  5
1A
330
C
100
AcDbDictionary
  0
DICTIONARY
  5
17
330
C
100
AcDbDictionary
  3
STANDARD
350
18
  0
DICTIONARY
  5
19
330
C
100
AcDbDictionary
  0
ENDSEC
  0
EOF
