<?xml version="1.0" encoding="UTF-8" standalone="no"?>
<!-- Created with Inkscape (http://www.inkscape.org/) -->

<svg
   xmlns:dc="http://purl.org/dc/elements/1.1/"
   xmlns:cc="http://creativecommons.org/ns#"
   xmlns:rdf="http://www.w3.org/1999/02/22-rdf-syntax-ns#"
   xmlns:svg="http://www.w3.org/2000/svg"
   xmlns="http://www.w3.org/2000/svg"
   xmlns:sodipodi="http://sodipodi.sourceforge.net/DTD/sodipodi-0.dtd"
   xmlns:inkscape="http://www.inkscape.org/namespaces/inkscape"
   width="600mm"
   height="300mm"
   viewBox="0 0 600 300"
   version="1.1"
   id="svg8"
   inkscape:version="0.92.4 (5da689c313, 2019-01-14)"
   sodipodi:docname="3mm_ALL_with_tabs.svg">
  <defs
     id="defs2">
    <marker
       style="overflow:visible"
       refY="0"
       refX="0"
       orient="auto"
       id="DistanceX">
      <path
         id="path817"
         style="stroke:#000000;stroke-width:0.5"
         d="M 3,-3 -3,3 M 0,-5 V 5"
         inkscape:connector-curvature="0" />
    </marker>
    <pattern
       y="0"
       x="0"
       width="8"
       patternUnits="userSpaceOnUse"
       id="Hatch"
       height="8">
      <path
         id="path820"
         stroke-width="0.25"
         stroke="#000000"
         linecap="square"
         d="M8 4 l-4,4" />
      <path
         id="path822"
         stroke-width="0.25"
         stroke="#000000"
         linecap="square"
         d="M6 2 l-4,4" />
      <path
         id="path824"
         stroke-width="0.25"
         stroke="#000000"
         linecap="square"
         d="M4 0 l-4,4" />
    </pattern>
    <symbol
       id="*MODEL_SPACE" />
    <symbol
       id="*PAPER_SPACE" />
    <marker
       style="overflow:visible"
       refY="0.0"
       refX="0.0"
       orient="auto"
       id="DistanceX-0">
      <path
         id="path907"
         style="stroke:#000000; stroke-width:0.5"
         d="M 3,-3 L -3,3 M 0,-5 L  0,5" />
    </marker>
    <pattern
       y="0"
       x="0"
       width="8"
       patternUnits="userSpaceOnUse"
       id="Hatch-2"
       height="8">
      <path
         id="path910"
         stroke-width="0.25"
         stroke="#000000"
         linecap="square"
         d="M8 4 l-4,4" />
      <path
         id="path912"
         stroke-width="0.25"
         stroke="#000000"
         linecap="square"
         d="M6 2 l-4,4" />
      <path
         id="path914"
         stroke-width="0.25"
         stroke="#000000"
         linecap="square"
         d="M4 0 l-4,4" />
    </pattern>
    <symbol
       id="*MODEL_SPACE-3" />
    <symbol
       id="*PAPER_SPACE-5" />
  </defs>
  <sodipodi:namedview
     id="base"
     pagecolor="#ffffff"
     bordercolor="#666666"
     borderopacity="1.0"
     inkscape:pageopacity="0.0"
     inkscape:pageshadow="2"
     inkscape:zoom="0.49497475"
     inkscape:cx="868.61375"
     inkscape:cy="865.56394"
     inkscape:document-units="mm"
     inkscape:current-layer="layer1"
     showgrid="false"
     inkscape:snap-bbox="true"
     inkscape:bbox-paths="true"
     inkscape:window-width="1858"
     inkscape:window-height="1057"
     inkscape:window-x="54"
     inkscape:window-y="-8"
     inkscape:window-maximized="1" />
  <metadata
     id="metadata5">
    <rdf:RDF>
      <cc:Work
         rdf:about="">
        <dc:format>image/svg+xml</dc:format>
        <dc:type
           rdf:resource="http://purl.org/dc/dcmitype/StillImage" />
        <dc:title></dc:title>
      </cc:Work>
    </rdf:RDF>
  </metadata>
  <g
     inkscape:label="Layer 1"
     inkscape:groupmode="layer"
     id="layer1"
     transform="translate(0,3)">
    <path
       style="fill:#00ffff;stroke:#000000;stroke-width:0.99999994"
       d="M 25.332031 36.332031 L 25.332031 659.95508 L 648.95312 659.95508 L 648.95312 585.57227 L 661.6543 585.57227 L 661.6543 905.25391 A 11.338583 11.338583 0 0 0 672.99219 916.5918 L 1134.0938 916.5918 A 11.338583 11.338583 0 0 0 1145.4336 905.25391 L 1145.4336 493.28516 A 11.338583 11.338583 0 0 0 1134.0938 481.94531 L 982.90625 481.94531 L 982.90625 471.89453 L 1134.0938 471.89453 A 11.338583 11.338583 0 0 0 1145.4336 460.55664 L 1145.4336 48.587891 A 11.338583 11.338583 0 0 0 1134.0938 37.25 L 672.99219 37.25 A 11.338583 11.338583 0 0 0 661.6543 48.587891 L 661.6543 129.76758 L 648.95312 129.76758 L 648.95312 36.332031 L 25.332031 36.332031 z M 97.603516 51.449219 A 3.7795279 3.7795279 0 0 1 101.49023 55.230469 A 3.780271 3.780271 0 1 1 93.929688 55.230469 A 3.7795279 3.7795279 0 0 1 97.603516 51.449219 z M 494.45117 51.451172 A 3.7795279 3.7795279 0 0 1 498.33984 55.230469 A 3.7795279 3.7795279 0 1 1 490.78125 55.230469 A 3.7795279 3.7795279 0 0 1 494.45117 51.451172 z M 680.44336 52.367188 A 3.7795279 3.7795279 0 0 1 684.33008 56.146484 A 3.7795279 3.7795279 0 1 1 676.77148 56.146484 A 3.7795279 3.7795279 0 0 1 680.44336 52.367188 z M 1126.4277 52.367188 A 3.7795279 3.7795279 0 0 1 1130.3145 56.146484 A 3.7795279 3.7795279 0 1 1 1122.7559 56.146484 A 3.7795279 3.7795279 0 0 1 1126.4277 52.367188 z M 230.13281 67.138672 A 22.677165 22.677165 0 0 1 253.46484 89.8125 A 22.67773 22.67773 0 1 1 208.10938 89.8125 A 22.677165 22.677165 0 0 1 230.13281 67.138672 z M 459.31445 67.146484 A 22.677165 22.677165 0 0 1 482.6543 89.8125 A 22.677165 22.677165 0 0 1 437.30078 89.8125 A 22.677165 22.677165 0 0 1 459.31445 67.146484 z M 714.84961 67.222656 A 9.8267717 9.8267717 0 0 1 724.96094 77.048828 A 9.8271499 9.8271499 0 0 1 705.30664 77.048828 A 9.8267717 9.8267717 0 0 1 714.84961 67.222656 z M 1091.668 67.222656 A 9.8267717 9.8267717 0 0 1 1101.7793 77.048828 A 9.8267717 9.8267717 0 1 1 1082.127 77.048828 A 9.8267717 9.8267717 0 0 1 1091.668 67.222656 z M 32.785156 70.345703 A 3.7795279 3.7795279 0 0 1 36.669922 74.128906 A 3.7795279 3.7795279 0 1 1 29.111328 74.128906 A 3.7795279 3.7795279 0 0 1 32.785156 70.345703 z M 648.95312 141.10547 L 661.6543 141.10547 L 661.6543 460.55664 A 11.338583 11.338583 0 0 0 672.99219 471.89453 L 971.56836 471.89453 L 971.56836 481.94531 L 672.99219 481.94531 A 11.338583 11.338583 0 0 0 661.6543 493.28516 L 661.6543 574.23438 L 648.95312 574.23438 L 648.95312 141.10547 z M 1091.5605 175.8125 A 13.417323 13.417323 0 0 1 1105.3711 189.22461 A 13.41795 13.41795 0 1 1 1078.5352 189.22461 A 13.417323 13.417323 0 0 1 1091.5605 175.8125 z M 714.84961 179.39844 A 9.8267717 9.8267717 0 0 1 724.96094 189.22461 A 9.8271499 9.8271499 0 0 1 705.30664 189.22461 A 9.8267717 9.8267717 0 0 1 714.84961 179.39844 z M 865.46484 217.19531 A 9.8267717 9.8267717 0 0 1 875.57422 227.01953 A 9.8267717 9.8267717 0 1 1 855.92188 227.01953 A 9.8267717 9.8267717 0 0 1 865.46484 217.19531 z M 941.05469 217.19531 A 9.8267717 9.8267717 0 0 1 951.16602 227.01953 A 9.8271499 9.8271499 0 0 1 931.51172 227.01953 A 9.8267717 9.8267717 0 0 1 941.05469 217.19531 z M 267.91992 217.75977 A 22.677165 22.677165 0 0 1 291.25977 240.42773 A 22.677735 22.677735 0 0 1 245.9043 240.42773 A 22.677165 22.677165 0 0 1 267.91992 217.75977 z M 267.91992 293.34961 A 22.677165 22.677165 0 0 1 291.25977 316.01758 A 22.677735 22.677735 0 0 1 245.9043 316.01758 A 22.677165 22.677165 0 0 1 267.91992 293.34961 z M 714.84961 293.99414 A 9.8267717 9.8267717 0 0 1 724.96094 303.82031 A 9.8271499 9.8271499 0 0 1 705.30664 303.82031 A 9.8267717 9.8267717 0 0 1 714.84961 293.99414 z M 1091.668 293.99414 A 9.8267717 9.8267717 0 0 1 1101.7793 303.82031 A 9.8267717 9.8267717 0 1 1 1082.127 303.82031 A 9.8267717 9.8267717 0 0 1 1091.668 293.99414 z M 32.785156 344.36133 A 3.7795279 3.7795279 0 0 1 36.669922 348.14453 A 3.7795279 3.7795279 0 1 1 29.111328 348.14453 A 3.7795279 3.7795279 0 0 1 32.785156 344.36133 z M 1091.5605 405.00391 A 13.417323 13.417323 0 0 1 1105.3711 418.41602 A 13.41795 13.41795 0 1 1 1078.5352 418.41602 A 13.417323 13.417323 0 0 1 1091.5605 405.00391 z M 714.84961 408.58984 A 9.8267717 9.8267717 0 0 1 724.96094 418.41602 A 9.8271499 9.8271499 0 0 1 705.30664 418.41602 A 9.8267717 9.8267717 0 0 1 714.84961 408.58984 z M 230.13281 443.95703 A 22.677165 22.677165 0 0 1 253.46484 466.63281 A 22.67773 22.67773 0 1 1 208.10938 466.63281 A 22.677165 22.677165 0 0 1 230.13281 443.95703 z M 459.31445 443.96484 A 22.677165 22.677165 0 0 1 482.6543 466.63281 A 22.677165 22.677165 0 0 1 437.30078 466.63281 A 22.677165 22.677165 0 0 1 459.31445 443.96484 z M 680.44336 449.21875 A 3.7795279 3.7795279 0 0 1 684.33008 452.99805 A 3.7795279 3.7795279 0 1 1 676.77148 452.99805 A 3.7795279 3.7795279 0 0 1 680.44336 449.21875 z M 1126.4277 449.21875 A 3.7795279 3.7795279 0 0 1 1130.3145 452.99805 A 3.7795279 3.7795279 0 1 1 1122.7559 452.99805 A 3.7795279 3.7795279 0 0 1 1126.4277 449.21875 z M 680.44336 497.06445 A 3.7795279 3.7795279 0 0 1 684.33008 500.84375 A 3.7795279 3.7795279 0 1 1 676.77148 500.84375 A 3.7795279 3.7795279 0 0 1 680.44336 497.06445 z M 1126.4277 497.06445 A 3.7795279 3.7795279 0 0 1 1130.3145 500.84375 A 3.7795279 3.7795279 0 1 1 1122.7559 500.84375 A 3.7795279 3.7795279 0 0 1 1126.4277 497.06445 z M 97.603516 497.43359 A 3.7795279 3.7795279 0 0 1 101.49023 501.21484 A 3.780271 3.780271 0 1 1 93.929688 501.21484 A 3.7795279 3.7795279 0 0 1 97.603516 497.43359 z M 494.45117 497.43555 A 3.7795279 3.7795279 0 0 1 498.33984 501.21484 A 3.7795279 3.7795279 0 1 1 490.78125 501.21484 A 3.7795279 3.7795279 0 0 1 494.45117 497.43555 z M 714.84961 511.91992 A 9.826772 9.826772 0 0 1 724.96094 521.74414 A 9.826772 9.826772 0 1 1 705.30664 521.74414 A 9.826772 9.826772 0 0 1 714.84961 511.91992 z M 1091.668 511.91992 A 9.826772 9.826772 0 0 1 1101.7793 521.74414 A 9.826772 9.826772 0 1 1 1082.127 521.74414 A 9.826772 9.826772 0 0 1 1091.668 511.91992 z M 32.785156 618.37695 A 3.7795279 3.7795279 0 0 1 36.669922 622.16016 A 3.7795279 3.7795279 0 1 1 29.111328 622.16016 A 3.7795279 3.7795279 0 0 1 32.785156 618.37695 z M 1091.5605 620.50977 A 13.417323 13.417323 0 0 1 1105.3711 633.91992 A 13.417323 13.417323 0 1 1 1078.5352 633.91992 A 13.417323 13.417323 0 0 1 1091.5605 620.50977 z M 714.84961 624.0957 A 9.826772 9.826772 0 0 1 724.96094 633.91992 A 9.826772 9.826772 0 1 1 705.30664 633.91992 A 9.826772 9.826772 0 0 1 714.84961 624.0957 z M 63.021484 648.61133 A 3.7795279 3.7795279 0 0 1 66.90625 652.39648 A 3.7795279 3.7795279 0 1 1 59.347656 652.39648 A 3.7795279 3.7795279 0 0 1 63.021484 648.61133 z M 611.05273 648.61328 A 3.7795298 3.7795298 0 0 1 614.9375 652.39648 A 3.7795298 3.7795298 0 1 1 607.37891 652.39648 A 3.7795298 3.7795298 0 0 1 611.05273 648.61328 z M 337.03516 648.61719 A 3.7795279 3.7795279 0 0 1 340.92188 652.39648 A 3.7795279 3.7795279 0 1 1 333.36328 652.39648 A 3.7795279 3.7795279 0 0 1 337.03516 648.61719 z M 865.46484 661.89062 A 9.826772 9.826772 0 0 1 875.57422 671.7168 A 9.826772 9.826772 0 1 1 855.92188 671.7168 A 9.826772 9.826772 0 0 1 865.46484 661.89062 z M 941.05469 661.89062 A 9.826772 9.826772 0 0 1 951.16602 671.7168 A 9.826772 9.826772 0 1 1 931.51172 671.7168 A 9.826772 9.826772 0 0 1 941.05469 661.89062 z M 714.84961 738.69141 A 9.826772 9.826772 0 0 1 724.96094 748.51562 A 9.826772 9.826772 0 1 1 705.30664 748.51562 A 9.826772 9.826772 0 0 1 714.84961 738.69141 z M 1091.668 738.69141 A 9.826772 9.826772 0 0 1 1101.7793 748.51562 A 9.826772 9.826772 0 1 1 1082.127 748.51562 A 9.826772 9.826772 0 0 1 1091.668 738.69141 z M 1091.5605 849.69922 A 13.417323 13.417323 0 0 1 1105.3711 863.11133 A 13.417323 13.417323 0 1 1 1078.5352 863.11133 A 13.417323 13.417323 0 0 1 1091.5605 849.69922 z M 714.84961 853.28516 A 9.826772 9.826772 0 0 1 724.96094 863.11133 A 9.826772 9.826772 0 1 1 705.30664 863.11133 A 9.826772 9.826772 0 0 1 714.84961 853.28516 z M 680.44336 893.91406 A 3.7795279 3.7795279 0 0 1 684.33008 897.69336 A 3.7795279 3.7795279 0 1 1 676.77148 897.69336 A 3.7795279 3.7795279 0 0 1 680.44336 893.91406 z M 1126.4277 893.91406 A 3.7795279 3.7795279 0 0 1 1130.3145 897.69336 A 3.7795279 3.7795279 0 1 1 1122.7559 897.69336 A 3.7795279 3.7795279 0 0 1 1126.4277 893.91406 z "
       transform="matrix(0.26458333,0,0,0.26458333,0,-3)"
       id="path863" />
  </g>
</svg>
