<?xml version="1.0" encoding="UTF-8" standalone="no"?>
<!-- Created with Inkscape (http://www.inkscape.org/) -->

<svg
   xmlns:dc="http://purl.org/dc/elements/1.1/"
   xmlns:cc="http://creativecommons.org/ns#"
   xmlns:rdf="http://www.w3.org/1999/02/22-rdf-syntax-ns#"
   xmlns:svg="http://www.w3.org/2000/svg"
   xmlns="http://www.w3.org/2000/svg"
   xmlns:sodipodi="http://sodipodi.sourceforge.net/DTD/sodipodi-0.dtd"
   xmlns:inkscape="http://www.inkscape.org/namespaces/inkscape"
   width="600mm"
   height="300mm"
   viewBox="0 0 600 300"
   version="1.1"
   id="svg8"
   inkscape:version="0.92.4 (5da689c313, 2019-01-14)"
   sodipodi:docname="3mm_ALL.svg">
  <defs
     id="defs2">
    <marker
       style="overflow:visible"
       refY="0"
       refX="0"
       orient="auto"
       id="DistanceX">
      <path
         id="path817"
         style="stroke:#000000;stroke-width:0.5"
         d="M 3,-3 -3,3 M 0,-5 V 5"
         inkscape:connector-curvature="0" />
    </marker>
    <pattern
       y="0"
       x="0"
       width="8"
       patternUnits="userSpaceOnUse"
       id="Hatch"
       height="8">
      <path
         id="path820"
         stroke-width="0.25"
         stroke="#000000"
         linecap="square"
         d="M8 4 l-4,4" />
      <path
         id="path822"
         stroke-width="0.25"
         stroke="#000000"
         linecap="square"
         d="M6 2 l-4,4" />
      <path
         id="path824"
         stroke-width="0.25"
         stroke="#000000"
         linecap="square"
         d="M4 0 l-4,4" />
    </pattern>
    <symbol
       id="*MODEL_SPACE" />
    <symbol
       id="*PAPER_SPACE" />
    <marker
       style="overflow:visible"
       refY="0.0"
       refX="0.0"
       orient="auto"
       id="DistanceX-0">
      <path
         id="path907"
         style="stroke:#000000; stroke-width:0.5"
         d="M 3,-3 L -3,3 M 0,-5 L  0,5" />
    </marker>
    <pattern
       y="0"
       x="0"
       width="8"
       patternUnits="userSpaceOnUse"
       id="Hatch-2"
       height="8">
      <path
         id="path910"
         stroke-width="0.25"
         stroke="#000000"
         linecap="square"
         d="M8 4 l-4,4" />
      <path
         id="path912"
         stroke-width="0.25"
         stroke="#000000"
         linecap="square"
         d="M6 2 l-4,4" />
      <path
         id="path914"
         stroke-width="0.25"
         stroke="#000000"
         linecap="square"
         d="M4 0 l-4,4" />
    </pattern>
    <symbol
       id="*MODEL_SPACE-3" />
    <symbol
       id="*PAPER_SPACE-5" />
  </defs>
  <sodipodi:namedview
     id="base"
     pagecolor="#ffffff"
     bordercolor="#666666"
     borderopacity="1.0"
     inkscape:pageopacity="0.0"
     inkscape:pageshadow="2"
     inkscape:zoom="0.49497475"
     inkscape:cx="868.61375"
     inkscape:cy="865.56394"
     inkscape:document-units="mm"
     inkscape:current-layer="layer1"
     showgrid="false"
     inkscape:snap-bbox="true"
     inkscape:bbox-paths="true"
     inkscape:window-width="1858"
     inkscape:window-height="1057"
     inkscape:window-x="54"
     inkscape:window-y="-8"
     inkscape:window-maximized="1" />
  <metadata
     id="metadata5">
    <rdf:RDF>
      <cc:Work
         rdf:about="">
        <dc:format>image/svg+xml</dc:format>
        <dc:type
           rdf:resource="http://purl.org/dc/dcmitype/StillImage" />
        <dc:title></dc:title>
      </cc:Work>
    </rdf:RDF>
  </metadata>
  <g
     inkscape:label="Layer 1"
     inkscape:groupmode="layer"
     id="layer1"
     transform="translate(0,3)">
    <path
       id="path863"
       style="fill:#00ffff;stroke:#000000;stroke-width:0.26458332"
       d="M 171.70238,6.6130899 V 171.6131 H 6.7023812 V 6.6130899 Z m -44,14.1500221 a 6,6 0 1 0 -12,0 6,6 0 1 0 12,0 z m 0,99.699978 a 6,6 0 1 0 -12,0 6,6 0 1 0 12,0 z M 26.852381,11.613106 a 1.0000001,1.0000001 0 1 0 -1.999999,0 1.0000001,1.0000001 0 1 0 1.999999,0 z M 77.06238,80.613105 a 6,6 0 1 0 -12,0 6,6 0 1 0 12,0 z m 0,-20.000013 a 6,6 0 1 0 -12,0 6,6 0 1 0 12,0 z m 54.79,68.999998 a 1.0000001,1.0000001 0 1 0 -2,0 1.0000001,1.0000001 0 1 0 2,0 z m -64.79,-9.15 a 5.9999998,5.9999998 0 1 0 -11.999999,0 5.9999998,5.9999998 0 1 0 11.999999,0 z m 0,-99.699978 a 5.9999998,5.9999998 0 1 0 -11.999999,0 5.9999998,5.9999998 0 1 0 11.999999,0 z m 64.79,-9.150006 a 1.0000001,1.0000001 0 1 0 -2,0 1.0000001,1.0000001 0 1 0 2,0 z M 26.852381,129.61309 a 1.0000001,1.0000001 0 1 0 -1.999999,0 1.0000001,1.0000001 0 1 0 1.999999,0 z M 9.7023804,16.613096 a 1.0000001,1.0000001 0 1 0 -1.9999986,0 1.0000001,1.0000001 0 1 0 1.9999986,0 z M 90.20238,169.61309 a 1.0000001,1.0000001 0 1 0 -2,0 1.0000001,1.0000001 0 1 0 2,0 z m -72.5,0 a 1.0000001,1.0000001 0 1 0 -1.999998,0 1.0000001,1.0000001 0 1 0 1.999998,0 z M 9.7023804,89.113109 a 1.0000001,1.0000001 0 1 0 -1.9999986,0 1.0000001,1.0000001 0 1 0 1.9999986,0 z M 162.70238,169.61309 a 1.0000006,1.0000006 0 1 0 -2,0 1.0000006,1.0000006 0 1 0 2,0 z M 9.7023804,161.6131 a 1.0000001,1.0000001 0 1 0 -1.9999986,0 1.0000001,1.0000001 0 1 0 1.9999986,0 z" />
    <path
       id="path949"
       style="fill:#00ffff;stroke:#000000;stroke-width:0.26458332"
       d="m 299.125,6.8556487 a 3,3 0 0 1 3,3.0000046 V 118.85565 a 3,3 0 0 1 -3,3.00001 h -122 a 3,3 0 0 1 -3,-3.00001 V 9.8556533 a 3,3 0 0 1 3,-3.0000046 z M 190.875,47.065647 a 2.6000001,2.6000001 0 1 0 -5.2,0 2.6000001,2.6000001 0 1 0 5.2,0 z m 0,60.640013 a 2.6000001,2.6000001 0 1 0 -5.2,0 2.6000001,2.6000001 0 1 0 5.2,0 z m 100.65,0 a 3.55,3.55 0 1 0 -7.1,0 3.55,3.55 0 1 0 7.1,0 z m 0,-60.640013 a 3.55,3.55 0 1 0 -7.1,0 3.55,3.55 0 1 0 7.1,0 z m -0.95,30.320006 a 2.6000001,2.6000001 0 1 0 -5.2,0 2.6000001,2.6000001 0 1 0 5.2,0 z m -99.7,0 a 2.6000001,2.6000001 0 1 0 -5.2,0 2.6000001,2.6000001 0 1 0 5.2,0 z m 99.7,-59.999985 a 2.6000001,2.6000001 0 1 0 -5.2,0 2.6000001,2.6000001 0 1 0 5.2,0 z m -99.7,0 a 2.6000001,2.6000001 0 1 0 -5.2,0 2.6000001,2.6000001 0 1 0 5.2,0 z m 59.85,39.679986 a 2.6000001,2.6000001 0 1 0 -5.2,0 2.6000001,2.6000001 0 1 0 5.2,0 z m -20,0 a 2.6000001,2.6000001 0 1 0 -5.2,0 2.6000001,2.6000001 0 1 0 5.2,0 z m -50.6,-45.209989 a 1.0000001,1.0000001 0 1 0 -2,0 1.0000001,1.0000001 0 1 0 2,0 z m 118,0 a 1.0000001,1.0000001 0 1 0 -2,0 1.0000001,1.0000001 0 1 0 2,0 z m -118,105.000005 a 1.0000001,1.0000001 0 1 0 -2,0 1.0000001,1.0000001 0 1 0 2,0 z m 118,0 a 1.0000001,1.0000001 0 1 0 -2,0 1.0000001,1.0000001 0 1 0 2,0 z" />
    <path
       id="path1023"
       style="fill:#00ffff;stroke:#000000;stroke-width:0.26458332"
       d="m 299.125,124.04613 a 3,3 0 0 1 3,3 v 109 a 3,3 0 0 1 -3,3.00001 h -122 a 3,3 0 0 1 -3,-3.00001 v -109 a 3,3 0 0 1 3,-3 z m -108.25,40.21 a 2.6000001,2.6000001 0 1 0 -5.2,0 2.6000001,2.6000001 0 1 0 5.2,0 z m 0,60.64001 a 2.6000001,2.6000001 0 1 0 -5.2,0 2.6000001,2.6000001 0 1 0 5.2,0 z m 100.65,0 a 3.55,3.55 0 1 0 -7.1,0 3.55,3.55 0 1 0 7.1,0 z m 0,-60.64001 a 3.55,3.55 0 1 0 -7.1,0 3.55,3.55 0 1 0 7.1,0 z m -0.95,30.32 a 2.6000001,2.6000001 0 1 0 -5.2,0 2.6000001,2.6000001 0 1 0 5.2,0 z m -99.7,0 a 2.6000001,2.6000001 0 1 0 -5.2,0 2.6000001,2.6000001 0 1 0 5.2,0 z m 99.7,-59.99998 a 2.6000001,2.6000001 0 1 0 -5.2,0 2.6000001,2.6000001 0 1 0 5.2,0 z m -99.7,0 a 2.6000001,2.6000001 0 1 0 -5.2,0 2.6000001,2.6000001 0 1 0 5.2,0 z m 59.85,39.67998 a 2.6000001,2.6000001 0 1 0 -5.2,0 2.6000001,2.6000001 0 1 0 5.2,0 z m -20,0 a 2.6000001,2.6000001 0 1 0 -5.2,0 2.6000001,2.6000001 0 1 0 5.2,0 z m -50.6,-45.20998 a 1.0000001,1.0000001 0 1 0 -2,0 1.0000001,1.0000001 0 1 0 2,0 z m 118,0 a 1.0000001,1.0000001 0 1 0 -2,0 1.0000001,1.0000001 0 1 0 2,0 z m -118,105 a 1.0000001,1.0000001 0 1 0 -2,0 1.0000001,1.0000001 0 1 0 2,0 z m 118,0 a 1.0000001,1.0000001 0 1 0 -2,0 1.0000001,1.0000001 0 1 0 2,0 z" />
  </g>
</svg>
